#N canvas 38 101 1716 1097 12;
#X msg 622 1010 disconnect;
#X obj 606 1043 netsend -u -b;
#X obj 606 937 list prepend send;
#X obj 606 960 list trim;
#X obj 606 1066 tgl 45 0 empty empty empty 17 7 0 10 #fcfcfc #000000 #000000 0 1;
#X msg 622 989 connect 192.168.4.1 8888;
#X obj 483 267 tgl 50 0 empty m1 ON 55 30 0 40 #fcfcfc #000000 #000000 0 1;
#X obj 510 424 hsl 300 40 0 330 0 0 empty rm1 empty -2 -8 0 10 #fcfcfc #000000 #000000 0 1;
#X obj 507 471 i;
#X obj 530 502 / 10;
#X obj 529 530 nbx 4 40 -1e+37 1e+37 0 0 empty empty Hz 165 25 0 40 #fcfcfc #000000 #000000 0 256;
#X msg 507 391 0;
#X msg 36 32 \; panic bang;
#X obj 507 366 r panic;
#X obj 827 423 hsl 300 40 0 400 0 0 empty rm2 empty -2 -8 0 10 #fcfcfc #000000 #000000 0 1;
#X obj 824 470 i;
#X obj 847 501 / 10;
#X obj 846 529 nbx 4 40 -1e+37 1e+37 0 0 empty empty Hz 165 25 0 40 #fcfcfc #000000 #000000 0 256;
#X msg 824 390 0;
#X obj 824 365 r panic;
#X obj 830 274 tgl 50 0 empty m2 ON 55 30 0 40 #fcfcfc #000000 #000000 0 1;
#X obj 763 586 hsl 400 30 0 80 0 0 empty Istr1 empty -2 -8 0 10 #fcfcfc #000000 #000000 0 1;
#X obj 633 660 tgl 30 0 empty str1 empty 17 7 0 10 #fcfcfc #000000 #000000 0 1;
#X floatatom 683 667 5 2 10000 0 - r1A - 0;
#X obj 794 623 i;
#X floatatom 794 645 5 0 0 0 - - - 0;
#N canvas 994 424 713 736 pwm8bit 1;
#X floatatom 276 206 5 0 0 0 - - - 0;
#X floatatom 272 309 5 0 0 0 - - - 0;
#X obj 272 336 * 255;
#X obj 272 255 / 100;
#X obj 272 364 i;
#X floatatom 272 389 5 0 0 0 - - - 0;
#X obj 298 487 i;
#X obj 266 139 inlet;
#X obj 307 593 outlet;
#X connect 0 0 3 0;
#X connect 1 0 2 0;
#X connect 2 0 4 0;
#X connect 3 0 1 0;
#X connect 4 0 5 0;
#X connect 5 0 6 0;
#X connect 6 0 8 0;
#X connect 7 0 0 0;
#X restore 784 667 pd pwm8bit;
#X obj 911 809 hsl 400 30 0 80 0 0 empty Istr3 empty -2 -8 0 10 #fcfcfc #000000 #000000 0 1;
#X obj 914 843 i;
#X floatatom 914 868 5 0 0 0 - - - 0;
#N canvas 0 23 713 736 pwm8bit 0;
#X floatatom 276 206 5 0 0 0 - - - 0;
#X floatatom 272 309 5 0 0 0 - - - 0;
#X obj 272 336 * 255;
#X obj 272 255 / 100;
#X obj 272 364 i;
#X floatatom 272 389 5 0 0 0 - - - 0;
#X obj 298 487 i;
#X obj 266 139 inlet;
#X obj 307 593 outlet;
#X connect 0 0 3 0;
#X connect 1 0 2 0;
#X connect 2 0 4 0;
#X connect 3 0 1 0;
#X connect 4 0 5 0;
#X connect 5 0 6 0;
#X connect 6 0 8 0;
#X connect 7 0 0 0;
#X restore 908 890 pd pwm8bit;
#X obj 676 773 tgl 30 0 empty str2 empty 17 7 0 10 #fcfcfc #000000 #000000 0 1;
#X floatatom 726 780 5 2 10000 0 - r1B - 0;
#X floatatom 776 781 5 2 10000 0 - r2B - 0;
#X obj 758 882 tgl 30 0 empty str3 empty 17 7 0 10 #fcfcfc #000000 #000000 0 1;
#X floatatom 808 890 5 2 10000 0 - r1C - 0;
#X floatatom 858 892 5 2 10000 0 - r2C - 0;
#X obj 161 768 oscformat -f iiiiiiii /prende_1;
#X obj 96 717 r secu;
#X obj 164 168 i;
#X obj 198 168 + 1;
#X obj 106 291 text define -k secuenciador;
#A set 40 0 40 100 40 0 40 0 \; 40 0 40 0 40 100 40 0 \; 40 0 40 0 40 100 40 0 \; 40 0 40 0 40 0 40 0 \; 40 0 40 100 40 0 40 0 \; 40 0 40 0 40 0 40 0 \; 40 0 40 0 40 100 40 0 \; 40 0 40 0 40 0 40 0 \;;
#X obj 164 225 text get secuenciador;
#X obj 164 141 metro 1000;
#X obj 164 119 tgl 15 0 empty empty empty 17 7 0 10 #fcfcfc #000000 #000000 0 1;
#X obj 164 198 % 8;
#X obj 117 226 + 1;
#X floatatom 117 252 5 0 0 0 - - - 0;
#X obj 164 253 s secu;
#X floatatom 220 112 5 0 0 0 - - - 0;
#X floatatom 733 668 5 2 10000 0 - r2A - 0;
#X text 159 703 sustain 1 duty1;
#X obj 284 425 tgl 30 0 empty empty empty 17 7 0 10 #fcfcfc #000000 #000000 0 1;
#X obj 282 465 oscformat -f i /modo;
#X text 659 778 B;
#X text 740 888 F;
#X obj 389 153 i;
#X obj 423 153 + 1;
#X obj 389 126 metro 1000;
#X obj 389 85 tgl 30 0 empty empty empty 17 7 0 10 #fcfcfc #000000 #000000 0 1;
#X obj 389 183 % 16;
#N canvas -1689 48 1574 1027 secuM 0;
#X floatatom 156 126 5 0 33 0 - - - 0;
#X floatatom 156 174 5 0 40 0 - - - 0;
#X obj 156 107 tgl 15 0 empty empty empty 17 7 0 10 #fcfcfc #000000 #000000 0 1;
#X obj 156 155 tgl 15 0 empty empty empty 17 7 0 10 #fcfcfc #000000 #000000 0 1;
#X obj 70 25 r stepM, f 8;
#X obj 69 53 sel 0 1 2 3 4 5 6 7 8 9 10 11 12 13 14 15;
#X obj 20 271 s motores;
#X obj 21 243 pack 0 0 0 0 0;
#X floatatom 196 126 5 0 33 0 - - - 0;
#X floatatom 196 174 5 0 40 0 - - - 0;
#X obj 196 107 tgl 15 0 empty empty empty 17 7 0 10 #fcfcfc #000000 #000000 0 1;
#X obj 196 155 tgl 15 0 empty empty empty 17 7 0 10 #fcfcfc #000000 #000000 0 1;
#X obj 63 384 s motores;
#X obj 63 355 pack 0 0 0 0 0;
#X floatatom 236 126 5 0 33 0 - - - 0;
#X floatatom 236 174 5 0 40 0 - - - 0;
#X obj 236 107 tgl 15 0 empty empty empty 17 7 0 10 #fcfcfc #000000 #000000 0 1;
#X obj 236 155 tgl 15 0 empty empty empty 17 7 0 10 #fcfcfc #000000 #000000 0 1;
#X obj 133 324 s motores;
#X obj 133 295 pack 0 0 0 0 0;
#X floatatom 276 126 5 0 33 0 - - - 0;
#X floatatom 276 174 5 0 40 0 - - - 0;
#X obj 276 107 tgl 15 0 empty empty empty 17 7 0 10 #fcfcfc #000000 #000000 0 1;
#X obj 276 155 tgl 15 0 empty empty empty 17 7 0 10 #fcfcfc #000000 #000000 0 1;
#X obj 173 384 s motores;
#X obj 173 355 pack 0 0 0 0 0;
#X floatatom 316 126 5 0 33 0 - - - 0;
#X floatatom 316 174 5 0 40 0 - - - 0;
#X obj 316 107 tgl 15 0 empty empty empty 17 7 0 10 #fcfcfc #000000 #000000 0 1;
#X obj 316 155 tgl 15 0 empty empty empty 17 7 0 10 #fcfcfc #000000 #000000 0 1;
#X obj 253 324 s motores;
#X obj 253 295 pack 0 0 0 0 0;
#X floatatom 356 126 5 0 33 0 - - - 0;
#X floatatom 356 174 5 0 40 0 - - - 0;
#X obj 356 107 tgl 15 0 empty empty empty 17 7 0 10 #fcfcfc #000000 #000000 0 1;
#X obj 356 155 tgl 15 0 empty empty empty 17 7 0 10 #fcfcfc #000000 #000000 0 1;
#X obj 293 384 s motores;
#X obj 293 355 pack 0 0 0 0 0;
#X floatatom 396 126 5 0 33 0 - - - 0;
#X floatatom 396 174 5 0 40 0 - - - 0;
#X obj 396 107 tgl 15 0 empty empty empty 17 7 0 10 #fcfcfc #000000 #000000 0 1;
#X obj 396 155 tgl 15 0 empty empty empty 17 7 0 10 #fcfcfc #000000 #000000 0 1;
#X obj 469 324 s motores;
#X obj 469 295 pack 0 0 0 0 0;
#X floatatom 436 126 5 0 33 0 - - - 0;
#X floatatom 436 174 5 0 40 0 - - - 0;
#X obj 436 107 tgl 15 0 empty empty empty 17 7 0 10 #fcfcfc #000000 #000000 0 1;
#X obj 436 155 tgl 15 0 empty empty empty 17 7 0 10 #fcfcfc #000000 #000000 0 1;
#X obj 543 384 s motores;
#X obj 543 355 pack 0 0 0 0 0;
#X floatatom 476 126 5 0 33 0 - - - 0;
#X floatatom 476 174 5 0 40 0 - - - 0;
#X obj 476 107 tgl 15 0 empty empty empty 17 7 0 10 #fcfcfc #000000 #000000 0 1;
#X obj 476 155 tgl 15 0 empty empty empty 17 7 0 10 #fcfcfc #000000 #000000 0 1;
#X obj 359 323 s motores;
#X obj 359 294 pack 0 0 0 0 0;
#X floatatom 516 126 5 0 33 0 - - - 0;
#X floatatom 516 174 5 0 40 0 - - - 0;
#X obj 516 107 tgl 15 0 empty empty empty 17 7 0 10 #fcfcfc #000000 #000000 0 1;
#X obj 516 155 tgl 15 0 empty empty empty 17 7 0 10 #fcfcfc #000000 #000000 0 1;
#X obj 408 384 s motores;
#X obj 408 355 pack 0 0 0 0 0;
#X floatatom 556 126 5 0 33 0 - - - 0;
#X floatatom 556 174 5 0 40 0 - - - 0;
#X obj 556 107 tgl 15 0 empty empty empty 17 7 0 10 #fcfcfc #000000 #000000 0 1;
#X obj 556 155 tgl 15 0 empty empty empty 17 7 0 10 #fcfcfc #000000 #000000 0 1;
#X obj 579 324 s motores;
#X obj 579 295 pack 0 0 0 0 0;
#X floatatom 596 126 5 0 33 0 - - - 0;
#X floatatom 596 174 5 0 40 0 - - - 0;
#X obj 596 107 tgl 15 0 empty empty empty 17 7 0 10 #fcfcfc #000000 #000000 0 1;
#X obj 596 155 tgl 15 0 empty empty empty 17 7 0 10 #fcfcfc #000000 #000000 0 1;
#X obj 653 384 s motores;
#X obj 653 355 pack 0 0 0 0 0;
#X floatatom 636 126 5 0 33 0 - - - 0;
#X floatatom 636 174 5 0 40 0 - - - 0;
#X obj 636 107 tgl 15 0 empty empty empty 17 7 0 10 #fcfcfc #000000 #000000 0 1;
#X obj 636 155 tgl 15 0 empty empty empty 17 7 0 10 #fcfcfc #000000 #000000 0 1;
#X obj 699 324 s motores;
#X obj 699 295 pack 0 0 0 0 0;
#X floatatom 676 126 5 0 33 0 - - - 0;
#X floatatom 676 174 5 0 40 0 - - - 0;
#X obj 676 107 tgl 15 0 empty empty empty 17 7 0 10 #fcfcfc #000000 #000000 0 1;
#X obj 676 155 tgl 15 0 empty empty empty 17 7 0 10 #fcfcfc #000000 #000000 0 1;
#X obj 773 384 s motores;
#X obj 773 355 pack 0 0 0 0 0;
#X floatatom 716 126 5 0 33 0 - - - 0;
#X floatatom 716 174 5 0 40 0 - - - 0;
#X obj 716 107 tgl 15 0 empty empty empty 17 7 0 10 #fcfcfc #000000 #000000 0 1;
#X obj 716 155 tgl 15 0 empty empty empty 17 7 0 10 #fcfcfc #000000 #000000 0 1;
#X obj 809 324 s motores;
#X obj 809 295 pack 0 0 0 0 0;
#X floatatom 756 126 5 0 33 0 - - - 0;
#X floatatom 756 174 5 0 40 0 - - - 0;
#X obj 756 107 tgl 15 0 empty empty empty 17 7 0 10 #fcfcfc #000000 #000000 0 1;
#X obj 756 155 tgl 15 0 empty empty empty 17 7 0 10 #fcfcfc #000000 #000000 0 1;
#X obj 883 384 s motores;
#X obj 883 355 pack 0 0 0 0 0;
#X obj 1086 270 r motores;
#X obj 1086 294 unpack 0 0 0 0 0;
#X obj 1113 324 s m1;
#X obj 1160 397 s rm1;
#X obj 1159 373 * 10;
#X obj 1167 324 s m2;
#X obj 1240 372 * 10;
#X obj 1239 397 s rm2;
#X obj 1240 347 clip 0 40;
#X obj 1159 350 clip 0 33;
#X obj 114 124 cnv 15 10 6 empty empty M1 10 5 0 18 #fcfcfc #404040 0;
#X obj 116 168 cnv 15 10 6 empty empty M2 10 5 0 18 #fcfcfc #404040 0;
#X connect 0 0 7 2;
#X connect 1 0 7 4;
#X connect 2 0 7 1;
#X connect 3 0 7 3;
#X connect 4 0 5 0;
#X connect 5 0 7 0;
#X connect 5 1 13 0;
#X connect 5 2 19 0;
#X connect 5 3 25 0;
#X connect 5 4 31 0;
#X connect 5 5 37 0;
#X connect 5 6 55 0;
#X connect 5 7 61 0;
#X connect 5 8 43 0;
#X connect 5 9 49 0;
#X connect 5 10 67 0;
#X connect 5 11 73 0;
#X connect 5 12 79 0;
#X connect 5 13 85 0;
#X connect 5 14 91 0;
#X connect 5 15 97 0;
#X connect 7 0 6 0;
#X connect 8 0 13 2;
#X connect 9 0 13 4;
#X connect 10 0 13 1;
#X connect 11 0 13 3;
#X connect 13 0 12 0;
#X connect 14 0 19 2;
#X connect 15 0 19 4;
#X connect 16 0 19 1;
#X connect 17 0 19 3;
#X connect 19 0 18 0;
#X connect 20 0 25 2;
#X connect 21 0 25 4;
#X connect 22 0 25 1;
#X connect 23 0 25 3;
#X connect 25 0 24 0;
#X connect 26 0 31 2;
#X connect 27 0 31 4;
#X connect 28 0 31 1;
#X connect 29 0 31 3;
#X connect 31 0 30 0;
#X connect 32 0 37 2;
#X connect 33 0 37 4;
#X connect 34 0 37 1;
#X connect 35 0 37 3;
#X connect 37 0 36 0;
#X connect 38 0 43 2;
#X connect 39 0 43 4;
#X connect 40 0 43 1;
#X connect 41 0 43 3;
#X connect 43 0 42 0;
#X connect 44 0 49 2;
#X connect 45 0 49 4;
#X connect 46 0 49 1;
#X connect 47 0 49 3;
#X connect 49 0 48 0;
#X connect 50 0 55 2;
#X connect 51 0 55 4;
#X connect 52 0 55 1;
#X connect 53 0 55 3;
#X connect 55 0 54 0;
#X connect 56 0 61 2;
#X connect 57 0 61 4;
#X connect 58 0 61 1;
#X connect 59 0 61 3;
#X connect 61 0 60 0;
#X connect 62 0 67 2;
#X connect 63 0 67 4;
#X connect 64 0 67 1;
#X connect 65 0 67 3;
#X connect 67 0 66 0;
#X connect 68 0 73 2;
#X connect 69 0 73 4;
#X connect 70 0 73 1;
#X connect 71 0 73 3;
#X connect 73 0 72 0;
#X connect 74 0 79 2;
#X connect 75 0 79 4;
#X connect 76 0 79 1;
#X connect 77 0 79 3;
#X connect 79 0 78 0;
#X connect 80 0 85 2;
#X connect 81 0 85 4;
#X connect 82 0 85 1;
#X connect 83 0 85 3;
#X connect 85 0 84 0;
#X connect 86 0 91 2;
#X connect 87 0 91 4;
#X connect 88 0 91 1;
#X connect 89 0 91 3;
#X connect 91 0 90 0;
#X connect 92 0 97 2;
#X connect 93 0 97 4;
#X connect 94 0 97 1;
#X connect 95 0 97 3;
#X connect 97 0 96 0;
#X connect 98 0 99 0;
#X connect 99 1 100 0;
#X connect 99 2 107 0;
#X connect 99 3 103 0;
#X connect 99 4 106 0;
#X connect 102 0 101 0;
#X connect 104 0 105 0;
#X connect 106 0 104 0;
#X connect 107 0 102 0;
#X coords 0 -1 1 1 700 100 2 100 100;
#X restore 541 95 pd secuM;
#X obj 389 213 s stepM;
#X floatatom 470 183 5 0 0 0 - - - 0;
#X obj 433 182 + 1;
#X floatatom 457 81 5 0 500 0 - - - 0;
#X obj 460 42 hsl 200 30 1 100 0 0 empty empty empty -2 -8 0 10 #fcfcfc #000000 #000000 0 1;
#N canvas 0 44 690 551 capator 1;
#X obj 219 187 moses 10;
#X obj 220 158 expr 60000/$f1;
#X obj 272 239 outlet;
#X obj 221 128 inlet;
#X connect 0 1 2 0;
#X connect 1 0 0 0;
#X connect 3 0 1 0;
#X restore 456 103 pd capator;
#X msg 1271 290 0;
#X msg 1256 125 0 50 50 0;
#X msg 1335 126 0 50 50 0;
#X msg 1419 126 1 30 43 10;
#X msg 1508 127 0 50 50 0;
#X floatatom 1078 353 5 0 0 0 - - - 0;
#X floatatom 1126 356 5 0 0 0 - - - 0;
#X obj 1080 383 s m1;
#X obj 1120 385 s rm1;
#X floatatom 1175 354 5 0 0 0 - - - 0;
#X floatatom 1223 357 5 0 0 0 - - - 0;
#X obj 1177 384 s m2;
#X obj 1217 386 s rm2;
#X obj 279 399 r modo;
#X floatatom 1273 358 5 0 0 0 - - - 0;
#X obj 1267 387 s modo;
#X floatatom 1326 360 5 0 0 0 - - - 0;
#X floatatom 1379 498 5 0 0 0 - - - 0;
#X obj 1380 523 s str2;
#X floatatom 1459 496 5 0 0 0 - - - 0;
#X obj 1460 521 s str3;
#X floatatom 1531 496 5 0 0 0 - - - 0;
#X obj 1532 521 s str4;
#X obj 1113 307 unpack 0 0 0 0;
#N canvas 742 326 911 815 MOTORES 0;
#X obj 99 188 pack 0 0 0 0;
#X obj 126 131 t b f;
#X obj 157 157 i;
#X obj 195 130 t b f;
#X obj 226 156 i;
#X obj 261 131 t b f;
#X obj 292 157 i;
#X obj 79 82 inlet;
#X obj 137 83 inlet;
#X obj 207 81 inlet;
#X obj 273 86 inlet;
#X obj 99 252 outlet;
#X obj 85 137 i;
#X obj 99 218 oscformat -f iiii /motor;
#X connect 0 0 13 0;
#X connect 1 0 0 0;
#X connect 1 1 2 0;
#X connect 2 0 0 1;
#X connect 3 0 0 0;
#X connect 3 1 4 0;
#X connect 4 0 0 2;
#X connect 5 0 0 0;
#X connect 5 1 6 0;
#X connect 6 0 0 3;
#X connect 7 0 12 0;
#X connect 8 0 1 0;
#X connect 9 0 3 0;
#X connect 10 0 5 0;
#X connect 12 0 0 0;
#X connect 13 0 11 0;
#X restore 485 663 pd MOTORES;
#N canvas 0 44 720 601 -----ESTROBO_1----- 1;
#X obj 186 294 i;
#X obj 242 294 t b f;
#X obj 274 353 i;
#X obj 328 294 t b f;
#X obj 360 352 i;
#X obj 186 245 inlet;
#X obj 242 245 inlet;
#X obj 328 245 inlet;
#X obj 186 465 outlet;
#X obj 186 377 pack 0 0 0 0;
#X obj 401 294 t b f;
#X obj 433 352 i;
#X obj 401 245 inlet;
#X obj 186 416 oscformat -f iiii /estrobo_1;
#X connect 0 0 9 0;
#X connect 1 0 9 0;
#X connect 1 1 2 0;
#X connect 2 0 9 1;
#X connect 3 0 9 0;
#X connect 3 1 4 0;
#X connect 4 0 9 2;
#X connect 5 0 0 0;
#X connect 6 0 1 0;
#X connect 7 0 3 0;
#X connect 9 0 13 0;
#X connect 10 0 9 0;
#X connect 10 1 11 0;
#X connect 11 0 9 3;
#X connect 12 0 10 0;
#X connect 13 0 8 0;
#X restore 633 694 pd -----ESTROBO_1-----;
#X text 607 667 LR;
#N canvas 0 44 720 601 -----ESTROBO_2----- 0;
#X obj 186 294 i;
#X obj 242 294 t b f;
#X obj 274 353 i;
#X obj 328 294 t b f;
#X obj 360 352 i;
#X obj 186 245 inlet;
#X obj 242 245 inlet;
#X obj 328 245 inlet;
#X obj 186 465 outlet;
#X obj 186 377 pack 0 0 0 0;
#X obj 419 294 t b f;
#X obj 451 352 i;
#X obj 419 245 inlet;
#X obj 187 417 oscformat -f iiii /estrobo_2;
#X connect 0 0 9 0;
#X connect 1 0 9 0;
#X connect 1 1 2 0;
#X connect 2 0 9 1;
#X connect 3 0 9 0;
#X connect 3 1 4 0;
#X connect 4 0 9 2;
#X connect 5 0 0 0;
#X connect 6 0 1 0;
#X connect 7 0 3 0;
#X connect 9 0 13 0;
#X connect 10 0 9 0;
#X connect 10 1 11 0;
#X connect 11 0 9 3;
#X connect 12 0 10 0;
#X connect 13 0 8 0;
#X restore 676 805 pd -----ESTROBO_2-----;
#N canvas 0 44 720 601 -----ESTROBO_3----- 0;
#X obj 186 294 i;
#X obj 186 377 pack 0 0 0;
#X obj 242 294 t b f;
#X obj 274 353 i;
#X obj 328 294 t b f;
#X obj 360 352 i;
#X obj 186 245 inlet;
#X obj 242 245 inlet;
#X obj 328 245 inlet;
#X obj 186 465 outlet;
#X obj 400 293 t b f;
#X obj 432 351 i;
#X obj 400 244 inlet;
#X obj 186 416 oscformat -f iiii /estrobo_3;
#X connect 0 0 1 0;
#X connect 1 0 13 0;
#X connect 2 0 1 0;
#X connect 2 1 3 0;
#X connect 3 0 1 1;
#X connect 4 0 1 0;
#X connect 4 1 5 0;
#X connect 5 0 1 2;
#X connect 6 0 0 0;
#X connect 7 0 2 0;
#X connect 8 0 4 0;
#X connect 10 0 1 0;
#X connect 10 1 11 0;
#X connect 11 0 1 2;
#X connect 12 0 10 0;
#X connect 13 0 9 0;
#X restore 758 914 pd -----ESTROBO_3-----;
#X obj 830 701 hsl 400 30 0 80 0 0 empty Istr2 empty -2 -8 0 10 #fcfcfc #000000 #000000 0 1;
#X obj 836 738 i;
#X floatatom 836 761 5 0 0 0 - - - 0;
#N canvas 0 23 713 736 pwm8bit 0;
#X floatatom 276 206 5 0 0 0 - - - 0;
#X floatatom 272 309 5 0 0 0 - - - 0;
#X obj 272 336 * 255;
#X obj 272 255 / 100;
#X obj 272 364 i;
#X floatatom 272 389 5 0 0 0 - - - 0;
#X obj 298 487 i;
#X obj 266 139 inlet;
#X obj 307 593 outlet;
#X connect 0 0 3 0;
#X connect 1 0 2 0;
#X connect 2 0 4 0;
#X connect 3 0 1 0;
#X connect 4 0 5 0;
#X connect 5 0 6 0;
#X connect 6 0 8 0;
#X connect 7 0 0 0;
#X restore 827 783 pd pwm8bit;
#X msg 159 736 40 100 40 100 40 100 40 100;
#X msg 1113 269 1 80 1 80;
#X obj 1332 292 unpack 0 0 0 0;
#X floatatom 1454 321 5 0 0 0 - - - 0;
#X msg 1312 233 0 0 0;
#X obj 1010 241 bng 15 250 50 0 empty empty empty 17 7 0 10 #fcfcfc #000000 #000000;
#X obj 1312 641 metro 1000;
#X obj 1316 584 tgl 15 0 empty empty empty 17 7 0 10 #fcfcfc #000000 #000000 0 1;
#X obj 1389 681 random 5000;
#X obj 1415 721 + 1000;
#X floatatom 1401 604 5 0 0 0 - - - 0;
#X obj 1310 711 t b b;
#X obj 1028 1013 s rm1;
#X obj 1054 949 pipe 1000;
#X obj 1003 905 t b b;
#X obj 1008 885 bng 15 250 50 0 empty empty empty 17 7 0 10 #fcfcfc #000000 #000000;
#X obj 1171 910 t b b;
#X obj 1176 890 bng 15 250 50 0 empty empty empty 17 7 0 10 #fcfcfc #000000 #000000;
#X obj 1197 1018 s rm2;
#X obj 1222 953 pipe 1000;
#X obj 1362 1005 s rm1;
#X obj 1388 941 pipe 1000;
#X obj 1337 897 t b b;
#X obj 1342 877 bng 15 250 50 0 empty empty empty 17 7 0 10 #fcfcfc #000000 #000000;
#X msg 1320 937 170;
#X obj 1489 866 t b b;
#X obj 1494 846 bng 15 250 50 0 empty empty empty 17 7 0 10 #fcfcfc #000000 #000000;
#X obj 1515 974 s rm2;
#X obj 1540 909 pipe 1000;
#X msg 1472 906 200;
#X obj 1381 759 random 4;
#X obj 1382 806 sel 0 1 2 3;
#X floatatom 1459 628 5 0 0 0 - - - 0;
#X obj 1327 385 s str3;
#X obj 1400 389 s r1C;
#X obj 1449 388 s r2C;
#X obj 1505 383 s lstr3;
#X msg 1374 234 1 120 12 2;
#X obj 1303 205 pipe 50;
#X msg 1114 241 1 0 1 0;
#X msg 1112 214 0 0 0 0;
#X obj 1374 204 pipe 50;
#X obj 1010 209 bng 15 250 50 0 empty empty empty 17 7 0 10 #fcfcfc #000000 #000000;
#X msg 1201 506 0;
#X msg 1284 512 1;
#X msg 1041 985 60;
#X msg 1209 990 60;
#X msg 1375 977 60;
#X msg 1527 946 60;
#X msg 986 945 130;
#X msg 1154 950 150;
#X msg 1485 755 4;
#X msg 1524 752 2;
#X obj 1628 744 metro 1000;
#X obj 1632 687 tgl 15 0 empty empty empty 17 7 0 10 #fcfcfc #000000 #000000 0 1;
#X obj 1705 784 random 5000;
#X obj 1731 824 + 1000;
#X floatatom 1717 707 5 0 0 0 - - - 0;
#X obj 1626 814 t b b;
#X obj 1633 1126 s rm1;
#X obj 1646 1055 pipe 1000;
#X obj 1595 1011 t b b;
#X obj 1600 991 bng 15 250 50 0 empty empty empty 17 7 0 10 #fcfcfc #000000 #000000;
#X msg 1633 1091 60;
#X obj 1545 1059 random 130;
#X obj 1555 1088 + 30;
#X obj 1661 862 random 2;
#X obj 1650 918 sel 0 1;
#X obj 1815 1013 pipe 1000;
#X obj 1764 969 t b b;
#X obj 1769 949 bng 15 250 50 0 empty empty empty 17 7 0 10 #fcfcfc #000000 #000000;
#X msg 1802 1049 60;
#X obj 1714 1017 random 130;
#X obj 1724 1046 + 30;
#X obj 1802 1084 s rm2;
#X obj 1665 204 vradio 15 1 0 8 empty empty empty 0 -8 0 10 #fcfcfc #000000 #000000 0;
#X obj 1688 337 sel 0 1 2;
#X msg 1709 371 0;
#X msg 1753 370 1;
#X obj 1867 364 metro 1000;
#X obj 1944 404 random 5000;
#X floatatom 1956 327 5 0 0 0 - - - 0;
#X obj 1865 434 t b b;
#X obj 1872 746 s rm1;
#X obj 1834 631 t b b;
#X obj 1839 611 bng 15 250 50 0 empty empty empty 17 7 0 10 #fcfcfc #000000 #000000;
#X msg 1872 711 60;
#X obj 1900 482 random 2;
#X obj 1889 538 sel 0 1;
#X obj 2003 589 t b b;
#X obj 2008 569 bng 15 250 50 0 empty empty empty 17 7 0 10 #fcfcfc #000000 #000000;
#X msg 2041 669 60;
#X obj 2041 704 s rm2;
#X obj 1867 318 tgl 15 0 empty empty empty 17 7 0 10 #fcfcfc #000000 #000000 0 1;
#X obj 1794 708 + 150;
#X obj 1783 679 random 70;
#X obj 1953 637 random 70;
#X obj 1963 666 + 150;
#X obj 1885 675 pipe 4000;
#X obj 2054 633 pipe 4000;
#X obj 1970 444 + 3000;
#X floatatom 725 630 5 0 0 0 - - - 0;
#X obj 392 802 pipe 500;
#X msg 145 645 40 0 40 100 40 0 40 0;
#X msg 148 555 40 0 40 0 40 100 40 0;
#X msg 158 594 40 100 40 0 40 100 40 100;
#X obj 199 519 bng 15 250 50 0 empty empty empty 17 7 0 10 #fcfcfc #000000 #000000;
#X obj 328 630 pipe 200;
#X obj 338 656 pipe 200;
#X obj 188 905 oscformat -f i /preset;
#X floatatom 189 868 5 0 0 0 - - - 0;
#X connect 0 0 1 0;
#X connect 1 0 4 0;
#X connect 2 0 3 0;
#X connect 3 0 1 0;
#X connect 5 0 1 0;
#X connect 6 0 92 0;
#X connect 7 0 8 0;
#X connect 8 0 9 0;
#X connect 8 0 92 1;
#X connect 9 0 10 0;
#X connect 11 0 7 0;
#X connect 13 0 11 0;
#X connect 14 0 15 0;
#X connect 15 0 16 0;
#X connect 15 0 92 3;
#X connect 16 0 17 0;
#X connect 18 0 14 0;
#X connect 19 0 18 0;
#X connect 20 0 92 2;
#X connect 21 0 24 0;
#X connect 21 0 26 0;
#X connect 22 0 93 0;
#X connect 23 0 93 1;
#X connect 24 0 25 0;
#X connect 26 0 93 3;
#X connect 27 0 28 0;
#X connect 27 0 30 0;
#X connect 28 0 29 0;
#X connect 30 0 96 3;
#X connect 31 0 95 0;
#X connect 32 0 95 1;
#X connect 33 0 95 2;
#X connect 34 0 96 0;
#X connect 35 0 96 1;
#X connect 36 0 96 2;
#X connect 37 0 1 0;
#X connect 38 0 37 0;
#X connect 39 0 40 0;
#X connect 39 0 45 0;
#X connect 40 0 39 1;
#X connect 42 0 48 0;
#X connect 43 0 39 0;
#X connect 44 0 43 0;
#X connect 45 0 46 0;
#X connect 45 0 42 0;
#X connect 46 0 47 0;
#X connect 49 0 43 1;
#X connect 50 0 93 2;
#X connect 52 0 53 0;
#X connect 53 0 2 0;
#X connect 56 0 57 0;
#X connect 56 0 60 0;
#X connect 57 0 56 1;
#X connect 58 0 56 0;
#X connect 59 0 58 0;
#X connect 60 0 62 0;
#X connect 60 0 64 0;
#X connect 64 0 63 0;
#X connect 65 0 67 0;
#X connect 66 0 65 0;
#X connect 67 0 58 1;
#X connect 68 0 82 0;
#X connect 73 0 75 0;
#X connect 74 0 76 0;
#X connect 77 0 79 0;
#X connect 78 0 80 0;
#X connect 81 0 52 0;
#X connect 82 0 83 0;
#X connect 84 0 134 0;
#X connect 85 0 86 0;
#X connect 87 0 88 0;
#X connect 89 0 90 0;
#X connect 91 0 73 0;
#X connect 91 1 74 0;
#X connect 91 2 77 0;
#X connect 91 3 78 0;
#X connect 92 0 2 0;
#X connect 93 0 2 0;
#X connect 95 0 2 0;
#X connect 96 0 2 0;
#X connect 97 0 98 0;
#X connect 97 0 100 0;
#X connect 98 0 99 0;
#X connect 100 0 95 3;
#X connect 101 0 37 0;
#X connect 102 0 91 0;
#X connect 103 0 84 0;
#X connect 103 1 135 0;
#X connect 103 2 136 0;
#X connect 103 3 137 0;
#X connect 104 0 135 0;
#X connect 104 0 136 0;
#X connect 105 0 103 0;
#X connect 106 0 102 0;
#X connect 106 0 142 0;
#X connect 106 0 144 0;
#X connect 106 0 68 0;
#X connect 107 0 109 0;
#X connect 107 0 112 0;
#X connect 108 0 107 0;
#X connect 109 0 110 0;
#X connect 110 0 111 0;
#X connect 111 0 107 1;
#X connect 112 1 131 0;
#X connect 114 0 146 0;
#X connect 115 0 150 0;
#X connect 115 1 114 0;
#X connect 116 0 115 0;
#X connect 117 0 151 0;
#X connect 117 1 120 0;
#X connect 118 0 117 0;
#X connect 120 0 147 0;
#X connect 122 0 148 0;
#X connect 123 0 125 0;
#X connect 123 1 122 0;
#X connect 124 0 123 0;
#X connect 124 0 203 0;
#X connect 125 0 121 0;
#X connect 126 0 130 0;
#X connect 126 1 129 0;
#X connect 127 0 126 0;
#X connect 129 0 149 0;
#X connect 130 0 128 0;
#X connect 131 0 132 0;
#X connect 132 0 116 0;
#X connect 132 1 118 0;
#X connect 132 2 124 0;
#X connect 132 3 127 0;
#X connect 138 0 103 0;
#X connect 139 0 105 0;
#X connect 140 0 91 0;
#X connect 141 0 91 0;
#X connect 142 0 138 0;
#X connect 143 0 140 0;
#X connect 143 0 139 0;
#X connect 143 0 155 0;
#X connect 144 0 108 0;
#X connect 145 0 108 0;
#X connect 146 0 113 0;
#X connect 147 0 119 0;
#X connect 148 0 121 0;
#X connect 149 0 128 0;
#X connect 150 0 113 0;
#X connect 151 0 119 0;
#X connect 152 0 131 1;
#X connect 153 0 131 1;
#X connect 154 0 156 0;
#X connect 154 0 159 0;
#X connect 155 0 154 0;
#X connect 156 0 157 0;
#X connect 157 0 158 0;
#X connect 158 0 154 1;
#X connect 159 1 167 0;
#X connect 161 0 164 0;
#X connect 162 0 165 0;
#X connect 162 1 161 0;
#X connect 163 0 162 0;
#X connect 164 0 160 0;
#X connect 165 0 166 0;
#X connect 166 0 160 0;
#X connect 167 0 168 0;
#X connect 168 0 163 0;
#X connect 168 1 171 0;
#X connect 169 0 172 0;
#X connect 170 0 173 0;
#X connect 170 1 169 0;
#X connect 171 0 170 0;
#X connect 172 0 175 0;
#X connect 173 0 174 0;
#X connect 174 0 175 0;
#X connect 176 0 177 0;
#X connect 177 0 106 0;
#X connect 177 1 143 0;
#X connect 177 2 178 0;
#X connect 177 2 179 0;
#X connect 178 0 155 0;
#X connect 179 0 108 0;
#X connect 180 0 181 0;
#X connect 180 0 183 0;
#X connect 181 0 201 0;
#X connect 182 0 180 1;
#X connect 183 1 188 0;
#X connect 185 0 196 0;
#X connect 185 1 199 0;
#X connect 186 0 185 0;
#X connect 187 0 184 0;
#X connect 188 0 189 0;
#X connect 189 0 186 0;
#X connect 189 1 191 0;
#X connect 190 0 197 0;
#X connect 190 1 200 0;
#X connect 191 0 190 0;
#X connect 192 0 193 0;
#X connect 194 0 180 0;
#X connect 195 0 184 0;
#X connect 196 0 195 0;
#X connect 197 0 198 0;
#X connect 198 0 193 0;
#X connect 199 0 187 0;
#X connect 200 0 192 0;
#X connect 201 0 182 0;
#X connect 202 0 93 1;
#X connect 202 0 93 2;
#X connect 203 0 207 0;
#X connect 204 0 37 0;
#X connect 205 0 37 0;
#X connect 206 0 37 0;
#X connect 207 0 205 0;
#X connect 207 0 208 0;
#X connect 208 0 206 0;
#X connect 208 0 209 0;
#X connect 209 0 204 0;
#X connect 210 0 2 0;
#X connect 211 0 210 0;
