#N canvas 827 239 527 327 12;
#X obj 69 185 print;
#X obj 131 85 nbx 1 22 -1e+37 1e+37 0 0 empty empty empty 165 25 0 40 #fcfcfc #000000 #000000 0 256;
#X obj 192 85 nbx 1 22 -1e+37 1e+37 0 0 empty empty empty 165 25 0 40 #fcfcfc #000000 #000000 0 256;
#X obj 243 85 nbx 1 22 -1e+37 1e+37 0 0 empty empty empty 165 25 0 40 #fcfcfc #000000 #000000 0 256;
#X obj 294 85 nbx 1 22 -1e+37 1e+37 0 0 empty empty empty 165 25 0 40 #fcfcfc #000000 #000000 0 256;
#X obj 342 85 nbx 1 22 -1e+37 1e+37 0 0 empty empty empty 165 25 0 40 #fcfcfc #000000 #000000 0 256;
#X text 131 59 addr \, funct \, Register H \, Register L \, Param H \, Param L;
#X obj 131 160 pack 0 0 0 0 0 0;
#X obj 390 85 nbx 1 22 -1e+37 1e+37 0 0 empty empty empty 165 25 0 40 #fcfcfc #000000 #000000 0 256;
#X obj 131 232 oscformat -f iiiiii /full;
#X obj 229 200 bng 25 250 50 0 empty empty empty 17 7 0 10 #e4e4e4 #4d4d4d #373737;
#X obj 88 40 bng 25 250 50 0 empty empty empty 17 7 0 10 #e4e4e4 #4d4d4d #373737;
#X obj 131 305 list prepend send;
#X obj 131 336 list trim;
#X msg 178 403 disconnect;
#X obj 131 446 netsend -u -b;
#X msg 161 373 connect 192.168.1.80 9000;
#X obj 443 165 nbx 1 22 -1e+37 1e+37 0 0 empty empty empty 165 25 0 40 #fcfcfc #000000 #000000 0 256;
#X obj 504 165 nbx 1 22 -1e+37 1e+37 0 0 empty empty empty 165 25 0 40 #fcfcfc #000000 #000000 0 256;
#X obj 555 165 nbx 1 22 -1e+37 1e+37 0 0 empty empty empty 165 25 0 40 #fcfcfc #000000 #000000 0 256;
#X obj 606 165 nbx 1 22 -1e+37 1e+37 0 0 empty empty empty 165 25 0 40 #fcfcfc #000000 #000000 0 256;
#X obj 654 165 nbx 1 22 -1e+37 1e+37 0 0 empty empty empty 165 25 0 40 #fcfcfc #000000 #000000 0 256;
#X text 443 139 addr \, funct \, Register H \, Register L \, Param H \, Param L;
#X obj 702 165 nbx 1 22 -1e+37 1e+37 0 0 empty empty empty 165 25 0 40 #fcfcfc #000000 #000000 0 256;
#X obj 400 120 bng 25 250 50 0 empty empty empty 17 7 0 10 #e4e4e4 #4d4d4d #373737;
#X obj 479 228 pack 0 0 0 0 0 0;
#X obj 400 277 bng 25 250 50 0 empty empty empty 17 7 0 10 #e4e4e4 #4d4d4d #373737;
#X text 423 290 FREC;
#X obj 540 277 bng 22 250 50 0 empty empty empty 17 7 0 10 #e4e4e4 #4d4d4d #373737;
#X obj 154 200 r msg;
#X obj 408 469 s msg;
#X obj 538 311 list 2 3 20 0 0 1;
#X obj 665 277 bng 22 250 50 0 empty empty empty 17 7 0 10 #e4e4e4 #4d4d4d #373737;
#X obj 663 311 list 2 3 0 23 0 1;
#X text 691 290 TEMP;
#X obj 542 345 bng 22 250 50 0 empty empty empty 17 7 0 10 #e4e4e4 #4d4d4d #373737;
#X obj 540 379 list 2 3 0 3 0 1;
#X text 562 360 RAMP;
#X obj 408 311 list 2 3 0 1 0 1;
#X obj 300 500 bng 25 250 50 0 empty empty empty 17 7 0 10 #e4e4e4 #4d4d4d #373737;
#X text 326 504 FREC;
#X obj 300 528 list 2 3 1 1;
#X obj 300 586 oscformat -f iiii /full2;
#X obj 380 500 bng 25 250 50 0 empty empty empty 17 7 0 10 #e4e4e4 #4d4d4d #373737;
#X text 406 504 RAMP;
#X obj 380 528 list 2 3 3 1;
#X obj 463 501 bng 25 250 50 0 empty empty empty 17 7 0 10 #e4e4e4 #4d4d4d #373737;
#X text 489 505 ???;
#X obj 563 500 bng 25 250 50 0 empty empty empty 17 7 0 10 #e4e4e4 #4d4d4d #373737;
#X text 589 504 TEMP;
#X obj 564 528 list 2 3 23 1;
#X obj 463 529 list 2 3 5 1;
#X obj 656 500 bng 25 250 50 0 empty empty empty 17 7 0 10 #e4e4e4 #4d4d4d #373737;
#X text 682 504 ???;
#X obj 656 528 list 2 3 2001 1;
#X connect 1 0 7 0;
#X connect 2 0 7 1;
#X connect 3 0 7 2;
#X connect 4 0 7 3;
#X connect 5 0 7 4;
#X connect 7 0 9 0;
#X connect 7 0 10 0;
#X connect 7 0 0 0;
#X connect 8 0 7 5;
#X connect 9 0 12 0;
#X connect 11 0 1 0;
#X connect 12 0 13 0;
#X connect 13 0 15 0;
#X connect 14 0 15 0;
#X connect 16 0 15 0;
#X connect 17 0 25 0;
#X connect 18 0 25 1;
#X connect 19 0 25 2;
#X connect 20 0 25 3;
#X connect 21 0 25 4;
#X connect 23 0 25 5;
#X connect 24 0 17 0;
#X connect 26 0 38 0;
#X connect 28 0 31 0;
#X connect 29 0 9 0;
#X connect 31 0 30 0;
#X connect 32 0 33 0;
#X connect 33 0 30 0;
#X connect 35 0 36 0;
#X connect 36 0 30 0;
#X connect 38 0 30 0;
#X connect 39 0 41 0;
#X connect 41 0 42 0;
#X connect 42 0 12 0;
#X connect 43 0 45 0;
#X connect 45 0 42 0;
#X connect 46 0 51 0;
#X connect 48 0 50 0;
#X connect 50 0 42 0;
#X connect 51 0 42 0;
#X connect 52 0 54 0;
#X connect 54 0 42 0;
