#N canvas 169 144 1343 810 12;
#N canvas 92 136 331 294 motor 0;
#X obj 77 223 outlet;
#X obj 77 189 oscformat -f iiii /motor;
#X obj 77 159 pack 0 0 0, f 24;
#X obj 77 34 inlet;
#X obj 77 112 i;
#X obj 128 87 t b f;
#X obj 160 113 i;
#X obj 210 88 t b f;
#X obj 242 112 i;
#X obj 128 33 inlet;
#X obj 210 35 inlet;
#X connect 1 0 0 0;
#X connect 2 0 1 0;
#X connect 3 0 4 0;
#X connect 4 0 2 0;
#X connect 5 0 2 0;
#X connect 5 1 6 0;
#X connect 6 0 2 1;
#X connect 7 0 2 0;
#X connect 7 1 8 0;
#X connect 8 0 2 2;
#X connect 9 0 5 0;
#X connect 10 0 7 0;
#X restore 39 866 pd motor;
#X f 43;
#N canvas 439 297 1176 626 controlMotor 0;
#X obj 104 105 tgl 50 0 onmtr1 onmtr1 ON 55 30 0 40 #fcfcfc #000000 #000000 0 1;
#X obj 106 161 hsl 290 40 0 330 0 0 empty freqmtr1 empty -2 -8 0 10 #fcfcfc #000000 #000000 0 0;
#X obj 457 242 i;
#X obj 480 273 / 10;
#X obj 104 204 nbx 4 40 -1e+37 1e+37 0 0 empty empty Hz 165 25 0 40 #fcfcfc #000000 #000000 0 256;
#X msg 438 188 0;
#X obj 438 163 r panic;
#X obj 290 106 hradio 19 1 0 2 empty empty MOTOR 40 10 0 12 #fcfcfc #000000 #000000 0;
#X floatatom 292 133 5 0 0 0 - - - 0;
#X obj 440 132 i;
#X obj 439 103 + 1;
#X obj 101 363 outlet;
#X obj 238 362 outlet;
#X obj 366 365 outlet;
#X msg 441 71 1;
#X obj 441 43 loadbang;
#X obj 521 214 delay 100;
#X msg 75 65 0;
#X obj 75 40 r panic;
#X connect 0 0 12 0;
#X connect 1 0 16 0;
#X connect 1 0 2 1;
#X connect 2 0 3 0;
#X connect 2 0 13 0;
#X connect 3 0 4 0;
#X connect 5 0 1 0;
#X connect 6 0 5 0;
#X connect 7 0 10 0;
#X connect 8 0 9 0;
#X connect 8 0 11 0;
#X connect 10 0 8 0;
#X connect 14 0 8 0;
#X connect 15 0 14 0;
#X connect 16 0 2 0;
#X connect 17 0 1 0;
#X connect 18 0 17 0;
#X coords 0 -1 2 1 301 146 2 100 100;
#X restore 39 644 pd controlMotor;
#N canvas 92 136 331 294 motor 0;
#X obj 77 223 outlet;
#X obj 77 159 pack 0 0 0, f 24;
#X obj 77 34 inlet;
#X obj 77 112 i;
#X obj 128 87 t b f;
#X obj 160 113 i;
#X obj 210 88 t b f;
#X obj 128 33 inlet;
#X obj 210 35 inlet;
#X obj 77 189 oscformat -f iii /motor;
#X obj 242 112 i;
#X connect 1 0 9 0;
#X connect 2 0 3 0;
#X connect 3 0 1 0;
#X connect 4 0 1 0;
#X connect 4 1 5 0;
#X connect 5 0 1 1;
#X connect 6 0 1 0;
#X connect 6 1 10 0;
#X connect 7 0 4 0;
#X connect 8 0 6 0;
#X connect 9 0 0 0;
#X connect 10 0 1 2;
#X restore 350 866 pd motor;
#X f 43;
#N canvas 336 297 1176 626 controlMotor 0;
#X obj 104 105 tgl 50 0 onmtr2 onmtr2 ON 55 30 0 40 #fcfcfc #000000 #000000 0 1;
#X obj 106 161 hsl 290 40 0 330 0 0 empty freqmtr2 empty -2 -8 0 10 #fcfcfc #000000 #000000 0 0;
#X obj 453 227 i;
#X obj 476 258 / 10;
#X obj 104 204 nbx 4 40 -1e+37 1e+37 0 0 empty empty Hz 165 25 0 40 #fcfcfc #000000 #000000 0 256;
#X obj 290 106 hradio 19 1 0 2 empty empty MOTOR 40 10 0 11 #fcfcfc #000000 #000000 0;
#X floatatom 292 133 5 0 0 0 - - - 0;
#X obj 440 132 i;
#X obj 439 103 + 1;
#X obj 101 363 outlet;
#X obj 238 362 outlet;
#X obj 366 365 outlet;
#X obj 441 43 loadbang;
#X msg 441 71 2;
#X obj 531 204 delay 100;
#X msg 296 120 2;
#X msg 45 71 0;
#X obj 45 46 r panic;
#X connect 0 0 10 0;
#X connect 1 0 2 1;
#X connect 1 0 14 0;
#X connect 2 0 3 0;
#X connect 2 0 11 0;
#X connect 3 0 4 0;
#X connect 5 0 8 0;
#X connect 6 0 9 0;
#X connect 6 0 7 0;
#X connect 8 0 6 0;
#X connect 12 0 13 0;
#X connect 13 0 6 0;
#X connect 14 0 2 0;
#X connect 16 0 1 0;
#X connect 17 0 16 0;
#X coords 0 -1 2 1 301 146 2 100 100;
#X restore 350 644 pd controlMotor;
#X obj 39 927 list prepend send;
#X obj 39 958 list trim;
#X msg 86 1025 disconnect;
#X obj 39 1068 netsend -u -b;
#N canvas 92 136 331 294 estorbo 0;
#X obj 77 223 outlet;
#X obj 77 34 inlet;
#X obj 77 111 i;
#X obj 147 80 t b f;
#X obj 160 111 i;
#X obj 230 80 t b f;
#X obj 243 111 i;
#X obj 147 34 inlet;
#X obj 230 34 inlet;
#X obj 314 80 t b f;
#X obj 327 111 i;
#X obj 396 80 t b f;
#X obj 409 111 i;
#X obj 314 34 inlet;
#X obj 396 34 inlet;
#X obj 479 80 t b f;
#X obj 492 111 i;
#X obj 479 34 inlet;
#X obj 77 159 pack 0 0 0 0 0 0, f 62;
#X obj 77 189 oscformat -f iiiiii /estorbo;
#X connect 1 0 2 0;
#X connect 2 0 18 0;
#X connect 3 0 18 0;
#X connect 3 1 4 0;
#X connect 4 0 18 1;
#X connect 5 0 18 0;
#X connect 5 1 6 0;
#X connect 6 0 18 2;
#X connect 7 0 3 0;
#X connect 8 0 5 0;
#X connect 9 0 18 0;
#X connect 9 1 10 0;
#X connect 10 0 18 3;
#X connect 11 0 18 0;
#X connect 11 1 12 0;
#X connect 12 0 18 4;
#X connect 13 0 9 0;
#X connect 14 0 11 0;
#X connect 15 0 18 0;
#X connect 15 1 16 0;
#X connect 16 0 18 5;
#X connect 17 0 15 0;
#X connect 18 0 19 0;
#X connect 19 0 0 0;
#X restore 672 866 pd estorbo;
#X f 51;
#N canvas 63 101 450 300 controlEstorbo 0;
#X obj 214 20 hradio 19 1 0 5 empty panic LED\ 1 40 -10 0 11 #fcfcfc #000000 #000000 0;
#X floatatom 214 46 5 0 0 0 - - - 0;
#X obj 216 83 hradio 19 1 0 5 empty panic LED\ 2 40 -10 0 11 #fcfcfc #000000 #000000 0;
#X floatatom 216 108 5 0 0 0 - - - 0;
#X obj 10 5 tgl 50 0 onstrob onstrob ON 55 30 0 40 #fcfcfc #000000 #000000 0 1;
#X obj 77 73 vsl 20 102 0 127 0 0 empty empty empty 0 -9 0 10 #e4e4e4 #4d4d4d #373737 0 1;
#X obj 64 178 nbx 3 18 -1e+37 1e+37 0 0 empty empty t1 50 10 0 14 #e4e4e4 #373737 #373737 0 256;
#X obj 561 318 i;
#X obj 145 73 vsl 24 102 0 127 0 0 empty empty empty 0 -9 0 10 #e4e4e4 #4d4d4d #373737 0 1;
#X obj 136 178 nbx 3 18 -1e+37 1e+37 0 0 empty empty t2 50 10 0 14 #e4e4e4 #373737 #373737 0 256;
#X obj 603 318 i;
#X obj 217 139 hsl 133 27 0 255 0 0 empty pwmstrob empty -2 -8 0 10 #e4e4e4 #4d4d4d #373737 0 1;
#X obj 216 178 nbx 3 20 -1e+37 1e+37 0 0 empty empty pwm 50 10 0 14 #e4e4e4 #373737 #373737 0 256;
#X obj 561 358 i;
#X obj 10 364 outlet;
#X obj 64 364 outlet;
#X obj 118 364 outlet;
#X obj 172 364 outlet;
#X obj 226 364 outlet;
#X obj 280 364 outlet;
#X text 20 427 on \, led1 \, led2 \, t1 \, t2 \, pwm;
#X obj 23 73 vsl 20 102 0 127 0 0 empty tstrob both 0 -9 0 10 #e4e4e4 #4d4d4d #373737 0 1;
#X obj 383 114 loadbang 255;
#X obj 20 -34 r panic;
#X connect 0 0 1 0;
#X connect 1 0 15 0;
#X connect 2 0 3 0;
#X connect 3 0 16 0;
#X connect 4 0 14 0;
#X connect 5 0 7 0;
#X connect 6 0 17 0;
#X connect 7 0 6 0;
#X connect 8 0 10 0;
#X connect 9 0 18 0;
#X connect 10 0 9 0;
#X connect 11 0 13 0;
#X connect 12 0 19 0;
#X connect 13 0 12 0;
#X connect 21 0 5 0;
#X connect 21 0 8 0;
#X connect 22 0 11 0;
#X connect 23 0 4 0;
#X connect 23 0 21 0;
#X connect 23 0 11 0;
#X coords 0 0 1 1 354 201 2 2 3;
#X restore 672 644 pd controlEstorbo;
#X text 163 613 Motor 1;
#X text 473 613 Motor 2;
#X text 837 613 Estrobo;
#X msg 17 6 \; panic 0;
#N canvas 136 126 1080 738 seq 0;
#X obj 178 212 tgl 20 0 empty empty play 23 10 0 12 #fcfcfc #000000 #000000 0 1;
#X obj 204 110 i;
#X obj 258 110 + 1;
#X obj 204 142 % 16;
#X obj 199 183 sel 0 1 2 3 4 5 6 7 8 9 10 11 12 13 14 15, f 96;
#X obj 203 237 bng 17 250 50 0 empty empty empty 17 7 0 10 #e4e4e4 #4d4d4d #373737;
#X obj 243 237 bng 17 250 50 0 empty empty empty 17 7 0 10 #e4e4e4 #4d4d4d #373737;
#X obj 284 237 bng 17 250 50 0 empty empty empty 17 7 0 10 #e4e4e4 #4d4d4d #373737;
#X obj 325 237 bng 17 250 50 0 empty empty empty 17 7 0 10 #e4e4e4 #4d4d4d #373737;
#X obj 365 237 bng 17 250 50 0 empty empty empty 17 7 0 10 #e4e4e4 #4d4d4d #373737;
#X obj 406 237 bng 17 250 50 0 empty empty empty 17 7 0 10 #e4e4e4 #4d4d4d #373737;
#X obj 447 237 bng 17 250 50 0 empty empty empty 17 7 0 10 #e4e4e4 #4d4d4d #373737;
#X obj 488 237 bng 17 250 50 0 empty empty empty 17 7 0 10 #e4e4e4 #4d4d4d #373737;
#X obj 528 237 bng 17 250 50 0 empty empty empty 17 7 0 10 #e4e4e4 #4d4d4d #373737;
#X obj 569 237 bng 17 250 50 0 empty empty empty 17 7 0 10 #e4e4e4 #4d4d4d #373737;
#X obj 610 237 bng 17 250 50 0 empty empty empty 17 7 0 10 #e4e4e4 #4d4d4d #373737;
#X obj 651 237 bng 17 250 50 0 empty empty empty 17 7 0 10 #e4e4e4 #4d4d4d #373737;
#X obj 691 237 bng 17 250 50 0 empty empty empty 17 7 0 10 #e4e4e4 #4d4d4d #373737;
#X obj 732 237 bng 17 250 50 0 empty empty empty 17 7 0 10 #e4e4e4 #4d4d4d #373737;
#X obj 773 237 bng 17 250 50 0 empty empty empty 17 7 0 10 #e4e4e4 #4d4d4d #373737;
#X obj 814 237 bng 17 250 50 0 empty empty empty 17 7 0 10 #e4e4e4 #4d4d4d #373737;
#X obj 259 46 expr 60000/$f1;
#X floatatom 105 214 5 0 0 1 bpm - - 12;
#X floatatom 292 78 5 0 0 0 - - - 12;
#X obj 204 78 metro 500;
#N canvas 671 262 450 300 step 0;
#X obj 39 -9 bng 116 250 50 0 empty empty empty 17 7 0 10 #ffffff #c2f4bf #373737;
#X obj 78 31 tgl 18 0 empty empty empty 17 7 0 10 #e4e4e4 #4d4d4d #373737 0 1;
#X floatatom 78 54 5 0 0 0 - - - 12;
#X obj 63 207 spigot;
#X obj 11 5 inlet;
#X obj 11 170 float;
#X obj 61 309 s freqmtr1;
#X obj 69 246 * 10;
#X connect 1 0 3 1;
#X connect 2 0 5 1;
#X connect 3 0 0 0;
#X connect 3 0 7 0;
#X connect 4 0 5 0;
#X connect 5 0 3 0;
#X connect 7 0 6 0;
#X coords 0 0 1 1 35 39 2 78 31;
#X restore 199 263 pd step;
#N canvas 0 22 450 300 step 0;
#X obj 39 -6 bng 116 250 50 0 empty empty empty 17 7 0 10 #ffffff #c2f4bf #373737;
#X obj 78 31 tgl 18 0 empty empty empty 17 7 0 10 #e4e4e4 #4d4d4d #373737 0 1;
#X obj 63 207 spigot;
#X obj 11 5 inlet;
#X floatatom 78 54 5 0 0 0 - - - 12;
#X obj 11 170 float;
#X obj 63 288 s freqmtr1;
#X obj 63 252 * 10;
#X connect 1 0 2 1;
#X connect 2 0 7 0;
#X connect 3 0 5 0;
#X connect 4 0 5 1;
#X connect 5 0 2 0;
#X connect 7 0 6 0;
#X coords 0 0 1 1 36 40 2 78 31;
#X restore 239 263 pd step;
#N canvas 0 22 450 300 step 0;
#X obj 39 -7 bng 116 250 50 0 empty empty empty 17 7 0 10 #ffffff #c2f4bf #373737;
#X obj 78 31 tgl 18 0 empty empty empty 17 7 0 10 #e4e4e4 #4d4d4d #373737 0 1;
#X floatatom 78 54 5 0 0 0 - - - 12;
#X obj 63 207 spigot;
#X obj 11 5 inlet;
#X obj 11 170 float;
#X obj 63 280 s freqmtr1;
#X obj 63 244 * 10;
#X connect 1 0 3 1;
#X connect 2 0 5 1;
#X connect 3 0 0 0;
#X connect 3 0 7 0;
#X connect 4 0 5 0;
#X connect 5 0 3 0;
#X connect 7 0 6 0;
#X coords 0 0 1 1 37 41 2 78 31;
#X restore 279 263 pd step;
#N canvas 0 22 450 300 step 0;
#X obj 39 -6 bng 116 250 50 0 empty empty empty 17 7 0 10 #ffffff #c2f4bf #373737;
#X obj 78 31 tgl 18 0 empty empty empty 17 7 0 10 #e4e4e4 #4d4d4d #373737 0 1;
#X floatatom 78 54 5 0 0 0 - - - 12;
#X obj 63 207 spigot;
#X obj 11 5 inlet;
#X obj 11 170 float;
#X obj 63 291 s freqmtr1;
#X obj 63 255 * 10;
#X connect 1 0 3 1;
#X connect 2 0 5 1;
#X connect 3 0 0 0;
#X connect 3 0 7 0;
#X connect 4 0 5 0;
#X connect 5 0 3 0;
#X connect 7 0 6 0;
#X coords 0 0 1 1 37 41 2 78 31;
#X restore 320 263 pd step;
#N canvas 0 22 450 300 step 0;
#X obj 39 -9 bng 116 250 50 0 empty empty empty 17 7 0 10 #ffffff #c2f4bf #373737;
#X obj 78 31 tgl 18 0 empty empty empty 17 7 0 10 #e4e4e4 #4d4d4d #373737 0 1;
#X floatatom 78 54 5 0 0 0 - - - 12;
#X obj 63 207 spigot;
#X obj 11 5 inlet;
#X obj 11 170 float;
#X obj 63 281 s freqmtr1;
#X obj 63 245 * 10;
#X connect 1 0 3 1;
#X connect 2 0 5 1;
#X connect 3 0 0 0;
#X connect 3 0 7 0;
#X connect 4 0 5 0;
#X connect 5 0 3 0;
#X connect 7 0 6 0;
#X coords 0 0 1 1 37 41 2 78 31;
#X restore 361 263 pd step;
#N canvas 0 22 450 300 step 0;
#X obj 39 -9 bng 116 250 50 0 empty empty empty 17 7 0 10 #ffffff #c2f4bf #373737;
#X obj 78 31 tgl 18 0 empty empty empty 17 7 0 10 #e4e4e4 #4d4d4d #373737 0 1;
#X floatatom 78 54 5 0 0 0 - - - 12;
#X obj 63 207 spigot;
#X obj 11 5 inlet;
#X obj 11 170 float;
#X obj 63 280 s freqmtr1;
#X obj 63 244 * 10;
#X connect 1 0 3 1;
#X connect 2 0 5 1;
#X connect 3 0 0 0;
#X connect 3 0 7 0;
#X connect 4 0 5 0;
#X connect 5 0 3 0;
#X connect 7 0 6 0;
#X coords 0 0 1 1 37 41 2 78 31;
#X restore 401 263 pd step;
#N canvas 0 22 450 300 step 0;
#X obj 39 -7 bng 116 250 50 0 empty empty empty 17 7 0 10 #ffffff #c2f4bf #373737;
#X obj 78 31 tgl 18 0 empty empty empty 17 7 0 10 #e4e4e4 #4d4d4d #373737 0 1;
#X floatatom 78 54 5 0 0 0 - - - 12;
#X obj 63 207 spigot;
#X obj 11 5 inlet;
#X obj 11 170 float;
#X obj 63 284 s freqmtr1;
#X obj 63 248 * 10;
#X connect 1 0 3 1;
#X connect 2 0 5 1;
#X connect 3 0 0 0;
#X connect 3 0 7 0;
#X connect 4 0 5 0;
#X connect 5 0 3 0;
#X connect 7 0 6 0;
#X coords 0 0 1 1 37 41 2 78 31;
#X restore 443 263 pd step;
#N canvas 0 22 450 300 step 0;
#X obj 39 -5 bng 116 250 50 0 empty empty empty 17 7 0 10 #ffffff #c2f4bf #373737;
#X obj 78 31 tgl 18 0 empty empty empty 17 7 0 10 #e4e4e4 #4d4d4d #373737 0 1;
#X floatatom 78 54 5 0 0 0 - - - 12;
#X obj 63 207 spigot;
#X obj 11 5 inlet;
#X obj 11 170 float;
#X obj 63 285 s freqmtr1;
#X obj 63 249 * 10;
#X connect 1 0 3 1;
#X connect 2 0 5 1;
#X connect 3 0 0 0;
#X connect 3 0 7 0;
#X connect 4 0 5 0;
#X connect 5 0 3 0;
#X connect 7 0 6 0;
#X coords 0 0 1 1 37 41 2 78 31;
#X restore 484 263 pd step;
#N canvas 0 22 450 300 step 0;
#X obj 39 -8 bng 116 250 50 0 empty empty empty 17 7 0 10 #ffffff #c2f4bf #373737;
#X obj 78 31 tgl 18 0 empty empty empty 17 7 0 10 #e4e4e4 #4d4d4d #373737 0 1;
#X floatatom 78 54 5 0 0 0 - - - 12;
#X obj 63 207 spigot;
#X obj 11 5 inlet;
#X obj 11 170 float;
#X obj 63 279 s freqmtr1;
#X obj 63 243 * 10;
#X connect 1 0 3 1;
#X connect 2 0 5 1;
#X connect 3 0 0 0;
#X connect 3 0 7 0;
#X connect 4 0 5 0;
#X connect 5 0 3 0;
#X connect 7 0 6 0;
#X coords 0 0 1 1 37 41 2 78 31;
#X restore 525 263 pd step;
#N canvas 0 22 450 300 step 0;
#X obj 39 -6 bng 116 250 50 0 empty empty empty 17 7 0 10 #ffffff #c2f4bf #373737;
#X obj 78 31 tgl 18 0 empty empty empty 17 7 0 10 #e4e4e4 #4d4d4d #373737 0 1;
#X floatatom 78 54 5 0 0 0 - - - 12;
#X obj 63 207 spigot;
#X obj 11 5 inlet;
#X obj 11 170 float;
#X obj 67 319 s freqmtr1;
#X obj 67 283 * 10;
#X connect 1 0 3 1;
#X connect 2 0 5 1;
#X connect 3 0 0 0;
#X connect 3 0 7 0;
#X connect 4 0 5 0;
#X connect 5 0 3 0;
#X connect 7 0 6 0;
#X coords 0 0 1 1 37 41 2 78 31;
#X restore 565 263 pd step;
#N canvas 0 22 450 300 step 0;
#X obj 39 -6 bng 116 250 50 0 empty empty empty 17 7 0 10 #ffffff #c2f4bf #373737;
#X obj 78 31 tgl 18 0 empty empty empty 17 7 0 10 #e4e4e4 #4d4d4d #373737 0 1;
#X floatatom 78 54 5 0 0 0 - - - 12;
#X obj 63 207 spigot;
#X obj 11 5 inlet;
#X obj 11 170 float;
#X obj 63 279 s freqmtr1;
#X obj 63 243 * 10;
#X connect 1 0 3 1;
#X connect 2 0 5 1;
#X connect 3 0 0 0;
#X connect 3 0 7 0;
#X connect 4 0 5 0;
#X connect 5 0 3 0;
#X connect 7 0 6 0;
#X coords 0 0 1 1 37 41 2 78 31;
#X restore 606 263 pd step;
#N canvas 0 22 450 300 step 0;
#X obj 39 -9 bng 116 250 50 0 empty empty empty 17 7 0 10 #ffffff #c2f4bf #373737;
#X obj 78 31 tgl 18 0 empty empty empty 17 7 0 10 #e4e4e4 #4d4d4d #373737 0 1;
#X floatatom 78 54 5 0 0 0 - - - 12;
#X obj 63 207 spigot;
#X obj 11 5 inlet;
#X obj 11 170 float;
#X obj 63 281 s freqmtr1;
#X obj 63 245 * 10;
#X connect 1 0 3 1;
#X connect 2 0 5 1;
#X connect 3 0 0 0;
#X connect 3 0 7 0;
#X connect 4 0 5 0;
#X connect 5 0 3 0;
#X connect 7 0 6 0;
#X coords 0 0 1 1 37 41 2 78 31;
#X restore 647 263 pd step;
#N canvas 0 22 450 300 step 0;
#X obj 39 -8 bng 116 250 50 0 empty empty empty 17 7 0 10 #ffffff #c2f4bf #373737;
#X obj 78 31 tgl 18 0 empty empty empty 17 7 0 10 #e4e4e4 #4d4d4d #373737 0 1;
#X floatatom 78 54 5 0 0 0 - - - 12;
#X obj 63 207 spigot;
#X obj 11 5 inlet;
#X obj 11 170 float;
#X obj 63 276 s freqmtr1;
#X obj 63 240 * 10;
#X connect 1 0 3 1;
#X connect 2 0 5 1;
#X connect 3 0 0 0;
#X connect 3 0 7 0;
#X connect 4 0 5 0;
#X connect 5 0 3 0;
#X connect 7 0 6 0;
#X coords 0 0 1 1 37 41 2 78 31;
#X restore 688 263 pd step;
#N canvas 0 22 450 300 step 0;
#X obj 39 -6 bng 116 250 50 0 empty empty empty 17 7 0 10 #ffffff #c2f4bf #373737;
#X obj 78 31 tgl 18 0 empty empty empty 17 7 0 10 #e4e4e4 #4d4d4d #373737 0 1;
#X floatatom 78 54 5 0 0 0 - - - 12;
#X obj 63 207 spigot;
#X obj 11 5 inlet;
#X obj 11 170 float;
#X obj 63 287 s freqmtr1;
#X obj 63 251 * 10;
#X connect 1 0 3 1;
#X connect 2 0 5 1;
#X connect 3 0 0 0;
#X connect 3 0 7 0;
#X connect 4 0 5 0;
#X connect 5 0 3 0;
#X connect 7 0 6 0;
#X coords 0 0 1 1 37 41 2 78 31;
#X restore 728 263 pd step;
#N canvas 0 22 450 300 step 0;
#X obj 39 -10 bng 116 250 50 0 empty empty empty 17 7 0 10 #ffffff #c2f4bf #373737;
#X obj 78 31 tgl 18 0 empty empty empty 17 7 0 10 #e4e4e4 #4d4d4d #373737 0 1;
#X floatatom 78 54 5 0 0 0 - - - 12;
#X obj 63 207 spigot;
#X obj 11 5 inlet;
#X obj 11 170 float;
#X obj 63 280 s freqmtr1;
#X obj 63 244 * 10;
#X connect 1 0 3 1;
#X connect 2 0 5 1;
#X connect 3 0 0 0;
#X connect 3 0 7 0;
#X connect 4 0 5 0;
#X connect 5 0 3 0;
#X connect 7 0 6 0;
#X coords 0 0 1 1 37 41 2 78 31;
#X restore 769 263 pd step;
#N canvas 0 22 450 300 step 0;
#X obj 39 -6 bng 116 250 50 0 empty empty empty 17 7 0 10 #ffffff #c2f4bf #373737;
#X obj 78 31 tgl 18 0 empty empty empty 17 7 0 10 #e4e4e4 #4d4d4d #373737 0 1;
#X floatatom 78 54 5 0 0 0 - - - 12;
#X obj 63 207 spigot;
#X obj 11 5 inlet;
#X obj 11 170 float;
#X obj 63 285 s freqmtr1;
#X obj 63 249 * 10;
#X connect 1 0 3 1;
#X connect 2 0 5 1;
#X connect 3 0 0 0;
#X connect 3 0 7 0;
#X connect 4 0 5 0;
#X connect 5 0 3 0;
#X connect 7 0 6 0;
#X coords 0 0 1 1 36 40 2 78 31;
#X restore 811 263 pd step;
#N canvas 0 22 450 300 step 0;
#X obj 39 -5 bng 116 250 50 0 empty empty empty 17 7 0 10 #ffffff #c2f4bf #373737;
#X obj 78 31 tgl 18 0 empty empty empty 17 7 0 10 #e4e4e4 #4d4d4d #373737 0 1;
#X floatatom 78 54 5 0 0 0 - - - 12;
#X obj 63 207 spigot;
#X obj 11 5 inlet;
#X obj 11 170 float;
#X obj 63 263 * 10;
#X obj 63 297 s freqmtr2;
#X connect 1 0 3 1;
#X connect 2 0 5 1;
#X connect 3 0 0 0;
#X connect 3 0 6 0;
#X connect 4 0 5 0;
#X connect 5 0 3 0;
#X connect 6 0 7 0;
#X coords 0 0 1 1 35 39 2 78 31;
#X restore 199 332 pd step;
#N canvas 0 22 450 300 step 0;
#X obj 39 -7 bng 116 250 50 0 empty empty empty 17 7 0 10 #ffffff #c2f4bf #373737;
#X obj 78 31 tgl 18 0 empty empty empty 17 7 0 10 #e4e4e4 #4d4d4d #373737 0 1;
#X floatatom 78 54 5 0 0 0 - - - 12;
#X obj 63 207 spigot;
#X obj 11 5 inlet;
#X obj 11 170 float;
#X obj 63 247 * 10;
#X obj 63 281 s freqmtr2;
#X connect 1 0 3 1;
#X connect 2 0 5 1;
#X connect 3 0 0 0;
#X connect 3 0 6 0;
#X connect 4 0 5 0;
#X connect 5 0 3 0;
#X connect 6 0 7 0;
#X coords 0 0 1 1 37 41 2 78 31;
#X restore 239 332 pd step;
#N canvas 0 22 450 300 step 0;
#X obj 39 -8 bng 116 250 50 0 empty empty empty 17 7 0 10 #ffffff #c2f4bf #373737;
#X obj 78 31 tgl 18 0 empty empty empty 17 7 0 10 #e4e4e4 #4d4d4d #373737 0 1;
#X floatatom 78 54 5 0 0 0 - - - 12;
#X obj 63 207 spigot;
#X obj 11 5 inlet;
#X obj 11 170 float;
#X obj 63 244 * 10;
#X obj 63 278 s freqmtr2;
#X connect 1 0 3 1;
#X connect 2 0 5 1;
#X connect 3 0 0 0;
#X connect 3 0 6 0;
#X connect 4 0 5 0;
#X connect 5 0 3 0;
#X connect 6 0 7 0;
#X coords 0 0 1 1 37 41 2 78 31;
#X restore 280 332 pd step;
#N canvas 0 22 450 300 step 0;
#X obj 39 -5 bng 116 250 50 0 empty empty empty 17 7 0 10 #ffffff #c2f4bf #373737;
#X obj 78 31 tgl 18 0 empty empty empty 17 7 0 10 #e4e4e4 #4d4d4d #373737 0 1;
#X floatatom 78 54 5 0 0 0 - - - 12;
#X obj 63 207 spigot;
#X obj 11 5 inlet;
#X obj 11 170 float;
#X obj 39 275 * 10;
#X obj 39 309 s freqmtr2;
#X connect 1 0 3 1;
#X connect 2 0 5 1;
#X connect 3 0 0 0;
#X connect 3 0 6 0;
#X connect 4 0 5 0;
#X connect 5 0 3 0;
#X connect 6 0 7 0;
#X coords 0 0 1 1 37 41 2 78 31;
#X restore 321 332 pd step;
#N canvas 0 22 450 300 step 0;
#X obj 39 -8 bng 116 250 50 0 empty empty empty 17 7 0 10 #ffffff #c2f4bf #373737;
#X obj 78 31 tgl 18 0 empty empty empty 17 7 0 10 #e4e4e4 #4d4d4d #373737 0 1;
#X floatatom 78 54 5 0 0 0 - - - 12;
#X obj 63 207 spigot;
#X obj 11 5 inlet;
#X obj 11 170 float;
#X obj 69 250 * 10;
#X obj 69 284 s freqmtr2;
#X connect 1 0 3 1;
#X connect 2 0 5 1;
#X connect 3 0 0 0;
#X connect 3 0 6 0;
#X connect 4 0 5 0;
#X connect 5 0 3 0;
#X connect 6 0 7 0;
#X coords 0 0 1 1 37 41 2 78 31;
#X restore 362 332 pd step;
#N canvas 0 22 450 300 step 0;
#X obj 39 -6 bng 116 250 50 0 empty empty empty 17 7 0 10 #ffffff #c2f4bf #373737;
#X obj 78 31 tgl 18 0 empty empty empty 17 7 0 10 #e4e4e4 #4d4d4d #373737 0 1;
#X floatatom 78 54 5 0 0 0 - - - 12;
#X obj 63 207 spigot;
#X obj 11 5 inlet;
#X obj 11 170 float;
#X obj 63 244 * 10;
#X obj 63 278 s freqmtr2;
#X connect 1 0 3 1;
#X connect 2 0 5 1;
#X connect 3 0 0 0;
#X connect 3 0 6 0;
#X connect 4 0 5 0;
#X connect 5 0 3 0;
#X connect 6 0 7 0;
#X coords 0 0 1 1 37 41 2 78 31;
#X restore 403 332 pd step;
#N canvas 0 22 450 300 step 0;
#X obj 39 -8 bng 116 250 50 0 empty empty empty 17 7 0 10 #ffffff #c2f4bf #373737;
#X obj 78 31 tgl 18 0 empty empty empty 17 7 0 10 #e4e4e4 #4d4d4d #373737 0 1;
#X floatatom 78 54 5 0 0 0 - - - 12;
#X obj 63 207 spigot;
#X obj 11 5 inlet;
#X obj 11 170 float;
#X obj 63 249 * 10;
#X obj 63 283 s freqmtr2;
#X connect 1 0 3 1;
#X connect 2 0 5 1;
#X connect 3 0 0 0;
#X connect 3 0 6 0;
#X connect 4 0 5 0;
#X connect 5 0 3 0;
#X connect 6 0 7 0;
#X coords 0 0 1 1 37 41 2 78 31;
#X restore 443 332 pd step;
#N canvas 0 22 450 300 step 0;
#X obj 39 -9 bng 116 250 50 0 empty empty empty 17 7 0 10 #ffffff #c2f4bf #373737;
#X obj 78 31 tgl 18 0 empty empty empty 17 7 0 10 #e4e4e4 #4d4d4d #373737 0 1;
#X floatatom 78 54 5 0 0 0 - - - 12;
#X obj 63 207 spigot;
#X obj 11 5 inlet;
#X obj 11 170 float;
#X obj 54 284 * 10;
#X obj 54 318 s freqmtr2;
#X connect 1 0 3 1;
#X connect 2 0 5 1;
#X connect 3 0 0 0;
#X connect 3 0 6 0;
#X connect 4 0 5 0;
#X connect 5 0 3 0;
#X connect 6 0 7 0;
#X coords 0 0 1 1 37 41 2 78 31;
#X restore 484 332 pd step;
#N canvas 0 22 450 300 step 0;
#X obj 39 -6 bng 116 250 50 0 empty empty empty 17 7 0 10 #ffffff #c2f4bf #373737;
#X obj 78 31 tgl 18 0 empty empty empty 17 7 0 10 #e4e4e4 #4d4d4d #373737 0 1;
#X floatatom 78 54 5 0 0 0 - - - 12;
#X obj 63 207 spigot;
#X obj 11 5 inlet;
#X obj 11 170 float;
#X obj 75 247 * 10;
#X obj 75 281 s freqmtr2;
#X connect 1 0 3 1;
#X connect 2 0 5 1;
#X connect 3 0 0 0;
#X connect 3 0 6 0;
#X connect 4 0 5 0;
#X connect 5 0 3 0;
#X connect 6 0 7 0;
#X coords 0 0 1 1 37 41 2 78 31;
#X restore 525 332 pd step;
#N canvas 0 22 450 300 step 0;
#X obj 39 -7 bng 116 250 50 0 empty empty empty 17 7 0 10 #ffffff #c2f4bf #373737;
#X obj 78 31 tgl 18 0 empty empty empty 17 7 0 10 #e4e4e4 #4d4d4d #373737 0 1;
#X floatatom 78 54 5 0 0 0 - - - 12;
#X obj 63 207 spigot;
#X obj 11 5 inlet;
#X obj 11 170 float;
#X obj 74 279 * 10;
#X obj 74 313 s freqmtr2;
#X connect 1 0 3 1;
#X connect 2 0 5 1;
#X connect 3 0 0 0;
#X connect 3 0 6 0;
#X connect 4 0 5 0;
#X connect 5 0 3 0;
#X connect 6 0 7 0;
#X coords 0 0 1 1 37 41 2 78 31;
#X restore 566 332 pd step;
#N canvas 0 22 450 300 step 0;
#X obj 39 -8 bng 116 250 50 0 empty empty empty 17 7 0 10 #ffffff #c2f4bf #373737;
#X obj 78 31 tgl 18 0 empty empty empty 17 7 0 10 #e4e4e4 #4d4d4d #373737 0 1;
#X floatatom 78 54 5 0 0 0 - - - 12;
#X obj 63 207 spigot;
#X obj 11 5 inlet;
#X obj 11 170 float;
#X obj 63 243 * 10;
#X obj 63 277 s freqmtr2;
#X connect 1 0 3 1;
#X connect 2 0 5 1;
#X connect 3 0 0 0;
#X connect 3 0 6 0;
#X connect 4 0 5 0;
#X connect 5 0 3 0;
#X connect 6 0 7 0;
#X coords 0 0 1 1 37 41 2 78 31;
#X restore 607 332 pd step;
#N canvas 0 22 450 300 step 0;
#X obj 39 -8 bng 116 250 50 0 empty empty empty 17 7 0 10 #ffffff #c2f4bf #373737;
#X obj 78 31 tgl 18 0 empty empty empty 17 7 0 10 #e4e4e4 #4d4d4d #373737 0 1;
#X floatatom 78 54 5 0 0 0 - - - 12;
#X obj 63 207 spigot;
#X obj 11 5 inlet;
#X obj 11 170 float;
#X obj 63 243 * 10;
#X obj 63 277 s freqmtr2;
#X connect 1 0 3 1;
#X connect 2 0 5 1;
#X connect 3 0 0 0;
#X connect 3 0 6 0;
#X connect 4 0 5 0;
#X connect 5 0 3 0;
#X connect 6 0 7 0;
#X coords 0 0 1 1 37 41 2 78 31;
#X restore 646 332 pd step;
#N canvas 0 22 450 300 step 0;
#X obj 39 -6 bng 116 250 50 0 empty empty empty 17 7 0 10 #ffffff #c2f4bf #373737;
#X obj 78 31 tgl 18 0 empty empty empty 17 7 0 10 #e4e4e4 #4d4d4d #373737 0 1;
#X floatatom 78 54 5 0 0 0 - - - 12;
#X obj 46 207 spigot;
#X obj 11 5 inlet;
#X obj 11 170 float;
#X obj 56 255 * 10;
#X obj 56 289 s freqmtr2;
#X connect 1 0 3 1;
#X connect 2 0 5 1;
#X connect 3 0 0 0;
#X connect 3 0 6 0;
#X connect 4 0 5 0;
#X connect 5 0 3 0;
#X connect 6 0 7 0;
#X coords 0 0 1 1 37 41 2 78 31;
#X restore 687 332 pd step;
#N canvas 0 22 450 300 step 0;
#X obj 39 -8 bng 116 250 50 0 empty empty empty 17 7 0 10 #ffffff #c2f4bf #373737;
#X obj 78 31 tgl 18 0 empty empty empty 17 7 0 10 #e4e4e4 #4d4d4d #373737 0 1;
#X floatatom 78 54 5 0 0 0 - - - 12;
#X obj 63 207 spigot;
#X obj 11 5 inlet;
#X obj 11 170 float;
#X obj 33 272 * 10;
#X obj 33 306 s freqmtr2;
#X connect 1 0 3 1;
#X connect 2 0 5 1;
#X connect 3 0 0 0;
#X connect 3 0 6 0;
#X connect 4 0 5 0;
#X connect 5 0 3 0;
#X connect 6 0 7 0;
#X coords 0 0 1 1 37 41 2 78 31;
#X restore 728 332 pd step;
#N canvas 0 22 450 300 step 0;
#X obj 39 -6 bng 116 250 50 0 empty empty empty 17 7 0 10 #ffffff #c2f4bf #373737;
#X obj 78 31 tgl 18 0 empty empty empty 17 7 0 10 #e4e4e4 #4d4d4d #373737 0 1;
#X floatatom 78 54 5 0 0 0 - - - 12;
#X obj 63 207 spigot;
#X obj 11 5 inlet;
#X obj 11 170 float;
#X obj 63 254 * 10;
#X obj 63 288 s freqmtr2;
#X connect 1 0 3 1;
#X connect 2 0 5 1;
#X connect 3 0 0 0;
#X connect 3 0 6 0;
#X connect 4 0 5 0;
#X connect 5 0 3 0;
#X connect 6 0 7 0;
#X coords 0 0 1 1 37 41 2 78 31;
#X restore 769 332 pd step;
#N canvas 0 22 450 300 step 0;
#X obj 39 -7 bng 116 250 50 0 empty empty empty 17 7 0 10 #ffffff #c2f4bf #373737;
#X obj 78 31 tgl 18 0 empty empty empty 17 7 0 10 #e4e4e4 #4d4d4d #373737 0 1;
#X floatatom 78 54 5 0 0 0 - - - 12;
#X obj 63 207 spigot;
#X obj 11 5 inlet;
#X obj 11 170 float;
#X obj 63 243 * 10;
#X obj 63 277 s freqmtr2;
#X connect 1 0 3 1;
#X connect 2 0 5 1;
#X connect 3 0 0 0;
#X connect 3 0 6 0;
#X connect 4 0 5 0;
#X connect 5 0 3 0;
#X connect 6 0 7 0;
#X coords 0 0 1 1 37 41 2 78 31;
#X restore 810 332 pd step;
#X obj 106 263 tgl 41 0 onmtr1 onmtr1 ON\ Motor\ 1 -12 -10 0 14 #fcfcfc #000000 #000000 0 1;
#X obj 106 332 tgl 41 0 onmtr2 onmtr2 ON\ Motor\ 2 -12 -10 0 14 #fcfcfc #000000 #000000 0 1;
#X obj 106 425 tgl 41 0 onstrob onstrob ON\ Strob -5 -10 0 14 #fcfcfc #000000 #000000 0 1;
#N canvas 448 420 450 300 stepStrob 0;
#X obj 312 171 bng 226 250 50 0 empty empty empty 17 7 0 10 #ffffff #c2f4bf #373737;
#X obj 409 252 tgl 18 0 empty empty empty 17 7 0 10 #e4e4e4 #4d4d4d #373737 0 1;
#X floatatom 409 274 5 0 0 0 - - - 12;
#X obj 370 510 spigot;
#X obj 271 172 inlet;
#X obj 285 439 float;
#X obj 370 573 s tstrob;
#X obj 568 567 s pwmstrob;
#X obj 568 522 spigot;
#X floatatom 409 297 5 0 0 0 - - - 12;
#X obj 486 480 float;
#X connect 1 0 3 1;
#X connect 1 0 8 1;
#X connect 2 0 5 1;
#X connect 3 0 0 0;
#X connect 3 0 6 0;
#X connect 4 0 5 0;
#X connect 4 0 10 0;
#X connect 5 0 3 0;
#X connect 8 0 7 0;
#X connect 9 0 10 1;
#X connect 10 0 8 0;
#X coords 0 0 1 1 36 63 2 409 251;
#X restore 199 404 pd stepStrob;
#N canvas 0 22 450 300 stepStrob 0;
#X obj 312 171 bng 226 250 50 0 empty empty empty 17 7 0 10 #ffffff #c2f4bf #373737;
#X obj 409 252 tgl 18 0 empty empty empty 17 7 0 10 #e4e4e4 #4d4d4d #373737 0 1;
#X floatatom 409 274 5 0 0 0 - - - 12;
#X obj 370 510 spigot;
#X obj 271 172 inlet;
#X obj 285 439 float;
#X obj 370 573 s tstrob;
#X obj 568 567 s pwmstrob;
#X obj 568 522 spigot;
#X floatatom 409 297 5 0 0 0 - - - 12;
#X obj 486 480 float;
#X connect 1 0 3 1;
#X connect 1 0 8 1;
#X connect 2 0 5 1;
#X connect 3 0 0 0;
#X connect 3 0 6 0;
#X connect 4 0 5 0;
#X connect 4 0 10 0;
#X connect 5 0 3 0;
#X connect 8 0 7 0;
#X connect 9 0 10 1;
#X connect 10 0 8 0;
#X coords 0 0 1 1 37 64 2 409 251;
#X restore 239 404 pd stepStrob;
#N canvas 0 22 450 300 stepStrob 0;
#X obj 312 171 bng 226 250 50 0 empty empty empty 17 7 0 10 #ffffff #c2f4bf #373737;
#X obj 409 252 tgl 18 0 empty empty empty 17 7 0 10 #e4e4e4 #4d4d4d #373737 0 1;
#X floatatom 409 274 5 0 0 0 - - - 12;
#X obj 370 510 spigot;
#X obj 271 172 inlet;
#X obj 285 439 float;
#X obj 370 573 s tstrob;
#X obj 568 567 s pwmstrob;
#X obj 568 522 spigot;
#X floatatom 409 297 5 0 0 0 - - - 12;
#X obj 486 480 float;
#X connect 1 0 3 1;
#X connect 1 0 8 1;
#X connect 2 0 5 1;
#X connect 3 0 0 0;
#X connect 3 0 6 0;
#X connect 4 0 5 0;
#X connect 4 0 10 0;
#X connect 5 0 3 0;
#X connect 8 0 7 0;
#X connect 9 0 10 1;
#X connect 10 0 8 0;
#X coords 0 0 1 1 37 64 2 409 251;
#X restore 280 404 pd stepStrob;
#N canvas 0 22 450 300 stepStrob 0;
#X obj 312 171 bng 226 250 50 0 empty empty empty 17 7 0 10 #ffffff #c2f4bf #373737;
#X obj 409 252 tgl 18 0 empty empty empty 17 7 0 10 #e4e4e4 #4d4d4d #373737 0 1;
#X floatatom 409 274 5 0 0 0 - - - 12;
#X obj 370 510 spigot;
#X obj 271 172 inlet;
#X obj 285 439 float;
#X obj 370 573 s tstrob;
#X obj 568 567 s pwmstrob;
#X obj 568 522 spigot;
#X floatatom 409 297 5 0 0 0 - - - 12;
#X obj 486 480 float;
#X connect 1 0 3 1;
#X connect 1 0 8 1;
#X connect 2 0 5 1;
#X connect 3 0 0 0;
#X connect 3 0 6 0;
#X connect 4 0 5 0;
#X connect 4 0 10 0;
#X connect 5 0 3 0;
#X connect 8 0 7 0;
#X connect 9 0 10 1;
#X connect 10 0 8 0;
#X coords 0 0 1 1 37 64 2 409 251;
#X restore 321 404 pd stepStrob;
#N canvas 0 22 450 300 stepStrob 0;
#X obj 312 171 bng 226 250 50 0 empty empty empty 17 7 0 10 #ffffff #c2f4bf #373737;
#X obj 409 252 tgl 18 0 empty empty empty 17 7 0 10 #e4e4e4 #4d4d4d #373737 0 1;
#X floatatom 409 274 5 0 0 0 - - - 12;
#X obj 370 510 spigot;
#X obj 271 172 inlet;
#X obj 285 439 float;
#X obj 370 573 s tstrob;
#X obj 568 567 s pwmstrob;
#X obj 568 522 spigot;
#X floatatom 409 297 5 0 0 0 - - - 12;
#X obj 486 480 float;
#X connect 1 0 3 1;
#X connect 1 0 8 1;
#X connect 2 0 5 1;
#X connect 3 0 0 0;
#X connect 3 0 6 0;
#X connect 4 0 5 0;
#X connect 4 0 10 0;
#X connect 5 0 3 0;
#X connect 8 0 7 0;
#X connect 9 0 10 1;
#X connect 10 0 8 0;
#X coords 0 0 1 1 37 64 2 409 251;
#X restore 361 404 pd stepStrob;
#N canvas 0 22 450 300 stepStrob 0;
#X obj 312 171 bng 226 250 50 0 empty empty empty 17 7 0 10 #ffffff #c2f4bf #373737;
#X obj 409 252 tgl 18 0 empty empty empty 17 7 0 10 #e4e4e4 #4d4d4d #373737 0 1;
#X floatatom 409 274 5 0 0 0 - - - 12;
#X obj 370 510 spigot;
#X obj 271 172 inlet;
#X obj 285 439 float;
#X obj 370 573 s tstrob;
#X obj 568 567 s pwmstrob;
#X obj 568 522 spigot;
#X floatatom 409 297 5 0 0 0 - - - 12;
#X obj 486 480 float;
#X connect 1 0 3 1;
#X connect 1 0 8 1;
#X connect 2 0 5 1;
#X connect 3 0 0 0;
#X connect 3 0 6 0;
#X connect 4 0 5 0;
#X connect 4 0 10 0;
#X connect 5 0 3 0;
#X connect 8 0 7 0;
#X connect 9 0 10 1;
#X connect 10 0 8 0;
#X coords 0 0 1 1 37 64 2 409 251;
#X restore 402 404 pd stepStrob;
#N canvas 0 22 450 300 stepStrob 0;
#X obj 312 171 bng 226 250 50 0 empty empty empty 17 7 0 10 #ffffff #c2f4bf #373737;
#X obj 409 252 tgl 18 0 empty empty empty 17 7 0 10 #e4e4e4 #4d4d4d #373737 0 1;
#X floatatom 409 274 5 0 0 0 - - - 12;
#X obj 370 510 spigot;
#X obj 271 172 inlet;
#X obj 285 439 float;
#X obj 370 573 s tstrob;
#X obj 568 567 s pwmstrob;
#X obj 568 522 spigot;
#X floatatom 409 297 5 0 0 0 - - - 12;
#X obj 486 480 float;
#X connect 1 0 3 1;
#X connect 1 0 8 1;
#X connect 2 0 5 1;
#X connect 3 0 0 0;
#X connect 3 0 6 0;
#X connect 4 0 5 0;
#X connect 4 0 10 0;
#X connect 5 0 3 0;
#X connect 8 0 7 0;
#X connect 9 0 10 1;
#X connect 10 0 8 0;
#X coords 0 0 1 1 37 64 2 409 251;
#X restore 443 404 pd stepStrob;
#N canvas 0 22 450 300 stepStrob 0;
#X obj 312 171 bng 226 250 50 0 empty empty empty 17 7 0 10 #ffffff #c2f4bf #373737;
#X obj 409 252 tgl 18 0 empty empty empty 17 7 0 10 #e4e4e4 #4d4d4d #373737 0 1;
#X floatatom 409 274 5 0 0 0 - - - 12;
#X obj 370 510 spigot;
#X obj 271 172 inlet;
#X obj 285 439 float;
#X obj 370 573 s tstrob;
#X obj 568 567 s pwmstrob;
#X obj 568 522 spigot;
#X floatatom 409 297 5 0 0 0 - - - 12;
#X obj 486 480 float;
#X connect 1 0 3 1;
#X connect 1 0 8 1;
#X connect 2 0 5 1;
#X connect 3 0 0 0;
#X connect 3 0 6 0;
#X connect 4 0 5 0;
#X connect 4 0 10 0;
#X connect 5 0 3 0;
#X connect 8 0 7 0;
#X connect 9 0 10 1;
#X connect 10 0 8 0;
#X coords 0 0 1 1 37 64 2 409 251;
#X restore 484 404 pd stepStrob;
#N canvas 0 22 450 300 stepStrob 0;
#X obj 312 171 bng 226 250 50 0 empty empty empty 17 7 0 10 #ffffff #c2f4bf #373737;
#X obj 409 252 tgl 18 0 empty empty empty 17 7 0 10 #e4e4e4 #4d4d4d #373737 0 1;
#X floatatom 409 274 5 0 0 0 - - - 12;
#X obj 370 510 spigot;
#X obj 271 172 inlet;
#X obj 285 439 float;
#X obj 370 573 s tstrob;
#X obj 568 567 s pwmstrob;
#X obj 568 522 spigot;
#X floatatom 409 297 5 0 0 0 - - - 12;
#X obj 486 480 float;
#X connect 1 0 3 1;
#X connect 1 0 8 1;
#X connect 2 0 5 1;
#X connect 3 0 0 0;
#X connect 3 0 6 0;
#X connect 4 0 5 0;
#X connect 4 0 10 0;
#X connect 5 0 3 0;
#X connect 8 0 7 0;
#X connect 9 0 10 1;
#X connect 10 0 8 0;
#X coords 0 0 1 1 37 64 2 409 251;
#X restore 524 404 pd stepStrob;
#N canvas 0 22 450 300 stepStrob 0;
#X obj 312 171 bng 226 250 50 0 empty empty empty 17 7 0 10 #ffffff #c2f4bf #373737;
#X obj 409 252 tgl 18 0 empty empty empty 17 7 0 10 #e4e4e4 #4d4d4d #373737 0 1;
#X floatatom 409 274 5 0 0 0 - - - 12;
#X obj 370 510 spigot;
#X obj 271 172 inlet;
#X obj 285 439 float;
#X obj 370 573 s tstrob;
#X obj 568 567 s pwmstrob;
#X obj 568 522 spigot;
#X floatatom 409 297 5 0 0 0 - - - 12;
#X obj 486 480 float;
#X connect 1 0 3 1;
#X connect 1 0 8 1;
#X connect 2 0 5 1;
#X connect 3 0 0 0;
#X connect 3 0 6 0;
#X connect 4 0 5 0;
#X connect 4 0 10 0;
#X connect 5 0 3 0;
#X connect 8 0 7 0;
#X connect 9 0 10 1;
#X connect 10 0 8 0;
#X coords 0 0 1 1 37 64 2 409 251;
#X restore 565 404 pd stepStrob;
#N canvas 0 22 450 300 stepStrob 0;
#X obj 312 171 bng 226 250 50 0 empty empty empty 17 7 0 10 #ffffff #c2f4bf #373737;
#X obj 409 252 tgl 18 0 empty empty empty 17 7 0 10 #e4e4e4 #4d4d4d #373737 0 1;
#X floatatom 409 274 5 0 0 0 - - - 12;
#X obj 370 510 spigot;
#X obj 271 172 inlet;
#X obj 285 439 float;
#X obj 370 573 s tstrob;
#X obj 568 567 s pwmstrob;
#X obj 568 522 spigot;
#X floatatom 409 297 5 0 0 0 - - - 12;
#X obj 486 480 float;
#X connect 1 0 3 1;
#X connect 1 0 8 1;
#X connect 2 0 5 1;
#X connect 3 0 0 0;
#X connect 3 0 6 0;
#X connect 4 0 5 0;
#X connect 4 0 10 0;
#X connect 5 0 3 0;
#X connect 8 0 7 0;
#X connect 9 0 10 1;
#X connect 10 0 8 0;
#X coords 0 0 1 1 37 64 2 409 251;
#X restore 606 404 pd stepStrob;
#N canvas 0 22 450 300 stepStrob 0;
#X obj 312 171 bng 226 250 50 0 empty empty empty 17 7 0 10 #ffffff #c2f4bf #373737;
#X obj 409 252 tgl 18 0 empty empty empty 17 7 0 10 #e4e4e4 #4d4d4d #373737 0 1;
#X floatatom 409 274 5 0 0 0 - - - 12;
#X obj 370 510 spigot;
#X obj 271 172 inlet;
#X obj 285 439 float;
#X obj 370 573 s tstrob;
#X obj 568 567 s pwmstrob;
#X obj 568 522 spigot;
#X floatatom 409 297 5 0 0 0 - - - 12;
#X obj 486 480 float;
#X connect 1 0 3 1;
#X connect 1 0 8 1;
#X connect 2 0 5 1;
#X connect 3 0 0 0;
#X connect 3 0 6 0;
#X connect 4 0 5 0;
#X connect 4 0 10 0;
#X connect 5 0 3 0;
#X connect 8 0 7 0;
#X connect 9 0 10 1;
#X connect 10 0 8 0;
#X coords 0 0 1 1 37 64 2 409 251;
#X restore 647 404 pd stepStrob;
#N canvas 0 22 450 300 stepStrob 0;
#X obj 312 171 bng 226 250 50 0 empty empty empty 17 7 0 10 #ffffff #c2f4bf #373737;
#X obj 409 252 tgl 18 0 empty empty empty 17 7 0 10 #e4e4e4 #4d4d4d #373737 0 1;
#X floatatom 409 274 5 0 0 0 - - - 12;
#X obj 370 510 spigot;
#X obj 271 172 inlet;
#X obj 285 439 float;
#X obj 370 573 s tstrob;
#X obj 568 567 s pwmstrob;
#X obj 568 522 spigot;
#X floatatom 409 297 5 0 0 0 - - - 12;
#X obj 486 480 float;
#X connect 1 0 3 1;
#X connect 1 0 8 1;
#X connect 2 0 5 1;
#X connect 3 0 0 0;
#X connect 3 0 6 0;
#X connect 4 0 5 0;
#X connect 4 0 10 0;
#X connect 5 0 3 0;
#X connect 8 0 7 0;
#X connect 9 0 10 1;
#X connect 10 0 8 0;
#X coords 0 0 1 1 37 64 2 409 251;
#X restore 687 404 pd stepStrob;
#N canvas 0 22 450 300 stepStrob 0;
#X obj 312 171 bng 226 250 50 0 empty empty empty 17 7 0 10 #ffffff #c2f4bf #373737;
#X obj 409 252 tgl 18 0 empty empty empty 17 7 0 10 #e4e4e4 #4d4d4d #373737 0 1;
#X floatatom 409 274 5 0 0 0 - - - 12;
#X obj 370 510 spigot;
#X obj 271 172 inlet;
#X obj 285 439 float;
#X obj 370 573 s tstrob;
#X obj 568 567 s pwmstrob;
#X obj 568 522 spigot;
#X floatatom 409 297 5 0 0 0 - - - 12;
#X obj 486 480 float;
#X connect 1 0 3 1;
#X connect 1 0 8 1;
#X connect 2 0 5 1;
#X connect 3 0 0 0;
#X connect 3 0 6 0;
#X connect 4 0 5 0;
#X connect 4 0 10 0;
#X connect 5 0 3 0;
#X connect 8 0 7 0;
#X connect 9 0 10 1;
#X connect 10 0 8 0;
#X coords 0 0 1 1 37 64 2 409 251;
#X restore 728 404 pd stepStrob;
#N canvas 0 22 450 300 stepStrob 0;
#X obj 312 171 bng 226 250 50 0 empty empty empty 17 7 0 10 #ffffff #c2f4bf #373737;
#X obj 409 252 tgl 18 0 empty empty empty 17 7 0 10 #e4e4e4 #4d4d4d #373737 0 1;
#X floatatom 409 274 5 0 0 0 - - - 12;
#X obj 370 510 spigot;
#X obj 271 172 inlet;
#X obj 285 439 float;
#X obj 370 573 s tstrob;
#X obj 568 567 s pwmstrob;
#X obj 568 522 spigot;
#X floatatom 409 297 5 0 0 0 - - - 12;
#X obj 486 480 float;
#X connect 1 0 3 1;
#X connect 1 0 8 1;
#X connect 2 0 5 1;
#X connect 3 0 0 0;
#X connect 3 0 6 0;
#X connect 4 0 5 0;
#X connect 4 0 10 0;
#X connect 5 0 3 0;
#X connect 8 0 7 0;
#X connect 9 0 10 1;
#X connect 10 0 8 0;
#X coords 0 0 1 1 37 64 2 409 251;
#X restore 769 404 pd stepStrob;
#N canvas 0 22 450 300 stepStrob 0;
#X obj 312 171 bng 226 250 50 0 empty empty empty 17 7 0 10 #ffffff #c2f4bf #373737;
#X obj 409 252 tgl 18 0 empty empty empty 17 7 0 10 #e4e4e4 #4d4d4d #373737 0 1;
#X floatatom 409 274 5 0 0 0 - - - 12;
#X obj 370 510 spigot;
#X obj 271 172 inlet;
#X obj 285 439 float;
#X obj 370 573 s tstrob;
#X obj 568 567 s pwmstrob;
#X obj 568 522 spigot;
#X floatatom 409 297 5 0 0 0 - - - 12;
#X obj 486 480 float;
#X connect 1 0 3 1;
#X connect 1 0 8 1;
#X connect 2 0 5 1;
#X connect 3 0 0 0;
#X connect 3 0 6 0;
#X connect 4 0 5 0;
#X connect 4 0 10 0;
#X connect 5 0 3 0;
#X connect 8 0 7 0;
#X connect 9 0 10 1;
#X connect 10 0 8 0;
#X coords 0 0 1 1 37 64 2 409 251;
#X restore 810 404 pd stepStrob;
#X text 158 424 time;
#X text 155 445 pwm;
#X text 160 283 freq;
#X text 160 352 freq;
#X text 161 531 led1;
#N canvas 92 130 450 300 stepLED 0;
#X obj 31 -14 bng 131 250 50 0 empty empty empty 17 7 0 10 #ffffff #c2f4bf #373737;
#X obj 79 32 tgl 18 0 empty empty empty 17 7 0 10 #e4e4e4 #4d4d4d #373737 0 1;
#X floatatom 78 54 5 0 0 0 - - - 12;
#X obj 63 212 spigot;
#X obj 11 5 inlet;
#X obj 11 170 float;
#X obj 63 297 s led1;
#X connect 1 0 3 1;
#X connect 2 0 5 1;
#X connect 3 0 0 0;
#X connect 3 0 6 0;
#X connect 4 0 5 0;
#X connect 5 0 3 0;
#X coords 0 0 1 1 37 41 2 78 31;
#X restore 199 511 pd stepLED;
#N canvas 92 130 450 300 stepLED 0;
#X obj 33 -13 bng 131 250 50 0 empty empty empty 17 7 0 10 #ffffff #c2f4bf #373737;
#X obj 79 32 tgl 18 0 empty empty empty 17 7 0 10 #e4e4e4 #4d4d4d #373737 0 1;
#X floatatom 78 54 5 0 0 0 - - - 12;
#X obj 63 212 spigot;
#X obj 11 5 inlet;
#X obj 11 170 float;
#X obj 63 297 s led2;
#X connect 1 0 3 1;
#X connect 2 0 5 1;
#X connect 3 0 0 0;
#X connect 3 0 6 0;
#X connect 4 0 5 0;
#X connect 5 0 3 0;
#X coords 0 0 1 1 37 41 2 78 31;
#X restore 199 561 pd stepLED;
#X text 158 580 led2;
#N canvas 92 130 450 300 stepLED 0;
#X obj 36 -8 bng 131 250 50 0 empty empty empty 17 7 0 10 #ffffff #c2f4bf #373737;
#X obj 79 32 tgl 18 0 empty empty empty 17 7 0 10 #e4e4e4 #4d4d4d #373737 0 1;
#X floatatom 78 54 5 0 0 0 - - - 12;
#X obj 63 212 spigot;
#X obj 11 5 inlet;
#X obj 11 170 float;
#X obj 63 297 s led3;
#X connect 1 0 3 1;
#X connect 2 0 5 1;
#X connect 3 0 0 0;
#X connect 3 0 6 0;
#X connect 4 0 5 0;
#X connect 5 0 3 0;
#X coords 0 0 1 1 36 40 2 78 31;
#X restore 199 610 pd stepLED;
#X text 158 629 led3;
#N canvas 92 130 450 300 stepLED 0;
#X obj 36 -8 bng 131 250 50 0 empty empty empty 17 7 0 10 #ffffff #c2f4bf #373737;
#X obj 79 32 tgl 18 0 empty empty empty 17 7 0 10 #e4e4e4 #4d4d4d #373737 0 1;
#X floatatom 78 54 5 0 0 0 - - - 12;
#X obj 63 212 spigot;
#X obj 11 5 inlet;
#X obj 11 170 float;
#X obj 63 297 s led4;
#X connect 1 0 3 1;
#X connect 2 0 5 1;
#X connect 3 0 0 0;
#X connect 3 0 6 0;
#X connect 4 0 5 0;
#X connect 5 0 3 0;
#X coords 0 0 1 1 36 40 2 78 31;
#X restore 199 661 pd stepLED;
#X text 158 680 led4;
#N canvas 92 130 450 300 stepLED 0;
#X obj 31 -14 bng 131 250 50 0 empty empty empty 17 7 0 10 #ffffff #c2f4bf #373737;
#X obj 79 32 tgl 18 0 empty empty empty 17 7 0 10 #e4e4e4 #4d4d4d #373737 0 1;
#X floatatom 78 54 5 0 0 0 - - - 12;
#X obj 63 212 spigot;
#X obj 11 5 inlet;
#X obj 11 170 float;
#X obj 63 297 s led1;
#X connect 1 0 3 1;
#X connect 2 0 5 1;
#X connect 3 0 0 0;
#X connect 3 0 6 0;
#X connect 4 0 5 0;
#X connect 5 0 3 0;
#X coords 0 0 1 1 37 41 2 78 31;
#X restore 239 511 pd stepLED;
#N canvas 92 130 450 300 stepLED 0;
#X obj 33 -13 bng 131 250 50 0 empty empty empty 17 7 0 10 #ffffff #c2f4bf #373737;
#X obj 79 32 tgl 18 0 empty empty empty 17 7 0 10 #e4e4e4 #4d4d4d #373737 0 1;
#X floatatom 78 54 5 0 0 0 - - - 12;
#X obj 63 212 spigot;
#X obj 11 5 inlet;
#X obj 11 170 float;
#X obj 63 297 s led2;
#X connect 1 0 3 1;
#X connect 2 0 5 1;
#X connect 3 0 0 0;
#X connect 3 0 6 0;
#X connect 4 0 5 0;
#X connect 5 0 3 0;
#X coords 0 0 1 1 37 41 2 78 31;
#X restore 239 561 pd stepLED;
#N canvas 92 130 450 300 stepLED 0;
#X obj 36 -8 bng 131 250 50 0 empty empty empty 17 7 0 10 #ffffff #c2f4bf #373737;
#X obj 79 32 tgl 18 0 empty empty empty 17 7 0 10 #e4e4e4 #4d4d4d #373737 0 1;
#X floatatom 78 54 5 0 0 0 - - - 12;
#X obj 63 212 spigot;
#X obj 11 5 inlet;
#X obj 11 170 float;
#X obj 63 297 s led3;
#X connect 1 0 3 1;
#X connect 2 0 5 1;
#X connect 3 0 0 0;
#X connect 3 0 6 0;
#X connect 4 0 5 0;
#X connect 5 0 3 0;
#X coords 0 0 1 1 37 41 2 78 31;
#X restore 238 609 pd stepLED;
#N canvas 92 130 450 300 stepLED 0;
#X obj 36 -8 bng 131 250 50 0 empty empty empty 17 7 0 10 #ffffff #c2f4bf #373737;
#X obj 79 32 tgl 18 0 empty empty empty 17 7 0 10 #e4e4e4 #4d4d4d #373737 0 1;
#X floatatom 78 54 5 0 0 0 - - - 12;
#X obj 63 212 spigot;
#X obj 11 5 inlet;
#X obj 11 170 float;
#X obj 63 297 s led4;
#X connect 1 0 3 1;
#X connect 2 0 5 1;
#X connect 3 0 0 0;
#X connect 3 0 6 0;
#X connect 4 0 5 0;
#X connect 5 0 3 0;
#X coords 0 0 1 1 37 41 2 78 31;
#X restore 238 660 pd stepLED;
#N canvas 92 130 450 300 stepLED 0;
#X obj 31 -14 bng 131 250 50 0 empty empty empty 17 7 0 10 #ffffff #c2f4bf #373737;
#X obj 79 32 tgl 18 0 empty empty empty 17 7 0 10 #e4e4e4 #4d4d4d #373737 0 1;
#X floatatom 78 54 5 0 0 0 - - - 12;
#X obj 63 212 spigot;
#X obj 11 5 inlet;
#X obj 11 170 float;
#X obj 63 297 s led1;
#X connect 1 0 3 1;
#X connect 2 0 5 1;
#X connect 3 0 0 0;
#X connect 3 0 6 0;
#X connect 4 0 5 0;
#X connect 5 0 3 0;
#X coords 0 0 1 1 37 41 2 78 31;
#X restore 280 511 pd stepLED;
#N canvas 92 130 450 300 stepLED 0;
#X obj 33 -13 bng 131 250 50 0 empty empty empty 17 7 0 10 #ffffff #c2f4bf #373737;
#X obj 79 32 tgl 18 0 empty empty empty 17 7 0 10 #e4e4e4 #4d4d4d #373737 0 1;
#X floatatom 78 54 5 0 0 0 - - - 12;
#X obj 63 212 spigot;
#X obj 11 5 inlet;
#X obj 11 170 float;
#X obj 63 297 s led2;
#X connect 1 0 3 1;
#X connect 2 0 5 1;
#X connect 3 0 0 0;
#X connect 3 0 6 0;
#X connect 4 0 5 0;
#X connect 5 0 3 0;
#X coords 0 0 1 1 37 41 2 78 31;
#X restore 280 561 pd stepLED;
#N canvas 92 130 450 300 stepLED 0;
#X obj 36 -8 bng 131 250 50 0 empty empty empty 17 7 0 10 #ffffff #c2f4bf #373737;
#X obj 79 32 tgl 18 0 empty empty empty 17 7 0 10 #e4e4e4 #4d4d4d #373737 0 1;
#X floatatom 78 54 5 0 0 0 - - - 12;
#X obj 63 212 spigot;
#X obj 11 5 inlet;
#X obj 11 170 float;
#X obj 63 297 s led3;
#X connect 1 0 3 1;
#X connect 2 0 5 1;
#X connect 3 0 0 0;
#X connect 3 0 6 0;
#X connect 4 0 5 0;
#X connect 5 0 3 0;
#X coords 0 0 1 1 37 41 2 78 31;
#X restore 279 609 pd stepLED;
#N canvas 92 130 450 300 stepLED 0;
#X obj 36 -8 bng 131 250 50 0 empty empty empty 17 7 0 10 #ffffff #c2f4bf #373737;
#X obj 79 32 tgl 18 0 empty empty empty 17 7 0 10 #e4e4e4 #4d4d4d #373737 0 1;
#X floatatom 78 54 5 0 0 0 - - - 12;
#X obj 63 212 spigot;
#X obj 11 5 inlet;
#X obj 11 170 float;
#X obj 63 297 s led4;
#X connect 1 0 3 1;
#X connect 2 0 5 1;
#X connect 3 0 0 0;
#X connect 3 0 6 0;
#X connect 4 0 5 0;
#X connect 5 0 3 0;
#X coords 0 0 1 1 37 41 2 78 31;
#X restore 279 660 pd stepLED;
#N canvas 92 130 450 300 stepLED 0;
#X obj 31 -14 bng 131 250 50 0 empty empty empty 17 7 0 10 #ffffff #c2f4bf #373737;
#X obj 79 32 tgl 18 0 empty empty empty 17 7 0 10 #e4e4e4 #4d4d4d #373737 0 1;
#X floatatom 78 54 5 0 0 0 - - - 12;
#X obj 63 212 spigot;
#X obj 11 5 inlet;
#X obj 11 170 float;
#X obj 63 297 s led1;
#X connect 1 0 3 1;
#X connect 2 0 5 1;
#X connect 3 0 0 0;
#X connect 3 0 6 0;
#X connect 4 0 5 0;
#X connect 5 0 3 0;
#X coords 0 0 1 1 37 41 2 78 31;
#X restore 321 511 pd stepLED;
#N canvas 92 130 450 300 stepLED 0;
#X obj 33 -13 bng 131 250 50 0 empty empty empty 17 7 0 10 #ffffff #c2f4bf #373737;
#X obj 79 32 tgl 18 0 empty empty empty 17 7 0 10 #e4e4e4 #4d4d4d #373737 0 1;
#X floatatom 78 54 5 0 0 0 - - - 12;
#X obj 63 212 spigot;
#X obj 11 5 inlet;
#X obj 11 170 float;
#X obj 63 297 s led2;
#X connect 1 0 3 1;
#X connect 2 0 5 1;
#X connect 3 0 0 0;
#X connect 3 0 6 0;
#X connect 4 0 5 0;
#X connect 5 0 3 0;
#X coords 0 0 1 1 37 41 2 78 31;
#X restore 321 561 pd stepLED;
#N canvas 92 130 450 300 stepLED 0;
#X obj 36 -8 bng 131 250 50 0 empty empty empty 17 7 0 10 #ffffff #c2f4bf #373737;
#X obj 79 32 tgl 18 0 empty empty empty 17 7 0 10 #e4e4e4 #4d4d4d #373737 0 1;
#X floatatom 78 54 5 0 0 0 - - - 12;
#X obj 63 212 spigot;
#X obj 11 5 inlet;
#X obj 11 170 float;
#X obj 63 297 s led3;
#X connect 1 0 3 1;
#X connect 2 0 5 1;
#X connect 3 0 0 0;
#X connect 3 0 6 0;
#X connect 4 0 5 0;
#X connect 5 0 3 0;
#X coords 0 0 1 1 37 41 2 78 31;
#X restore 320 609 pd stepLED;
#N canvas 92 130 450 300 stepLED 0;
#X obj 36 -8 bng 131 250 50 0 empty empty empty 17 7 0 10 #ffffff #c2f4bf #373737;
#X obj 79 32 tgl 18 0 empty empty empty 17 7 0 10 #e4e4e4 #4d4d4d #373737 0 1;
#X floatatom 78 54 5 0 0 0 - - - 12;
#X obj 63 212 spigot;
#X obj 11 5 inlet;
#X obj 11 170 float;
#X obj 63 297 s led4;
#X connect 1 0 3 1;
#X connect 2 0 5 1;
#X connect 3 0 0 0;
#X connect 3 0 6 0;
#X connect 4 0 5 0;
#X connect 5 0 3 0;
#X coords 0 0 1 1 37 41 2 78 31;
#X restore 320 660 pd stepLED;
#N canvas 92 130 450 300 stepLED 0;
#X obj 31 -14 bng 131 250 50 0 empty empty empty 17 7 0 10 #ffffff #c2f4bf #373737;
#X obj 79 32 tgl 18 0 empty empty empty 17 7 0 10 #e4e4e4 #4d4d4d #373737 0 1;
#X floatatom 78 54 5 0 0 0 - - - 12;
#X obj 63 212 spigot;
#X obj 11 5 inlet;
#X obj 11 170 float;
#X obj 63 297 s led1;
#X connect 1 0 3 1;
#X connect 2 0 5 1;
#X connect 3 0 0 0;
#X connect 3 0 6 0;
#X connect 4 0 5 0;
#X connect 5 0 3 0;
#X coords 0 0 1 1 37 41 2 78 31;
#X restore 361 511 pd stepLED;
#N canvas 92 130 450 300 stepLED 0;
#X obj 33 -13 bng 131 250 50 0 empty empty empty 17 7 0 10 #ffffff #c2f4bf #373737;
#X obj 79 32 tgl 18 0 empty empty empty 17 7 0 10 #e4e4e4 #4d4d4d #373737 0 1;
#X floatatom 78 54 5 0 0 0 - - - 12;
#X obj 63 212 spigot;
#X obj 11 5 inlet;
#X obj 11 170 float;
#X obj 63 297 s led2;
#X connect 1 0 3 1;
#X connect 2 0 5 1;
#X connect 3 0 0 0;
#X connect 3 0 6 0;
#X connect 4 0 5 0;
#X connect 5 0 3 0;
#X coords 0 0 1 1 37 41 2 78 31;
#X restore 361 561 pd stepLED;
#N canvas 92 130 450 300 stepLED 0;
#X obj 36 -8 bng 131 250 50 0 empty empty empty 17 7 0 10 #ffffff #c2f4bf #373737;
#X obj 79 32 tgl 18 0 empty empty empty 17 7 0 10 #e4e4e4 #4d4d4d #373737 0 1;
#X floatatom 78 54 5 0 0 0 - - - 12;
#X obj 63 212 spigot;
#X obj 11 5 inlet;
#X obj 11 170 float;
#X obj 63 297 s led3;
#X connect 1 0 3 1;
#X connect 2 0 5 1;
#X connect 3 0 0 0;
#X connect 3 0 6 0;
#X connect 4 0 5 0;
#X connect 5 0 3 0;
#X coords 0 0 1 1 37 41 2 78 31;
#X restore 361 609 pd stepLED;
#N canvas 92 130 450 300 stepLED 0;
#X obj 36 -8 bng 131 250 50 0 empty empty empty 17 7 0 10 #ffffff #c2f4bf #373737;
#X obj 79 32 tgl 18 0 empty empty empty 17 7 0 10 #e4e4e4 #4d4d4d #373737 0 1;
#X floatatom 78 54 5 0 0 0 - - - 12;
#X obj 63 212 spigot;
#X obj 11 5 inlet;
#X obj 11 170 float;
#X obj 63 297 s led4;
#X connect 1 0 3 1;
#X connect 2 0 5 1;
#X connect 3 0 0 0;
#X connect 3 0 6 0;
#X connect 4 0 5 0;
#X connect 5 0 3 0;
#X coords 0 0 1 1 37 41 2 78 31;
#X restore 361 660 pd stepLED;
#N canvas 92 130 450 300 stepLED 0;
#X obj 31 -14 bng 131 250 50 0 empty empty empty 17 7 0 10 #ffffff #c2f4bf #373737;
#X obj 79 32 tgl 18 0 empty empty empty 17 7 0 10 #e4e4e4 #4d4d4d #373737 0 1;
#X floatatom 78 54 5 0 0 0 - - - 12;
#X obj 63 212 spigot;
#X obj 11 5 inlet;
#X obj 11 170 float;
#X obj 63 297 s led1;
#X connect 1 0 3 1;
#X connect 2 0 5 1;
#X connect 3 0 0 0;
#X connect 3 0 6 0;
#X connect 4 0 5 0;
#X connect 5 0 3 0;
#X coords 0 0 1 1 37 41 2 78 31;
#X restore 402 511 pd stepLED;
#N canvas 92 130 450 300 stepLED 0;
#X obj 33 -13 bng 131 250 50 0 empty empty empty 17 7 0 10 #ffffff #c2f4bf #373737;
#X obj 79 32 tgl 18 0 empty empty empty 17 7 0 10 #e4e4e4 #4d4d4d #373737 0 1;
#X floatatom 78 54 5 0 0 0 - - - 12;
#X obj 63 212 spigot;
#X obj 11 5 inlet;
#X obj 11 170 float;
#X obj 63 297 s led2;
#X connect 1 0 3 1;
#X connect 2 0 5 1;
#X connect 3 0 0 0;
#X connect 3 0 6 0;
#X connect 4 0 5 0;
#X connect 5 0 3 0;
#X coords 0 0 1 1 37 41 2 78 31;
#X restore 402 561 pd stepLED;
#N canvas 92 130 450 300 stepLED 0;
#X obj 36 -8 bng 131 250 50 0 empty empty empty 17 7 0 10 #ffffff #c2f4bf #373737;
#X obj 79 32 tgl 18 0 empty empty empty 17 7 0 10 #e4e4e4 #4d4d4d #373737 0 1;
#X floatatom 78 54 5 0 0 0 - - - 12;
#X obj 63 212 spigot;
#X obj 11 5 inlet;
#X obj 11 170 float;
#X obj 63 297 s led3;
#X connect 1 0 3 1;
#X connect 2 0 5 1;
#X connect 3 0 0 0;
#X connect 3 0 6 0;
#X connect 4 0 5 0;
#X connect 5 0 3 0;
#X coords 0 0 1 1 37 41 2 78 31;
#X restore 402 609 pd stepLED;
#N canvas 92 130 450 300 stepLED 0;
#X obj 36 -8 bng 131 250 50 0 empty empty empty 17 7 0 10 #ffffff #c2f4bf #373737;
#X obj 79 32 tgl 18 0 empty empty empty 17 7 0 10 #e4e4e4 #4d4d4d #373737 0 1;
#X floatatom 78 54 5 0 0 0 - - - 12;
#X obj 63 212 spigot;
#X obj 11 5 inlet;
#X obj 11 170 float;
#X obj 63 297 s led4;
#X connect 1 0 3 1;
#X connect 2 0 5 1;
#X connect 3 0 0 0;
#X connect 3 0 6 0;
#X connect 4 0 5 0;
#X connect 5 0 3 0;
#X coords 0 0 1 1 37 41 2 78 31;
#X restore 402 660 pd stepLED;
#N canvas 92 130 450 300 stepLED 0;
#X obj 31 -14 bng 131 250 50 0 empty empty empty 17 7 0 10 #ffffff #c2f4bf #373737;
#X obj 79 32 tgl 18 0 empty empty empty 17 7 0 10 #e4e4e4 #4d4d4d #373737 0 1;
#X floatatom 78 54 5 0 0 0 - - - 12;
#X obj 63 212 spigot;
#X obj 11 5 inlet;
#X obj 11 170 float;
#X obj 63 297 s led1;
#X connect 1 0 3 1;
#X connect 2 0 5 1;
#X connect 3 0 0 0;
#X connect 3 0 6 0;
#X connect 4 0 5 0;
#X connect 5 0 3 0;
#X coords 0 0 1 1 37 41 2 78 31;
#X restore 443 511 pd stepLED;
#N canvas 92 130 450 300 stepLED 0;
#X obj 33 -13 bng 131 250 50 0 empty empty empty 17 7 0 10 #ffffff #c2f4bf #373737;
#X obj 79 32 tgl 18 0 empty empty empty 17 7 0 10 #e4e4e4 #4d4d4d #373737 0 1;
#X floatatom 78 54 5 0 0 0 - - - 12;
#X obj 63 212 spigot;
#X obj 11 5 inlet;
#X obj 11 170 float;
#X obj 63 297 s led2;
#X connect 1 0 3 1;
#X connect 2 0 5 1;
#X connect 3 0 0 0;
#X connect 3 0 6 0;
#X connect 4 0 5 0;
#X connect 5 0 3 0;
#X coords 0 0 1 1 37 41 2 78 31;
#X restore 443 561 pd stepLED;
#N canvas 92 130 450 300 stepLED 0;
#X obj 36 -8 bng 131 250 50 0 empty empty empty 17 7 0 10 #ffffff #c2f4bf #373737;
#X obj 79 32 tgl 18 0 empty empty empty 17 7 0 10 #e4e4e4 #4d4d4d #373737 0 1;
#X floatatom 78 54 5 0 0 0 - - - 12;
#X obj 63 212 spigot;
#X obj 11 5 inlet;
#X obj 11 170 float;
#X obj 63 297 s led3;
#X connect 1 0 3 1;
#X connect 2 0 5 1;
#X connect 3 0 0 0;
#X connect 3 0 6 0;
#X connect 4 0 5 0;
#X connect 5 0 3 0;
#X coords 0 0 1 1 37 41 2 78 31;
#X restore 442 609 pd stepLED;
#N canvas 92 130 450 300 stepLED 0;
#X obj 36 -8 bng 131 250 50 0 empty empty empty 17 7 0 10 #ffffff #c2f4bf #373737;
#X obj 79 32 tgl 18 0 empty empty empty 17 7 0 10 #e4e4e4 #4d4d4d #373737 0 1;
#X floatatom 78 54 5 0 0 0 - - - 12;
#X obj 63 212 spigot;
#X obj 11 5 inlet;
#X obj 11 170 float;
#X obj 63 297 s led4;
#X connect 1 0 3 1;
#X connect 2 0 5 1;
#X connect 3 0 0 0;
#X connect 3 0 6 0;
#X connect 4 0 5 0;
#X connect 5 0 3 0;
#X coords 0 0 1 1 37 41 2 78 31;
#X restore 442 660 pd stepLED;
#N canvas 92 130 450 300 stepLED 0;
#X obj 31 -14 bng 131 250 50 0 empty empty empty 17 7 0 10 #ffffff #c2f4bf #373737;
#X obj 79 32 tgl 18 0 empty empty empty 17 7 0 10 #e4e4e4 #4d4d4d #373737 0 1;
#X floatatom 78 54 5 0 0 0 - - - 12;
#X obj 63 212 spigot;
#X obj 11 5 inlet;
#X obj 11 170 float;
#X obj 63 297 s led1;
#X connect 1 0 3 1;
#X connect 2 0 5 1;
#X connect 3 0 0 0;
#X connect 3 0 6 0;
#X connect 4 0 5 0;
#X connect 5 0 3 0;
#X coords 0 0 1 1 37 41 2 78 31;
#X restore 484 511 pd stepLED;
#N canvas 92 130 450 300 stepLED 0;
#X obj 33 -13 bng 131 250 50 0 empty empty empty 17 7 0 10 #ffffff #c2f4bf #373737;
#X obj 79 32 tgl 18 0 empty empty empty 17 7 0 10 #e4e4e4 #4d4d4d #373737 0 1;
#X floatatom 78 54 5 0 0 0 - - - 12;
#X obj 63 212 spigot;
#X obj 11 5 inlet;
#X obj 11 170 float;
#X obj 63 297 s led2;
#X connect 1 0 3 1;
#X connect 2 0 5 1;
#X connect 3 0 0 0;
#X connect 3 0 6 0;
#X connect 4 0 5 0;
#X connect 5 0 3 0;
#X coords 0 0 1 1 37 41 2 78 31;
#X restore 484 561 pd stepLED;
#N canvas 92 130 450 300 stepLED 0;
#X obj 36 -8 bng 131 250 50 0 empty empty empty 17 7 0 10 #ffffff #c2f4bf #373737;
#X obj 79 32 tgl 18 0 empty empty empty 17 7 0 10 #e4e4e4 #4d4d4d #373737 0 1;
#X floatatom 78 54 5 0 0 0 - - - 12;
#X obj 63 212 spigot;
#X obj 11 5 inlet;
#X obj 11 170 float;
#X obj 63 297 s led3;
#X connect 1 0 3 1;
#X connect 2 0 5 1;
#X connect 3 0 0 0;
#X connect 3 0 6 0;
#X connect 4 0 5 0;
#X connect 5 0 3 0;
#X coords 0 0 1 1 37 41 2 78 31;
#X restore 483 609 pd stepLED;
#N canvas 92 130 450 300 stepLED 0;
#X obj 36 -8 bng 131 250 50 0 empty empty empty 17 7 0 10 #ffffff #c2f4bf #373737;
#X obj 79 32 tgl 18 0 empty empty empty 17 7 0 10 #e4e4e4 #4d4d4d #373737 0 1;
#X floatatom 78 54 5 0 0 0 - - - 12;
#X obj 63 212 spigot;
#X obj 11 5 inlet;
#X obj 11 170 float;
#X obj 63 297 s led4;
#X connect 1 0 3 1;
#X connect 2 0 5 1;
#X connect 3 0 0 0;
#X connect 3 0 6 0;
#X connect 4 0 5 0;
#X connect 5 0 3 0;
#X coords 0 0 1 1 37 41 2 78 31;
#X restore 483 660 pd stepLED;
#N canvas 92 130 450 300 stepLED 0;
#X obj 31 -14 bng 131 250 50 0 empty empty empty 17 7 0 10 #ffffff #c2f4bf #373737;
#X obj 79 32 tgl 18 0 empty empty empty 17 7 0 10 #e4e4e4 #4d4d4d #373737 0 1;
#X floatatom 78 54 5 0 0 0 - - - 12;
#X obj 63 212 spigot;
#X obj 11 5 inlet;
#X obj 11 170 float;
#X obj 63 297 s led1;
#X connect 1 0 3 1;
#X connect 2 0 5 1;
#X connect 3 0 0 0;
#X connect 3 0 6 0;
#X connect 4 0 5 0;
#X connect 5 0 3 0;
#X coords 0 0 1 1 37 41 2 78 31;
#X restore 524 511 pd stepLED;
#N canvas 92 130 450 300 stepLED 0;
#X obj 33 -13 bng 131 250 50 0 empty empty empty 17 7 0 10 #ffffff #c2f4bf #373737;
#X obj 79 32 tgl 18 0 empty empty empty 17 7 0 10 #e4e4e4 #4d4d4d #373737 0 1;
#X floatatom 78 54 5 0 0 0 - - - 12;
#X obj 63 212 spigot;
#X obj 11 5 inlet;
#X obj 11 170 float;
#X obj 63 297 s led2;
#X connect 1 0 3 1;
#X connect 2 0 5 1;
#X connect 3 0 0 0;
#X connect 3 0 6 0;
#X connect 4 0 5 0;
#X connect 5 0 3 0;
#X coords 0 0 1 1 37 41 2 78 31;
#X restore 524 561 pd stepLED;
#N canvas 92 130 450 300 stepLED 0;
#X obj 36 -8 bng 131 250 50 0 empty empty empty 17 7 0 10 #ffffff #c2f4bf #373737;
#X obj 79 32 tgl 18 0 empty empty empty 17 7 0 10 #e4e4e4 #4d4d4d #373737 0 1;
#X floatatom 78 54 5 0 0 0 - - - 12;
#X obj 63 212 spigot;
#X obj 11 5 inlet;
#X obj 11 170 float;
#X obj 63 297 s led3;
#X connect 1 0 3 1;
#X connect 2 0 5 1;
#X connect 3 0 0 0;
#X connect 3 0 6 0;
#X connect 4 0 5 0;
#X connect 5 0 3 0;
#X coords 0 0 1 1 37 41 2 78 31;
#X restore 524 609 pd stepLED;
#N canvas 92 130 450 300 stepLED 0;
#X obj 36 -8 bng 131 250 50 0 empty empty empty 17 7 0 10 #ffffff #c2f4bf #373737;
#X obj 79 32 tgl 18 0 empty empty empty 17 7 0 10 #e4e4e4 #4d4d4d #373737 0 1;
#X floatatom 78 54 5 0 0 0 - - - 12;
#X obj 63 212 spigot;
#X obj 11 5 inlet;
#X obj 11 170 float;
#X obj 63 297 s led4;
#X connect 1 0 3 1;
#X connect 2 0 5 1;
#X connect 3 0 0 0;
#X connect 3 0 6 0;
#X connect 4 0 5 0;
#X connect 5 0 3 0;
#X coords 0 0 1 1 37 41 2 78 31;
#X restore 524 660 pd stepLED;
#N canvas 92 130 450 300 stepLED 0;
#X obj 31 -14 bng 131 250 50 0 empty empty empty 17 7 0 10 #ffffff #c2f4bf #373737;
#X obj 79 32 tgl 18 0 empty empty empty 17 7 0 10 #e4e4e4 #4d4d4d #373737 0 1;
#X floatatom 78 54 5 0 0 0 - - - 12;
#X obj 63 212 spigot;
#X obj 11 5 inlet;
#X obj 11 170 float;
#X obj 63 297 s led1;
#X connect 1 0 3 1;
#X connect 2 0 5 1;
#X connect 3 0 0 0;
#X connect 3 0 6 0;
#X connect 4 0 5 0;
#X connect 5 0 3 0;
#X coords 0 0 1 1 37 41 2 78 31;
#X restore 565 511 pd stepLED;
#N canvas 92 130 450 300 stepLED 0;
#X obj 33 -13 bng 131 250 50 0 empty empty empty 17 7 0 10 #ffffff #c2f4bf #373737;
#X obj 79 32 tgl 18 0 empty empty empty 17 7 0 10 #e4e4e4 #4d4d4d #373737 0 1;
#X floatatom 78 54 5 0 0 0 - - - 12;
#X obj 63 212 spigot;
#X obj 11 5 inlet;
#X obj 11 170 float;
#X obj 63 297 s led2;
#X connect 1 0 3 1;
#X connect 2 0 5 1;
#X connect 3 0 0 0;
#X connect 3 0 6 0;
#X connect 4 0 5 0;
#X connect 5 0 3 0;
#X coords 0 0 1 1 37 41 2 78 31;
#X restore 565 561 pd stepLED;
#N canvas 92 130 450 300 stepLED 0;
#X obj 36 -8 bng 131 250 50 0 empty empty empty 17 7 0 10 #ffffff #c2f4bf #373737;
#X obj 79 32 tgl 18 0 empty empty empty 17 7 0 10 #e4e4e4 #4d4d4d #373737 0 1;
#X floatatom 78 54 5 0 0 0 - - - 12;
#X obj 63 212 spigot;
#X obj 11 5 inlet;
#X obj 11 170 float;
#X obj 63 297 s led3;
#X connect 1 0 3 1;
#X connect 2 0 5 1;
#X connect 3 0 0 0;
#X connect 3 0 6 0;
#X connect 4 0 5 0;
#X connect 5 0 3 0;
#X coords 0 0 1 1 37 41 2 78 31;
#X restore 565 609 pd stepLED;
#N canvas 92 130 450 300 stepLED 0;
#X obj 36 -8 bng 131 250 50 0 empty empty empty 17 7 0 10 #ffffff #c2f4bf #373737;
#X obj 79 32 tgl 18 0 empty empty empty 17 7 0 10 #e4e4e4 #4d4d4d #373737 0 1;
#X floatatom 78 54 5 0 0 0 - - - 12;
#X obj 63 212 spigot;
#X obj 11 5 inlet;
#X obj 11 170 float;
#X obj 63 297 s led4;
#X connect 1 0 3 1;
#X connect 2 0 5 1;
#X connect 3 0 0 0;
#X connect 3 0 6 0;
#X connect 4 0 5 0;
#X connect 5 0 3 0;
#X coords 0 0 1 1 37 41 2 78 31;
#X restore 565 660 pd stepLED;
#N canvas 92 130 450 300 stepLED 0;
#X obj 31 -14 bng 131 250 50 0 empty empty empty 17 7 0 10 #ffffff #c2f4bf #373737;
#X obj 79 32 tgl 18 0 empty empty empty 17 7 0 10 #e4e4e4 #4d4d4d #373737 0 1;
#X floatatom 78 54 5 0 0 0 - - - 12;
#X obj 63 212 spigot;
#X obj 11 5 inlet;
#X obj 11 170 float;
#X obj 63 297 s led1;
#X connect 1 0 3 1;
#X connect 2 0 5 1;
#X connect 3 0 0 0;
#X connect 3 0 6 0;
#X connect 4 0 5 0;
#X connect 5 0 3 0;
#X coords 0 0 1 1 37 41 2 78 31;
#X restore 606 511 pd stepLED;
#N canvas 92 130 450 300 stepLED 0;
#X obj 33 -13 bng 131 250 50 0 empty empty empty 17 7 0 10 #ffffff #c2f4bf #373737;
#X obj 79 32 tgl 18 0 empty empty empty 17 7 0 10 #e4e4e4 #4d4d4d #373737 0 1;
#X floatatom 78 54 5 0 0 0 - - - 12;
#X obj 63 212 spigot;
#X obj 11 5 inlet;
#X obj 11 170 float;
#X obj 63 297 s led2;
#X connect 1 0 3 1;
#X connect 2 0 5 1;
#X connect 3 0 0 0;
#X connect 3 0 6 0;
#X connect 4 0 5 0;
#X connect 5 0 3 0;
#X coords 0 0 1 1 37 41 2 78 31;
#X restore 606 561 pd stepLED;
#N canvas 92 130 450 300 stepLED 0;
#X obj 36 -8 bng 131 250 50 0 empty empty empty 17 7 0 10 #ffffff #c2f4bf #373737;
#X obj 79 32 tgl 18 0 empty empty empty 17 7 0 10 #e4e4e4 #4d4d4d #373737 0 1;
#X floatatom 78 54 5 0 0 0 - - - 12;
#X obj 63 212 spigot;
#X obj 11 5 inlet;
#X obj 11 170 float;
#X obj 63 297 s led3;
#X connect 1 0 3 1;
#X connect 2 0 5 1;
#X connect 3 0 0 0;
#X connect 3 0 6 0;
#X connect 4 0 5 0;
#X connect 5 0 3 0;
#X coords 0 0 1 1 37 41 2 78 31;
#X restore 606 609 pd stepLED;
#N canvas 92 130 450 300 stepLED 0;
#X obj 36 -8 bng 131 250 50 0 empty empty empty 17 7 0 10 #ffffff #c2f4bf #373737;
#X obj 79 32 tgl 18 0 empty empty empty 17 7 0 10 #e4e4e4 #4d4d4d #373737 0 1;
#X floatatom 78 54 5 0 0 0 - - - 12;
#X obj 63 212 spigot;
#X obj 11 5 inlet;
#X obj 11 170 float;
#X obj 63 297 s led4;
#X connect 1 0 3 1;
#X connect 2 0 5 1;
#X connect 3 0 0 0;
#X connect 3 0 6 0;
#X connect 4 0 5 0;
#X connect 5 0 3 0;
#X coords 0 0 1 1 37 41 2 78 31;
#X restore 606 660 pd stepLED;
#N canvas 92 130 450 300 stepLED 0;
#X obj 31 -14 bng 131 250 50 0 empty empty empty 17 7 0 10 #ffffff #c2f4bf #373737;
#X obj 79 32 tgl 18 0 empty empty empty 17 7 0 10 #e4e4e4 #4d4d4d #373737 0 1;
#X floatatom 78 54 5 0 0 0 - - - 12;
#X obj 63 212 spigot;
#X obj 11 5 inlet;
#X obj 11 170 float;
#X obj 63 297 s led1;
#X connect 1 0 3 1;
#X connect 2 0 5 1;
#X connect 3 0 0 0;
#X connect 3 0 6 0;
#X connect 4 0 5 0;
#X connect 5 0 3 0;
#X coords 0 0 1 1 37 41 2 78 31;
#X restore 647 511 pd stepLED;
#N canvas 92 130 450 300 stepLED 0;
#X obj 33 -13 bng 131 250 50 0 empty empty empty 17 7 0 10 #ffffff #c2f4bf #373737;
#X obj 79 32 tgl 18 0 empty empty empty 17 7 0 10 #e4e4e4 #4d4d4d #373737 0 1;
#X floatatom 78 54 5 0 0 0 - - - 12;
#X obj 63 212 spigot;
#X obj 11 5 inlet;
#X obj 11 170 float;
#X obj 63 297 s led2;
#X connect 1 0 3 1;
#X connect 2 0 5 1;
#X connect 3 0 0 0;
#X connect 3 0 6 0;
#X connect 4 0 5 0;
#X connect 5 0 3 0;
#X coords 0 0 1 1 37 41 2 78 31;
#X restore 647 561 pd stepLED;
#N canvas 92 130 450 300 stepLED 0;
#X obj 36 -8 bng 131 250 50 0 empty empty empty 17 7 0 10 #ffffff #c2f4bf #373737;
#X obj 79 32 tgl 18 0 empty empty empty 17 7 0 10 #e4e4e4 #4d4d4d #373737 0 1;
#X floatatom 78 54 5 0 0 0 - - - 12;
#X obj 63 212 spigot;
#X obj 11 5 inlet;
#X obj 11 170 float;
#X obj 63 297 s led3;
#X connect 1 0 3 1;
#X connect 2 0 5 1;
#X connect 3 0 0 0;
#X connect 3 0 6 0;
#X connect 4 0 5 0;
#X connect 5 0 3 0;
#X coords 0 0 1 1 37 41 2 78 31;
#X restore 646 609 pd stepLED;
#N canvas 92 130 450 300 stepLED 0;
#X obj 36 -8 bng 131 250 50 0 empty empty empty 17 7 0 10 #ffffff #c2f4bf #373737;
#X obj 79 32 tgl 18 0 empty empty empty 17 7 0 10 #e4e4e4 #4d4d4d #373737 0 1;
#X floatatom 78 54 5 0 0 0 - - - 12;
#X obj 63 212 spigot;
#X obj 11 5 inlet;
#X obj 11 170 float;
#X obj 63 297 s led4;
#X connect 1 0 3 1;
#X connect 2 0 5 1;
#X connect 3 0 0 0;
#X connect 3 0 6 0;
#X connect 4 0 5 0;
#X connect 5 0 3 0;
#X coords 0 0 1 1 37 41 2 78 31;
#X restore 646 660 pd stepLED;
#N canvas 92 130 450 300 stepLED 0;
#X obj 31 -14 bng 131 250 50 0 empty empty empty 17 7 0 10 #ffffff #c2f4bf #373737;
#X obj 79 32 tgl 18 0 empty empty empty 17 7 0 10 #e4e4e4 #4d4d4d #373737 0 1;
#X floatatom 78 54 5 0 0 0 - - - 12;
#X obj 63 212 spigot;
#X obj 11 5 inlet;
#X obj 11 170 float;
#X obj 63 297 s led1;
#X connect 1 0 3 1;
#X connect 2 0 5 1;
#X connect 3 0 0 0;
#X connect 3 0 6 0;
#X connect 4 0 5 0;
#X connect 5 0 3 0;
#X coords 0 0 1 1 37 41 2 78 31;
#X restore 687 511 pd stepLED;
#N canvas 92 130 450 300 stepLED 0;
#X obj 33 -13 bng 131 250 50 0 empty empty empty 17 7 0 10 #ffffff #c2f4bf #373737;
#X obj 79 32 tgl 18 0 empty empty empty 17 7 0 10 #e4e4e4 #4d4d4d #373737 0 1;
#X floatatom 78 54 5 0 0 0 - - - 12;
#X obj 63 212 spigot;
#X obj 11 5 inlet;
#X obj 11 170 float;
#X obj 63 297 s led2;
#X connect 1 0 3 1;
#X connect 2 0 5 1;
#X connect 3 0 0 0;
#X connect 3 0 6 0;
#X connect 4 0 5 0;
#X connect 5 0 3 0;
#X coords 0 0 1 1 37 41 2 78 31;
#X restore 687 561 pd stepLED;
#N canvas 92 130 450 300 stepLED 0;
#X obj 36 -8 bng 131 250 50 0 empty empty empty 17 7 0 10 #ffffff #c2f4bf #373737;
#X obj 79 32 tgl 18 0 empty empty empty 17 7 0 10 #e4e4e4 #4d4d4d #373737 0 1;
#X floatatom 78 54 5 0 0 0 - - - 12;
#X obj 63 212 spigot;
#X obj 11 5 inlet;
#X obj 11 170 float;
#X obj 63 297 s led3;
#X connect 1 0 3 1;
#X connect 2 0 5 1;
#X connect 3 0 0 0;
#X connect 3 0 6 0;
#X connect 4 0 5 0;
#X connect 5 0 3 0;
#X coords 0 0 1 1 37 41 2 78 31;
#X restore 687 609 pd stepLED;
#N canvas 92 130 450 300 stepLED 0;
#X obj 36 -8 bng 131 250 50 0 empty empty empty 17 7 0 10 #ffffff #c2f4bf #373737;
#X obj 79 32 tgl 18 0 empty empty empty 17 7 0 10 #e4e4e4 #4d4d4d #373737 0 1;
#X floatatom 78 54 5 0 0 0 - - - 12;
#X obj 63 212 spigot;
#X obj 11 5 inlet;
#X obj 11 170 float;
#X obj 63 297 s led4;
#X connect 1 0 3 1;
#X connect 2 0 5 1;
#X connect 3 0 0 0;
#X connect 3 0 6 0;
#X connect 4 0 5 0;
#X connect 5 0 3 0;
#X coords 0 0 1 1 37 41 2 78 31;
#X restore 687 660 pd stepLED;
#N canvas 92 130 450 300 stepLED 0;
#X obj 31 -14 bng 131 250 50 0 empty empty empty 17 7 0 10 #ffffff #c2f4bf #373737;
#X obj 79 32 tgl 18 0 empty empty empty 17 7 0 10 #e4e4e4 #4d4d4d #373737 0 1;
#X floatatom 78 54 5 0 0 0 - - - 12;
#X obj 63 212 spigot;
#X obj 11 5 inlet;
#X obj 11 170 float;
#X obj 63 297 s led1;
#X connect 1 0 3 1;
#X connect 2 0 5 1;
#X connect 3 0 0 0;
#X connect 3 0 6 0;
#X connect 4 0 5 0;
#X connect 5 0 3 0;
#X coords 0 0 1 1 37 41 2 78 31;
#X restore 728 511 pd stepLED;
#N canvas 92 130 450 300 stepLED 0;
#X obj 33 -13 bng 131 250 50 0 empty empty empty 17 7 0 10 #ffffff #c2f4bf #373737;
#X obj 79 32 tgl 18 0 empty empty empty 17 7 0 10 #e4e4e4 #4d4d4d #373737 0 1;
#X floatatom 78 54 5 0 0 0 - - - 12;
#X obj 63 212 spigot;
#X obj 11 5 inlet;
#X obj 11 170 float;
#X obj 63 297 s led2;
#X connect 1 0 3 1;
#X connect 2 0 5 1;
#X connect 3 0 0 0;
#X connect 3 0 6 0;
#X connect 4 0 5 0;
#X connect 5 0 3 0;
#X coords 0 0 1 1 37 41 2 78 31;
#X restore 728 561 pd stepLED;
#N canvas 92 130 450 300 stepLED 0;
#X obj 36 -8 bng 131 250 50 0 empty empty empty 17 7 0 10 #ffffff #c2f4bf #373737;
#X obj 79 32 tgl 18 0 empty empty empty 17 7 0 10 #e4e4e4 #4d4d4d #373737 0 1;
#X floatatom 78 54 5 0 0 0 - - - 12;
#X obj 63 212 spigot;
#X obj 11 5 inlet;
#X obj 11 170 float;
#X obj 63 297 s led3;
#X connect 1 0 3 1;
#X connect 2 0 5 1;
#X connect 3 0 0 0;
#X connect 3 0 6 0;
#X connect 4 0 5 0;
#X connect 5 0 3 0;
#X coords 0 0 1 1 37 41 2 78 31;
#X restore 728 609 pd stepLED;
#N canvas 92 130 450 300 stepLED 0;
#X obj 36 -8 bng 131 250 50 0 empty empty empty 17 7 0 10 #ffffff #c2f4bf #373737;
#X obj 79 32 tgl 18 0 empty empty empty 17 7 0 10 #e4e4e4 #4d4d4d #373737 0 1;
#X floatatom 78 54 5 0 0 0 - - - 12;
#X obj 63 212 spigot;
#X obj 11 5 inlet;
#X obj 11 170 float;
#X obj 63 297 s led4;
#X connect 1 0 3 1;
#X connect 2 0 5 1;
#X connect 3 0 0 0;
#X connect 3 0 6 0;
#X connect 4 0 5 0;
#X connect 5 0 3 0;
#X coords 0 0 1 1 37 41 2 78 31;
#X restore 728 660 pd stepLED;
#N canvas 92 130 450 300 stepLED 0;
#X obj 31 -14 bng 131 250 50 0 empty empty empty 17 7 0 10 #ffffff #c2f4bf #373737;
#X obj 79 32 tgl 18 0 empty empty empty 17 7 0 10 #e4e4e4 #4d4d4d #373737 0 1;
#X floatatom 78 54 5 0 0 0 - - - 12;
#X obj 63 212 spigot;
#X obj 11 5 inlet;
#X obj 11 170 float;
#X obj 63 297 s led1;
#X connect 1 0 3 1;
#X connect 2 0 5 1;
#X connect 3 0 0 0;
#X connect 3 0 6 0;
#X connect 4 0 5 0;
#X connect 5 0 3 0;
#X coords 0 0 1 1 37 41 2 78 31;
#X restore 769 511 pd stepLED;
#N canvas 92 130 450 300 stepLED 0;
#X obj 33 -13 bng 131 250 50 0 empty empty empty 17 7 0 10 #ffffff #c2f4bf #373737;
#X obj 79 32 tgl 18 0 empty empty empty 17 7 0 10 #e4e4e4 #4d4d4d #373737 0 1;
#X floatatom 78 54 5 0 0 0 - - - 12;
#X obj 63 212 spigot;
#X obj 11 5 inlet;
#X obj 11 170 float;
#X obj 63 297 s led2;
#X connect 1 0 3 1;
#X connect 2 0 5 1;
#X connect 3 0 0 0;
#X connect 3 0 6 0;
#X connect 4 0 5 0;
#X connect 5 0 3 0;
#X coords 0 0 1 1 37 41 2 78 31;
#X restore 769 561 pd stepLED;
#N canvas 92 130 450 300 stepLED 0;
#X obj 36 -8 bng 131 250 50 0 empty empty empty 17 7 0 10 #ffffff #c2f4bf #373737;
#X obj 79 32 tgl 18 0 empty empty empty 17 7 0 10 #e4e4e4 #4d4d4d #373737 0 1;
#X floatatom 78 54 5 0 0 0 - - - 12;
#X obj 63 212 spigot;
#X obj 11 5 inlet;
#X obj 11 170 float;
#X obj 63 297 s led3;
#X connect 1 0 3 1;
#X connect 2 0 5 1;
#X connect 3 0 0 0;
#X connect 3 0 6 0;
#X connect 4 0 5 0;
#X connect 5 0 3 0;
#X coords 0 0 1 1 37 41 2 78 31;
#X restore 769 609 pd stepLED;
#N canvas 92 130 450 300 stepLED 0;
#X obj 36 -8 bng 131 250 50 0 empty empty empty 17 7 0 10 #ffffff #c2f4bf #373737;
#X obj 79 32 tgl 18 0 empty empty empty 17 7 0 10 #e4e4e4 #4d4d4d #373737 0 1;
#X floatatom 78 54 5 0 0 0 - - - 12;
#X obj 63 212 spigot;
#X obj 11 5 inlet;
#X obj 11 170 float;
#X obj 63 297 s led4;
#X connect 1 0 3 1;
#X connect 2 0 5 1;
#X connect 3 0 0 0;
#X connect 3 0 6 0;
#X connect 4 0 5 0;
#X connect 5 0 3 0;
#X coords 0 0 1 1 37 41 2 78 31;
#X restore 769 660 pd stepLED;
#N canvas 92 130 450 300 stepLED 0;
#X obj 31 -14 bng 131 250 50 0 empty empty empty 17 7 0 10 #ffffff #c2f4bf #373737;
#X obj 79 32 tgl 18 0 empty empty empty 17 7 0 10 #e4e4e4 #4d4d4d #373737 0 1;
#X floatatom 78 54 5 0 0 0 - - - 12;
#X obj 63 212 spigot;
#X obj 11 5 inlet;
#X obj 11 170 float;
#X obj 63 297 s led1;
#X connect 1 0 3 1;
#X connect 2 0 5 1;
#X connect 3 0 0 0;
#X connect 3 0 6 0;
#X connect 4 0 5 0;
#X connect 5 0 3 0;
#X coords 0 0 1 1 37 41 2 78 31;
#X restore 810 511 pd stepLED;
#N canvas 92 130 450 300 stepLED 0;
#X obj 33 -13 bng 131 250 50 0 empty empty empty 17 7 0 10 #ffffff #c2f4bf #373737;
#X obj 79 32 tgl 18 0 empty empty empty 17 7 0 10 #e4e4e4 #4d4d4d #373737 0 1;
#X floatatom 78 54 5 0 0 0 - - - 12;
#X obj 63 212 spigot;
#X obj 11 5 inlet;
#X obj 11 170 float;
#X obj 63 297 s led2;
#X connect 1 0 3 1;
#X connect 2 0 5 1;
#X connect 3 0 0 0;
#X connect 3 0 6 0;
#X connect 4 0 5 0;
#X connect 5 0 3 0;
#X coords 0 0 1 1 37 41 2 78 31;
#X restore 810 561 pd stepLED;
#N canvas 92 130 450 300 stepLED 0;
#X obj 36 -8 bng 131 250 50 0 empty empty empty 17 7 0 10 #ffffff #c2f4bf #373737;
#X obj 79 32 tgl 18 0 empty empty empty 17 7 0 10 #e4e4e4 #4d4d4d #373737 0 1;
#X floatatom 78 54 5 0 0 0 - - - 12;
#X obj 63 212 spigot;
#X obj 11 5 inlet;
#X obj 11 170 float;
#X obj 63 297 s led3;
#X connect 1 0 3 1;
#X connect 2 0 5 1;
#X connect 3 0 0 0;
#X connect 3 0 6 0;
#X connect 4 0 5 0;
#X connect 5 0 3 0;
#X coords 0 0 1 1 37 41 2 78 31;
#X restore 810 609 pd stepLED;
#N canvas 92 130 450 300 stepLED 0;
#X obj 36 -8 bng 131 250 50 0 empty empty empty 17 7 0 10 #ffffff #c2f4bf #373737;
#X obj 79 32 tgl 18 0 empty empty empty 17 7 0 10 #e4e4e4 #4d4d4d #373737 0 1;
#X floatatom 78 54 5 0 0 0 - - - 12;
#X obj 63 212 spigot;
#X obj 11 5 inlet;
#X obj 11 170 float;
#X obj 63 297 s led4;
#X connect 1 0 3 1;
#X connect 2 0 5 1;
#X connect 3 0 0 0;
#X connect 3 0 6 0;
#X connect 4 0 5 0;
#X connect 5 0 3 0;
#X coords 0 0 1 1 37 41 2 78 31;
#X restore 810 660 pd stepLED;
#X connect 0 0 24 0;
#X connect 1 0 2 0;
#X connect 1 0 3 0;
#X connect 2 0 1 1;
#X connect 3 0 4 0;
#X connect 4 0 5 0;
#X connect 4 0 60 0;
#X connect 4 0 81 0;
#X connect 4 0 82 0;
#X connect 4 0 84 0;
#X connect 4 0 86 0;
#X connect 4 1 61 0;
#X connect 4 1 6 0;
#X connect 4 1 88 0;
#X connect 4 1 89 0;
#X connect 4 1 90 0;
#X connect 4 1 91 0;
#X connect 4 2 62 0;
#X connect 4 2 7 0;
#X connect 4 2 92 0;
#X connect 4 2 93 0;
#X connect 4 2 94 0;
#X connect 4 2 95 0;
#X connect 4 3 63 0;
#X connect 4 3 8 0;
#X connect 4 3 96 0;
#X connect 4 3 97 0;
#X connect 4 3 98 0;
#X connect 4 3 99 0;
#X connect 4 4 64 0;
#X connect 4 4 9 0;
#X connect 4 4 100 0;
#X connect 4 4 101 0;
#X connect 4 4 102 0;
#X connect 4 4 103 0;
#X connect 4 5 65 0;
#X connect 4 5 10 0;
#X connect 4 5 104 0;
#X connect 4 5 105 0;
#X connect 4 5 106 0;
#X connect 4 5 107 0;
#X connect 4 6 66 0;
#X connect 4 6 11 0;
#X connect 4 6 108 0;
#X connect 4 6 109 0;
#X connect 4 6 110 0;
#X connect 4 6 111 0;
#X connect 4 7 67 0;
#X connect 4 7 12 0;
#X connect 4 7 112 0;
#X connect 4 7 113 0;
#X connect 4 7 114 0;
#X connect 4 7 115 0;
#X connect 4 8 68 0;
#X connect 4 8 13 0;
#X connect 4 8 116 0;
#X connect 4 8 117 0;
#X connect 4 8 118 0;
#X connect 4 8 119 0;
#X connect 4 9 69 0;
#X connect 4 9 14 0;
#X connect 4 9 120 0;
#X connect 4 9 121 0;
#X connect 4 9 122 0;
#X connect 4 9 123 0;
#X connect 4 10 70 0;
#X connect 4 10 15 0;
#X connect 4 10 124 0;
#X connect 4 10 125 0;
#X connect 4 10 126 0;
#X connect 4 10 127 0;
#X connect 4 11 71 0;
#X connect 4 11 16 0;
#X connect 4 11 128 0;
#X connect 4 11 129 0;
#X connect 4 11 130 0;
#X connect 4 11 131 0;
#X connect 4 12 72 0;
#X connect 4 12 17 0;
#X connect 4 12 132 0;
#X connect 4 12 133 0;
#X connect 4 12 134 0;
#X connect 4 12 135 0;
#X connect 4 13 73 0;
#X connect 4 13 18 0;
#X connect 4 13 136 0;
#X connect 4 13 137 0;
#X connect 4 13 138 0;
#X connect 4 13 139 0;
#X connect 4 14 74 0;
#X connect 4 14 19 0;
#X connect 4 14 140 0;
#X connect 4 14 141 0;
#X connect 4 14 142 0;
#X connect 4 14 143 0;
#X connect 4 15 75 0;
#X connect 4 15 20 0;
#X connect 4 15 144 0;
#X connect 4 15 145 0;
#X connect 4 15 146 0;
#X connect 4 15 147 0;
#X connect 5 0 25 0;
#X connect 5 0 41 0;
#X connect 6 0 26 0;
#X connect 6 0 42 0;
#X connect 7 0 27 0;
#X connect 7 0 43 0;
#X connect 8 0 28 0;
#X connect 8 0 44 0;
#X connect 9 0 29 0;
#X connect 9 0 45 0;
#X connect 10 0 30 0;
#X connect 10 0 46 0;
#X connect 11 0 31 0;
#X connect 11 0 47 0;
#X connect 12 0 32 0;
#X connect 12 0 48 0;
#X connect 13 0 33 0;
#X connect 13 0 49 0;
#X connect 14 0 34 0;
#X connect 14 0 50 0;
#X connect 15 0 35 0;
#X connect 15 0 51 0;
#X connect 16 0 36 0;
#X connect 16 0 52 0;
#X connect 17 0 37 0;
#X connect 17 0 53 0;
#X connect 18 0 38 0;
#X connect 18 0 54 0;
#X connect 19 0 39 0;
#X connect 19 0 55 0;
#X connect 20 0 56 0;
#X connect 20 0 40 0;
#X connect 21 0 23 0;
#X connect 21 0 24 1;
#X connect 22 0 21 0;
#X connect 24 0 1 0;
#X coords 0 0 1 1 779 531 2 90 209;
#X restore 17 58 pd seq;
#X msg 326 995 connect 127.0.0.1 9000;
#N canvas 63 841 450 300 leds 0;
#X obj 263 532 outlet;
#X obj 263 343 inlet;
#X obj 263 420 i;
#X obj 333 389 t b f;
#X obj 346 420 i;
#X obj 333 343 inlet;
#X obj 263 468 pack 0 0, f 28;
#X obj 263 498 oscformat -f ii /leds;
#X connect 1 0 2 0;
#X connect 2 0 6 0;
#X connect 3 1 4 0;
#X connect 4 0 6 1;
#X connect 5 0 3 0;
#X connect 6 0 7 0;
#X connect 7 0 0 0;
#X restore 1059 866 pd leds;
#X f 22;
#N canvas 150 188 450 300 controlLeds 0;
#X obj 19 427 outlet;
#X obj 22 41 vsl 17 128 0 255 0 0 empty led1 empty 0 -9 0 10 #e4e4e4 #4d4d4d #373737 0 0;
#X obj 187 427 outlet;
#X msg 21 372 1;
#X obj 56 41 vsl 17 128 0 255 0 0 empty led2 empty 0 -9 0 10 #e4e4e4 #4d4d4d #373737 0 0;
#X msg 50 372 2;
#X msg 80 372 3;
#X obj 90 41 vsl 17 128 0 255 0 0 empty led3 empty 0 -9 0 10 #e4e4e4 #4d4d4d #373737 0 0;
#X obj 125 41 vsl 17 128 0 255 0 0 empty led4 empty 0 -9 0 10 #e4e4e4 #4d4d4d #373737 0 0;
#X text 19 9 1;
#X text 53 9 2;
#X text 87 9 3;
#X text 122 9 4;
#X obj 130 212 t b f;
#X obj 87 212 t b f;
#X obj 19 212 t b f;
#X msg 110 372 4;
#X obj 187 212 t b f;
#X obj 17 -49 r panic;
#X connect 1 0 15 0;
#X connect 3 0 0 0;
#X connect 4 0 14 0;
#X connect 5 0 0 0;
#X connect 6 0 0 0;
#X connect 7 0 13 0;
#X connect 8 0 17 0;
#X connect 13 0 6 0;
#X connect 13 1 2 0;
#X connect 14 0 5 0;
#X connect 14 1 2 0;
#X connect 15 0 3 0;
#X connect 15 1 2 0;
#X connect 16 0 0 0;
#X connect 17 0 16 0;
#X connect 17 1 2 0;
#X connect 18 0 1 0;
#X connect 18 0 4 0;
#X connect 18 0 7 0;
#X connect 18 0 8 0;
#X coords 0 0 1 1 141 178 2 12 1;
#X restore 1059 655 pd controlLeds;
#X text 1115 613 LEDS, f 6;
#X msg 69 995 connect 192.168.1.80 9000;
#X connect 0 0 4 0;
#X connect 1 0 0 0;
#X connect 1 1 0 1;
#X connect 1 2 0 2;
#X connect 2 0 4 0;
#X connect 3 0 2 0;
#X connect 3 1 2 1;
#X connect 3 2 2 2;
#X connect 4 0 5 0;
#X connect 5 0 7 0;
#X connect 6 0 7 0;
#X connect 8 0 4 0;
#X connect 9 0 8 0;
#X connect 9 1 8 1;
#X connect 9 2 8 2;
#X connect 9 3 8 3;
#X connect 9 4 8 4;
#X connect 9 5 8 5;
#X connect 15 0 7 0;
#X connect 16 0 4 0;
#X connect 17 0 16 0;
#X connect 17 1 16 1;
#X connect 19 0 7 0;
