#N canvas 967 545 770 424 12;
#N canvas 92 136 331 294 motor 0;
#X obj 77 223 outlet;
#X obj 77 189 oscformat -f iiii /motor;
#X obj 77 159 pack 0 0 0, f 24;
#X obj 77 34 inlet;
#X obj 77 112 i;
#X obj 128 87 t b f;
#X obj 160 113 i;
#X obj 210 88 t b f;
#X obj 242 112 i;
#X obj 128 33 inlet;
#X obj 210 35 inlet;
#X connect 1 0 0 0;
#X connect 2 0 1 0;
#X connect 3 0 4 0;
#X connect 4 0 2 0;
#X connect 5 0 2 0;
#X connect 5 1 6 0;
#X connect 6 0 2 1;
#X connect 7 0 2 0;
#X connect 7 1 8 0;
#X connect 8 0 2 2;
#X connect 9 0 5 0;
#X connect 10 0 7 0;
#X restore 17 299 pd motor;
#X f 43;
#N canvas 439 297 1176 626 controlMotor 1;
#X obj 104 105 tgl 50 0 empty panic ON 55 30 0 40 #fcfcfc #000000 #000000 0 1;
#X obj 106 161 hsl 290 40 0 330 0 0 empty rm1 empty -2 -8 0 10 #fcfcfc #000000 #000000 0 0;
#X obj 457 242 i;
#X obj 480 273 / 10;
#X obj 104 204 nbx 4 40 -1e+37 1e+37 0 0 empty empty Hz 165 25 0 40 #fcfcfc #000000 #000000 0 256;
#X msg 438 188 0;
#X obj 438 163 r panic;
#X obj 290 106 hradio 19 1 0 2 empty empty MOTOR 40 10 0 12 #fcfcfc #000000 #000000 0;
#X floatatom 292 133 5 0 0 0 - - - 0;
#X obj 440 132 i;
#X obj 439 103 + 1;
#X obj 101 363 outlet;
#X obj 238 362 outlet;
#X obj 366 365 outlet;
#X msg 441 71 1;
#X obj 441 43 loadbang;
#X obj 639 478 change;
#X obj 521 214 delay 100;
#X connect 0 0 12 0;
#X connect 1 0 17 0;
#X connect 1 0 2 1;
#X connect 2 0 3 0;
#X connect 2 0 13 0;
#X connect 3 0 4 0;
#X connect 5 0 1 0;
#X connect 6 0 5 0;
#X connect 7 0 10 0;
#X connect 8 0 9 0;
#X connect 8 0 11 0;
#X connect 10 0 8 0;
#X connect 14 0 8 0;
#X connect 15 0 14 0;
#X connect 17 0 2 0;
#X coords 0 -1 2 1 302 147 2 100 100;
#X restore 17 77 pd controlMotor;
#N canvas 92 136 331 294 motor 0;
#X obj 77 223 outlet;
#X obj 77 159 pack 0 0 0, f 24;
#X obj 77 34 inlet;
#X obj 77 112 i;
#X obj 128 87 t b f;
#X obj 160 113 i;
#X obj 210 88 t b f;
#X obj 128 33 inlet;
#X obj 210 35 inlet;
#X obj 77 189 oscformat -f iii /motor;
#X obj 242 112 i;
#X connect 1 0 9 0;
#X connect 2 0 3 0;
#X connect 3 0 1 0;
#X connect 4 0 1 0;
#X connect 4 1 5 0;
#X connect 5 0 1 1;
#X connect 6 0 1 0;
#X connect 6 1 10 0;
#X connect 7 0 4 0;
#X connect 8 0 6 0;
#X connect 9 0 0 0;
#X connect 10 0 1 2;
#X restore 328 299 pd motor;
#X f 43;
#N canvas 439 297 1176 626 controlMotor 1;
#X obj 104 105 tgl 50 0 empty panic ON 55 30 0 40 #fcfcfc #000000 #000000 0 1;
#X obj 106 161 hsl 290 40 0 330 0 0 empty rm1 empty -2 -8 0 10 #fcfcfc #000000 #000000 0 0;
#X obj 453 227 i;
#X obj 476 258 / 10;
#X obj 104 204 nbx 4 40 -1e+37 1e+37 0 0 empty empty Hz 165 25 0 40 #fcfcfc #000000 #000000 0 256;
#X msg 64 43 0;
#X obj 64 18 r panic;
#X obj 290 106 hradio 19 1 0 2 empty empty MOTOR 40 10 0 11 #fcfcfc #000000 #000000 0;
#X floatatom 292 133 5 0 0 0 - - - 0;
#X obj 440 132 i;
#X obj 439 103 + 1;
#X obj 101 363 outlet;
#X obj 238 362 outlet;
#X obj 366 365 outlet;
#X obj 441 43 loadbang;
#X msg 441 71 2;
#X obj 531 204 delay 100;
#X connect 0 0 12 0;
#X connect 1 0 2 1;
#X connect 1 0 16 0;
#X connect 2 0 3 0;
#X connect 2 0 13 0;
#X connect 3 0 4 0;
#X connect 5 0 1 0;
#X connect 6 0 5 0;
#X connect 7 0 10 0;
#X connect 8 0 9 0;
#X connect 8 0 11 0;
#X connect 10 0 8 0;
#X connect 14 0 15 0;
#X connect 15 0 8 0;
#X connect 16 0 2 0;
#X coords 0 -1 2 1 302 147 2 100 100;
#X restore 328 77 pd controlMotor;
#X obj 17 360 list prepend send;
#X obj 17 391 list trim;
#X msg 64 458 disconnect;
#X obj 17 501 netsend -u -b;
#N canvas 92 136 331 294 estorbo 0;
#X obj 77 223 outlet;
#X obj 77 34 inlet;
#X obj 77 111 i;
#X obj 147 80 t b f;
#X obj 160 111 i;
#X obj 230 80 t b f;
#X obj 243 111 i;
#X obj 147 34 inlet;
#X obj 230 34 inlet;
#X obj 314 80 t b f;
#X obj 327 111 i;
#X obj 396 80 t b f;
#X obj 409 111 i;
#X obj 314 34 inlet;
#X obj 396 34 inlet;
#X obj 479 80 t b f;
#X obj 492 111 i;
#X obj 479 34 inlet;
#X obj 77 159 pack 0 0 0 0 0 0, f 62;
#X obj 77 189 oscformat -f iiiiii /estorbo;
#X connect 1 0 2 0;
#X connect 2 0 18 0;
#X connect 3 0 18 0;
#X connect 3 1 4 0;
#X connect 4 0 18 1;
#X connect 5 0 18 0;
#X connect 5 1 6 0;
#X connect 6 0 18 2;
#X connect 7 0 3 0;
#X connect 8 0 5 0;
#X connect 9 0 18 0;
#X connect 9 1 10 0;
#X connect 10 0 18 3;
#X connect 11 0 18 0;
#X connect 11 1 12 0;
#X connect 12 0 18 4;
#X connect 13 0 9 0;
#X connect 14 0 11 0;
#X connect 15 0 18 0;
#X connect 15 1 16 0;
#X connect 16 0 18 5;
#X connect 17 0 15 0;
#X connect 18 0 19 0;
#X connect 19 0 0 0;
#X restore 650 299 pd estorbo;
#X f 51;
#X text 656 372 on \, led1 \, led2 \, t1 \, t2 \, pwm;
#N canvas 0 22 450 300 controlEstorbo 0;
#X obj 214 20 hradio 19 1 0 5 empty panic LED\ 1 40 -10 0 11 #fcfcfc #000000 #000000 0;
#X floatatom 214 46 5 0 0 0 - - - 0;
#X obj 216 83 hradio 19 1 0 5 empty panic LED\ 2 40 -10 0 11 #fcfcfc #000000 #000000 0;
#X floatatom 216 108 5 0 0 0 - - - 0;
#X obj 10 5 tgl 50 0 empty panic ON 55 30 0 40 #fcfcfc #000000 #000000 0 1;
#X obj 77 73 vsl 20 102 0 127 0 0 empty empty empty 0 -9 0 10 #e4e4e4 #4d4d4d #373737 0 1;
#X obj 64 178 nbx 3 18 -1e+37 1e+37 0 0 empty empty t1 50 10 0 14 #e4e4e4 #373737 #373737 0 256;
#X obj 453 138 i;
#X obj 145 73 vsl 24 102 0 127 0 0 empty empty empty 0 -9 0 10 #e4e4e4 #4d4d4d #373737 0 1;
#X obj 136 178 nbx 3 18 -1e+37 1e+37 0 0 empty empty t2 50 10 0 14 #e4e4e4 #373737 #373737 0 256;
#X obj 495 138 i;
#X obj 220 148 hsl 133 27 0 255 0 0 empty panic empty -2 -8 0 10 #e4e4e4 #4d4d4d #373737 0 1;
#X obj 214 178 nbx 3 18 -1e+37 1e+37 0 0 empty empty pwm 50 10 0 14 #e4e4e4 #373737 #373737 0 256;
#X obj 453 178 i;
#X obj 10 364 outlet;
#X obj 64 364 outlet;
#X obj 118 364 outlet;
#X obj 172 364 outlet;
#X obj 226 364 outlet;
#X obj 280 364 outlet;
#X text 20 427 on \, led1 \, led2 \, t1 \, t2 \, pwm;
#X obj 23 73 vsl 20 102 0 127 0 0 empty panic both 0 -9 0 10 #e4e4e4 #4d4d4d #373737 0 1;
#X connect 0 0 1 0;
#X connect 1 0 15 0;
#X connect 2 0 3 0;
#X connect 3 0 16 0;
#X connect 4 0 14 0;
#X connect 5 0 7 0;
#X connect 6 0 17 0;
#X connect 7 0 6 0;
#X connect 8 0 10 0;
#X connect 9 0 18 0;
#X connect 10 0 9 0;
#X connect 11 0 13 0;
#X connect 12 0 19 0;
#X connect 13 0 12 0;
#X connect 21 0 5 0;
#X connect 21 0 8 0;
#X coords 0 0 1 1 355 202 2 2 3;
#X restore 650 77 pd controlEstorbo;
#X text 128 51 Motor 1;
#X text 451 51 Motor 2;
#X text 772 51 Estrobo;
#X msg 17 6 \; panic 0;
#N canvas 0 22 450 300 seq 0;
#X obj 168 429 tgl 20 0 empty empty play 23 10 0 12 #fcfcfc #000000 #000000 0 1;
#X obj 204 110 i;
#X obj 258 110 + 1;
#X obj 204 142 % 16;
#X obj 204 182 sel 0 1 2 3 4 5 6 7 8 9 10 11 12 13 14 15, f 95;
#X obj 203 235 bng 17 250 50 0 empty empty empty 17 7 0 10 #e4e4e4 #4d4d4d #373737;
#X obj 244 235 bng 17 250 50 0 empty empty empty 17 7 0 10 #e4e4e4 #4d4d4d #373737;
#X obj 285 235 bng 17 250 50 0 empty empty empty 17 7 0 10 #e4e4e4 #4d4d4d #373737;
#X obj 326 235 bng 17 250 50 0 empty empty empty 17 7 0 10 #e4e4e4 #4d4d4d #373737;
#X obj 367 235 bng 17 250 50 0 empty empty empty 17 7 0 10 #e4e4e4 #4d4d4d #373737;
#X obj 408 235 bng 17 250 50 0 empty empty empty 17 7 0 10 #e4e4e4 #4d4d4d #373737;
#X obj 448 235 bng 17 250 50 0 empty empty empty 17 7 0 10 #e4e4e4 #4d4d4d #373737;
#X obj 489 235 bng 17 250 50 0 empty empty empty 17 7 0 10 #e4e4e4 #4d4d4d #373737;
#X obj 529 235 bng 17 250 50 0 empty empty empty 17 7 0 10 #e4e4e4 #4d4d4d #373737;
#X obj 570 235 bng 17 250 50 0 empty empty empty 17 7 0 10 #e4e4e4 #4d4d4d #373737;
#X obj 611 235 bng 17 250 50 0 empty empty empty 17 7 0 10 #e4e4e4 #4d4d4d #373737;
#X obj 651 235 bng 17 250 50 0 empty empty empty 17 7 0 10 #e4e4e4 #4d4d4d #373737;
#X obj 692 235 bng 17 250 50 0 empty empty empty 17 7 0 10 #e4e4e4 #4d4d4d #373737;
#X obj 732 235 bng 17 250 50 0 empty empty empty 17 7 0 10 #e4e4e4 #4d4d4d #373737;
#X obj 773 235 bng 17 250 50 0 empty empty empty 17 7 0 10 #e4e4e4 #4d4d4d #373737;
#X obj 814 235 bng 17 250 50 0 empty empty empty 17 7 0 10 #e4e4e4 #4d4d4d #373737;
#X obj 259 46 expr 60000/$f1;
#X floatatom 95 431 5 0 0 1 bpm - - 12;
#X floatatom 292 78 5 0 0 0 - - - 12;
#X obj 204 78 metro 500;
#N canvas 0 22 450 300 step 0;
#X obj 39 -9 bng 116 250 50 0 empty empty empty 17 7 0 10 #ffffff #c2f4bf #373737;
#X obj 78 31 tgl 18 0 empty empty empty 17 7 0 10 #e4e4e4 #4d4d4d #373737 0 1;
#X floatatom 78 54 5 0 0 0 - - - 12;
#X obj 63 207 spigot;
#X obj 11 5 inlet;
#X obj 63 263 outlet;
#X obj 11 170 float;
#X connect 1 0 3 1 32.................2A...7....vc....O....3I....;
#X connect 2 0 6 1 32.................g....P7+++eH....D++++mE....;
#X connect 3 0 5 0 32.................i....j9++++H....o++++aD....;
#X connect 3 0 0 0;
#X connect 4 0 6 0 32.................IA........PR.........DI....;
#X connect 6 0 3 0 32.................I....PC...PB....z....DA....;
#X coords 0 0 1 1 36 40 2 78 31;
#X restore 199 261 pd step;
#N canvas 0 22 450 300 step 0;
#X obj 39 -6 bng 116 250 50 0 empty empty empty 17 7 0 10 #ffffff #c2f4bf #373737;
#X obj 78 31 tgl 18 0 empty empty empty 17 7 0 10 #e4e4e4 #4d4d4d #373737 0 1;
#X obj 63 207 spigot;
#X obj 11 5 inlet;
#X obj 63 263 outlet;
#X floatatom 78 54 5 0 0 0 - - - 12;
#X obj 11 170 float;
#X connect 1 0 2 1 32.................2A...7....vc....O....3I....;
#X connect 2 0 4 0 32.................i....j9++++H....o++++aD....;
#X connect 3 0 6 0 32.................IA........PR.........DI....;
#X connect 5 0 6 1 32.................g....P7+++eH....D++++mE....;
#X connect 6 0 2 0 32.................I....PC...PB....z....DA....;
#X coords 0 0 1 1 35 39 2 78 31;
#X restore 240 261 pd step;
#N canvas 0 22 450 300 step 0;
#X obj 39 -7 bng 116 250 50 0 empty empty empty 17 7 0 10 #ffffff #c2f4bf #373737;
#X obj 78 31 tgl 18 0 empty empty empty 17 7 0 10 #e4e4e4 #4d4d4d #373737 0 1;
#X floatatom 78 54 5 0 0 0 - - - 12;
#X obj 63 207 spigot;
#X obj 11 5 inlet;
#X obj 63 263 outlet;
#X obj 11 170 float;
#X connect 1 0 3 1 32.................2A...7....vc....O....3I....;
#X connect 2 0 6 1 32.................g....P7+++eH....D++++mE....;
#X connect 3 0 5 0 32.................i....j9++++H....o++++aD....;
#X connect 3 0 0 0;
#X connect 4 0 6 0 32.................IA........PR.........DI....;
#X connect 6 0 3 0 32.................I....PC...PB....z....DA....;
#X coords 0 0 1 1 36 40 2 78 31;
#X restore 281 261 pd step;
#N canvas 0 22 450 300 step 0;
#X obj 39 -6 bng 116 250 50 0 empty empty empty 17 7 0 10 #ffffff #c2f4bf #373737;
#X obj 78 31 tgl 18 0 empty empty empty 17 7 0 10 #e4e4e4 #4d4d4d #373737 0 1;
#X floatatom 78 54 5 0 0 0 - - - 12;
#X obj 63 207 spigot;
#X obj 11 5 inlet;
#X obj 63 263 outlet;
#X obj 11 170 float;
#X connect 1 0 3 1 32.................2A...7....vc....O....3I....;
#X connect 2 0 6 1 32.................g....P7+++eH....D++++mE....;
#X connect 3 0 5 0 32.................i....j9++++H....o++++aD....;
#X connect 3 0 0 0;
#X connect 4 0 6 0 32.................IA........PR.........DI....;
#X connect 6 0 3 0 32.................I....PC...PB....z....DA....;
#X coords 0 0 1 1 35 39 2 78 31;
#X restore 322 261 pd step;
#N canvas 0 22 450 300 step 0;
#X obj 39 -9 bng 116 250 50 0 empty empty empty 17 7 0 10 #ffffff #c2f4bf #373737;
#X obj 78 31 tgl 18 0 empty empty empty 17 7 0 10 #e4e4e4 #4d4d4d #373737 0 1;
#X floatatom 78 54 5 0 0 0 - - - 12;
#X obj 63 207 spigot;
#X obj 11 5 inlet;
#X obj 63 263 outlet;
#X obj 11 170 float;
#X connect 1 0 3 1 32.................2A...7....vc....O....3I....;
#X connect 2 0 6 1 32.................g....P7+++eH....D++++mE....;
#X connect 3 0 5 0 32.................i....j9++++H....o++++aD....;
#X connect 3 0 0 0;
#X connect 4 0 6 0 32.................IA........PR.........DI....;
#X connect 6 0 3 0 32.................I....PC...PB....z....DA....;
#X coords 0 0 1 1 35 39 2 78 31;
#X restore 363 261 pd step;
#N canvas 0 22 450 300 step 0;
#X obj 39 -9 bng 116 250 50 0 empty empty empty 17 7 0 10 #ffffff #c2f4bf #373737;
#X obj 78 31 tgl 18 0 empty empty empty 17 7 0 10 #e4e4e4 #4d4d4d #373737 0 1;
#X floatatom 78 54 5 0 0 0 - - - 12;
#X obj 63 207 spigot;
#X obj 11 5 inlet;
#X obj 63 263 outlet;
#X obj 11 170 float;
#X connect 1 0 3 1 32.................2A...7....vc....O....3I....;
#X connect 2 0 6 1 32.................g....P7+++eH....D++++mE....;
#X connect 3 0 5 0 32.................i....j9++++H....o++++aD....;
#X connect 3 0 0 0;
#X connect 4 0 6 0 32.................IA........PR.........DI....;
#X connect 6 0 3 0 32.................I....PC...PB....z....DA....;
#X coords 0 0 1 1 35 39 2 78 31;
#X restore 404 261 pd step;
#N canvas 0 22 450 300 step 0;
#X obj 39 -7 bng 116 250 50 0 empty empty empty 17 7 0 10 #ffffff #c2f4bf #373737;
#X obj 78 31 tgl 18 0 empty empty empty 17 7 0 10 #e4e4e4 #4d4d4d #373737 0 1;
#X floatatom 78 54 5 0 0 0 - - - 12;
#X obj 63 207 spigot;
#X obj 11 5 inlet;
#X obj 63 263 outlet;
#X obj 11 170 float;
#X connect 1 0 3 1 32.................2A...7....vc....O....3I....;
#X connect 2 0 6 1 32.................g....P7+++eH....D++++mE....;
#X connect 3 0 5 0 32.................i....j9++++H....o++++aD....;
#X connect 3 0 0 0;
#X connect 4 0 6 0 32.................IA........PR.........DI....;
#X connect 6 0 3 0 32.................I....PC...PB....z....DA....;
#X coords 0 0 1 1 35 39 2 78 31;
#X restore 444 261 pd step;
#N canvas 0 22 450 300 step 0;
#X obj 39 -5 bng 116 250 50 0 empty empty empty 17 7 0 10 #ffffff #c2f4bf #373737;
#X obj 78 31 tgl 18 0 empty empty empty 17 7 0 10 #e4e4e4 #4d4d4d #373737 0 1;
#X floatatom 78 54 5 0 0 0 - - - 12;
#X obj 63 207 spigot;
#X obj 11 5 inlet;
#X obj 63 263 outlet;
#X obj 11 170 float;
#X connect 1 0 3 1 32.................2A...7....vc....O....3I....;
#X connect 2 0 6 1 32.................g....P7+++eH....D++++mE....;
#X connect 3 0 5 0 32.................i....j9++++H....o++++aD....;
#X connect 3 0 0 0;
#X connect 4 0 6 0 32.................IA........PR.........DI....;
#X connect 6 0 3 0 32.................I....PC...PB....z....DA....;
#X coords 0 0 1 1 35 39 2 78 31;
#X restore 485 261 pd step;
#N canvas 0 22 450 300 step 0;
#X obj 39 -8 bng 116 250 50 0 empty empty empty 17 7 0 10 #ffffff #c2f4bf #373737;
#X obj 78 31 tgl 18 0 empty empty empty 17 7 0 10 #e4e4e4 #4d4d4d #373737 0 1;
#X floatatom 78 54 5 0 0 0 - - - 12;
#X obj 63 207 spigot;
#X obj 11 5 inlet;
#X obj 63 263 outlet;
#X obj 11 170 float;
#X connect 1 0 3 1 32.................2A...7....vc....O....3I....;
#X connect 2 0 6 1 32.................g....P7+++eH....D++++mE....;
#X connect 3 0 5 0 32.................i....j9++++H....o++++aD....;
#X connect 3 0 0 0;
#X connect 4 0 6 0 32.................IA........PR.........DI....;
#X connect 6 0 3 0 32.................I....PC...PB....z....DA....;
#X coords 0 0 1 1 35 39 2 78 31;
#X restore 525 261 pd step;
#N canvas 0 22 450 300 step 0;
#X obj 39 -6 bng 116 250 50 0 empty empty empty 17 7 0 10 #ffffff #c2f4bf #373737;
#X obj 78 31 tgl 18 0 empty empty empty 17 7 0 10 #e4e4e4 #4d4d4d #373737 0 1;
#X floatatom 78 54 5 0 0 0 - - - 12;
#X obj 63 207 spigot;
#X obj 11 5 inlet;
#X obj 63 263 outlet;
#X obj 11 170 float;
#X connect 1 0 3 1 32.................2A...7....vc....O....3I....;
#X connect 2 0 6 1 32.................g....P7+++eH....D++++mE....;
#X connect 3 0 5 0 32.................i....j9++++H....o++++aD....;
#X connect 3 0 0 0;
#X connect 4 0 6 0 32.................IA........PR.........DI....;
#X connect 6 0 3 0 32.................I....PC...PB....z....DA....;
#X coords 0 0 1 1 35 39 2 78 31;
#X restore 566 261 pd step;
#N canvas 0 22 450 300 step 0;
#X obj 39 -6 bng 116 250 50 0 empty empty empty 17 7 0 10 #ffffff #c2f4bf #373737;
#X obj 78 31 tgl 18 0 empty empty empty 17 7 0 10 #e4e4e4 #4d4d4d #373737 0 1;
#X floatatom 78 54 5 0 0 0 - - - 12;
#X obj 63 207 spigot;
#X obj 11 5 inlet;
#X obj 63 263 outlet;
#X obj 11 170 float;
#X connect 1 0 3 1 32.................2A...7....vc....O....3I....;
#X connect 2 0 6 1 32.................g....P7+++eH....D++++mE....;
#X connect 3 0 5 0 32.................i....j9++++H....o++++aD....;
#X connect 3 0 0 0;
#X connect 4 0 6 0 32.................IA........PR.........DI....;
#X connect 6 0 3 0 32.................I....PC...PB....z....DA....;
#X coords 0 0 1 1 35 39 2 78 31;
#X restore 607 261 pd step;
#N canvas 0 22 450 300 step 0;
#X obj 39 -9 bng 116 250 50 0 empty empty empty 17 7 0 10 #ffffff #c2f4bf #373737;
#X obj 78 31 tgl 18 0 empty empty empty 17 7 0 10 #e4e4e4 #4d4d4d #373737 0 1;
#X floatatom 78 54 5 0 0 0 - - - 12;
#X obj 63 207 spigot;
#X obj 11 5 inlet;
#X obj 63 263 outlet;
#X obj 11 170 float;
#X connect 1 0 3 1 32.................2A...7....vc....O....3I....;
#X connect 2 0 6 1 32.................g....P7+++eH....D++++mE....;
#X connect 3 0 5 0 32.................i....j9++++H....o++++aD....;
#X connect 3 0 0 0;
#X connect 4 0 6 0 32.................IA........PR.........DI....;
#X connect 6 0 3 0 32.................I....PC...PB....z....DA....;
#X coords 0 0 1 1 35 39 2 78 31;
#X restore 647 261 pd step;
#N canvas 0 22 450 300 step 0;
#X obj 39 -8 bng 116 250 50 0 empty empty empty 17 7 0 10 #ffffff #c2f4bf #373737;
#X obj 78 31 tgl 18 0 empty empty empty 17 7 0 10 #e4e4e4 #4d4d4d #373737 0 1;
#X floatatom 78 54 5 0 0 0 - - - 12;
#X obj 63 207 spigot;
#X obj 11 5 inlet;
#X obj 63 263 outlet;
#X obj 11 170 float;
#X connect 1 0 3 1 32.................2A...7....vc....O....3I....;
#X connect 2 0 6 1 32.................g....P7+++eH....D++++mE....;
#X connect 3 0 5 0 32.................i....j9++++H....o++++aD....;
#X connect 3 0 0 0;
#X connect 4 0 6 0 32.................IA........PR.........DI....;
#X connect 6 0 3 0 32.................I....PC...PB....z....DA....;
#X coords 0 0 1 1 35 39 2 78 31;
#X restore 688 261 pd step;
#N canvas 0 22 450 300 step 0;
#X obj 39 -6 bng 116 250 50 0 empty empty empty 17 7 0 10 #ffffff #c2f4bf #373737;
#X obj 78 31 tgl 18 0 empty empty empty 17 7 0 10 #e4e4e4 #4d4d4d #373737 0 1;
#X floatatom 78 54 5 0 0 0 - - - 12;
#X obj 63 207 spigot;
#X obj 11 5 inlet;
#X obj 63 263 outlet;
#X obj 11 170 float;
#X connect 1 0 3 1 32.................2A...7....vc....O....3I....;
#X connect 2 0 6 1 32.................g....P7+++eH....D++++mE....;
#X connect 3 0 5 0 32.................i....j9++++H....o++++aD....;
#X connect 3 0 0 0;
#X connect 4 0 6 0 32.................IA........PR.........DI....;
#X connect 6 0 3 0 32.................I....PC...PB....z....DA....;
#X coords 0 0 1 1 35 39 2 78 31;
#X restore 728 261 pd step;
#N canvas 0 22 450 300 step 0;
#X obj 39 -10 bng 116 250 50 0 empty empty empty 17 7 0 10 #ffffff #c2f4bf #373737;
#X obj 78 31 tgl 18 0 empty empty empty 17 7 0 10 #e4e4e4 #4d4d4d #373737 0 1;
#X floatatom 78 54 5 0 0 0 - - - 12;
#X obj 63 207 spigot;
#X obj 11 5 inlet;
#X obj 63 263 outlet;
#X obj 11 170 float;
#X connect 1 0 3 1 32.................2A...7....vc....O....3I....;
#X connect 2 0 6 1 32.................g....P7+++eH....D++++mE....;
#X connect 3 0 5 0 32.................i....j9++++H....o++++aD....;
#X connect 3 0 0 0;
#X connect 4 0 6 0 32.................IA........PR.........DI....;
#X connect 6 0 3 0 32.................I....PC...PB....z....DA....;
#X coords 0 0 1 1 35 39 2 78 31;
#X restore 769 261 pd step;
#N canvas 0 22 450 300 step 0;
#X obj 39 -6 bng 116 250 50 0 empty empty empty 17 7 0 10 #ffffff #c2f4bf #373737;
#X obj 78 31 tgl 18 0 empty empty empty 17 7 0 10 #e4e4e4 #4d4d4d #373737 0 1;
#X floatatom 78 54 5 0 0 0 - - - 12;
#X obj 63 207 spigot;
#X obj 11 5 inlet;
#X obj 63 263 outlet;
#X obj 11 170 float;
#X connect 1 0 3 1 32.................2A...7....vc....O....3I....;
#X connect 2 0 6 1 32.................g....P7+++eH....D++++mE....;
#X connect 3 0 5 0 32.................i....j9++++H....o++++aD....;
#X connect 3 0 0 0;
#X connect 4 0 6 0 32.................IA........PR.........DI....;
#X connect 6 0 3 0 32.................I....PC...PB....z....DA....;
#X coords 0 0 1 1 35 39 2 78 31;
#X restore 810 261 pd step;
#X obj 943 311 t b f;
#N canvas 0 22 450 300 motorSel 0;
#X obj 23 122 hradio 21 1 0 2 empty empty MOTOR 0 -10 0 11 #fcfcfc #000000 #000000 0;
#X floatatom 23 145 6 0 0 0 - - - 16;
#X obj 23 190 i;
#X obj 104 130 + 1;
#X msg 65 72 1;
#X obj 65 44 loadbang;
#X obj 23 217 outlet;
#X connect 0 0 3 0;
#X connect 1 0 2 0;
#X connect 2 0 6 0;
#X connect 3 0 1 0;
#X connect 4 0 1 0;
#X connect 5 0 4 0;
#X coords 0 0 1 1 43 61 2 23 105;
#X restore 149 239 pd motorSel;
#N canvas 0 22 450 300 step 0;
#X obj 39 -5 bng 116 250 50 0 empty empty empty 17 7 0 10 #ffffff #c2f4bf #373737;
#X obj 78 31 tgl 18 0 empty empty empty 17 7 0 10 #e4e4e4 #4d4d4d #373737 0 1;
#X floatatom 78 54 5 0 0 0 - - - 12;
#X obj 63 207 spigot;
#X obj 11 5 inlet;
#X obj 63 263 outlet;
#X obj 11 170 float;
#X connect 1 0 3 1 32.................2A...7....vc....O....3I....;
#X connect 2 0 6 1 32.................g....P7+++eH....D++++mE....;
#X connect 3 0 5 0 32.................i....j9++++H....o++++aD....;
#X connect 3 0 0 0;
#X connect 4 0 6 0 32.................IA........PR.........DI....;
#X connect 6 0 3 0 32.................I....PC...PB....z....DA....;
#X coords 0 0 1 1 35 39 2 78 31;
#X restore 199 332 pd step;
#N canvas 0 22 450 300 step 0;
#X obj 39 -7 bng 116 250 50 0 empty empty empty 17 7 0 10 #ffffff #c2f4bf #373737;
#X obj 78 31 tgl 18 0 empty empty empty 17 7 0 10 #e4e4e4 #4d4d4d #373737 0 1;
#X floatatom 78 54 5 0 0 0 - - - 12;
#X obj 63 207 spigot;
#X obj 11 5 inlet;
#X obj 63 263 outlet;
#X obj 11 170 float;
#X connect 1 0 3 1 32.................2A...7....vc....O....3I....;
#X connect 2 0 6 1 32.................g....P7+++eH....D++++mE....;
#X connect 3 0 5 0 32.................i....j9++++H....o++++aD....;
#X connect 3 0 0 0;
#X connect 4 0 6 0 32.................IA........PR.........DI....;
#X connect 6 0 3 0 32.................I....PC...PB....z....DA....;
#X coords 0 0 1 1 35 39 2 78 31;
#X restore 240 332 pd step;
#N canvas 0 22 450 300 step 0;
#X obj 39 -8 bng 116 250 50 0 empty empty empty 17 7 0 10 #ffffff #c2f4bf #373737;
#X obj 78 31 tgl 18 0 empty empty empty 17 7 0 10 #e4e4e4 #4d4d4d #373737 0 1;
#X floatatom 78 54 5 0 0 0 - - - 12;
#X obj 63 207 spigot;
#X obj 11 5 inlet;
#X obj 63 263 outlet;
#X obj 11 170 float;
#X connect 1 0 3 1 32.................2A...7....vc....O....3I....;
#X connect 2 0 6 1 32.................g....P7+++eH....D++++mE....;
#X connect 3 0 5 0 32.................i....j9++++H....o++++aD....;
#X connect 3 0 0 0;
#X connect 4 0 6 0 32.................IA........PR.........DI....;
#X connect 6 0 3 0 32.................I....PC...PB....z....DA....;
#X coords 0 0 1 1 35 39 2 78 31;
#X restore 281 332 pd step;
#N canvas 0 22 450 300 step 0;
#X obj 39 -5 bng 116 250 50 0 empty empty empty 17 7 0 10 #ffffff #c2f4bf #373737;
#X obj 78 31 tgl 18 0 empty empty empty 17 7 0 10 #e4e4e4 #4d4d4d #373737 0 1;
#X floatatom 78 54 5 0 0 0 - - - 12;
#X obj 63 207 spigot;
#X obj 11 5 inlet;
#X obj 63 263 outlet;
#X obj 11 170 float;
#X connect 1 0 3 1 32.................2A...7....vc....O....3I....;
#X connect 2 0 6 1 32.................g....P7+++eH....D++++mE....;
#X connect 3 0 5 0 32.................i....j9++++H....o++++aD....;
#X connect 3 0 0 0;
#X connect 4 0 6 0 32.................IA........PR.........DI....;
#X connect 6 0 3 0 32.................I....PC...PB....z....DA....;
#X coords 0 0 1 1 37 41 2 78 31;
#X restore 322 332 pd step;
#N canvas 0 22 450 300 step 0;
#X obj 39 -8 bng 116 250 50 0 empty empty empty 17 7 0 10 #ffffff #c2f4bf #373737;
#X obj 78 31 tgl 18 0 empty empty empty 17 7 0 10 #e4e4e4 #4d4d4d #373737 0 1;
#X floatatom 78 54 5 0 0 0 - - - 12;
#X obj 63 207 spigot;
#X obj 11 5 inlet;
#X obj 63 263 outlet;
#X obj 11 170 float;
#X connect 1 0 3 1 32.................2A...7....vc....O....3I....;
#X connect 2 0 6 1 32.................g....P7+++eH....D++++mE....;
#X connect 3 0 5 0 32.................i....j9++++H....o++++aD....;
#X connect 3 0 0 0;
#X connect 4 0 6 0 32.................IA........PR.........DI....;
#X connect 6 0 3 0 32.................I....PC...PB....z....DA....;
#X coords 0 0 1 1 36 40 2 78 31;
#X restore 363 332 pd step;
#N canvas 0 22 450 300 step 0;
#X obj 39 -6 bng 116 250 50 0 empty empty empty 17 7 0 10 #ffffff #c2f4bf #373737;
#X obj 78 31 tgl 18 0 empty empty empty 17 7 0 10 #e4e4e4 #4d4d4d #373737 0 1;
#X floatatom 78 54 5 0 0 0 - - - 12;
#X obj 63 207 spigot;
#X obj 11 5 inlet;
#X obj 63 263 outlet;
#X obj 11 170 float;
#X connect 1 0 3 1 32.................2A...7....vc....O....3I....;
#X connect 2 0 6 1 32.................g....P7+++eH....D++++mE....;
#X connect 3 0 5 0 32.................i....j9++++H....o++++aD....;
#X connect 3 0 0 0;
#X connect 4 0 6 0 32.................IA........PR.........DI....;
#X connect 6 0 3 0 32.................I....PC...PB....z....DA....;
#X coords 0 0 1 1 36 40 2 78 31;
#X restore 404 332 pd step;
#N canvas 0 22 450 300 step 0;
#X obj 39 -8 bng 116 250 50 0 empty empty empty 17 7 0 10 #ffffff #c2f4bf #373737;
#X obj 78 31 tgl 18 0 empty empty empty 17 7 0 10 #e4e4e4 #4d4d4d #373737 0 1;
#X floatatom 78 54 5 0 0 0 - - - 12;
#X obj 63 207 spigot;
#X obj 11 5 inlet;
#X obj 63 263 outlet;
#X obj 11 170 float;
#X connect 1 0 3 1 32.................2A...7....vc....O....3I....;
#X connect 2 0 6 1 32.................g....P7+++eH....D++++mE....;
#X connect 3 0 5 0 32.................i....j9++++H....o++++aD....;
#X connect 3 0 0 0;
#X connect 4 0 6 0 32.................IA........PR.........DI....;
#X connect 6 0 3 0 32.................I....PC...PB....z....DA....;
#X coords 0 0 1 1 36 40 2 78 31;
#X restore 444 332 pd step;
#N canvas 0 22 450 300 step 0;
#X obj 39 -9 bng 116 250 50 0 empty empty empty 17 7 0 10 #ffffff #c2f4bf #373737;
#X obj 78 31 tgl 18 0 empty empty empty 17 7 0 10 #e4e4e4 #4d4d4d #373737 0 1;
#X floatatom 78 54 5 0 0 0 - - - 12;
#X obj 63 207 spigot;
#X obj 11 5 inlet;
#X obj 63 263 outlet;
#X obj 11 170 float;
#X connect 1 0 3 1 32.................2A...7....vc....O....3I....;
#X connect 2 0 6 1 32.................g....P7+++eH....D++++mE....;
#X connect 3 0 5 0 32.................i....j9++++H....o++++aD....;
#X connect 3 0 0 0;
#X connect 4 0 6 0 32.................IA........PR.........DI....;
#X connect 6 0 3 0 32.................I....PC...PB....z....DA....;
#X coords 0 0 1 1 36 40 2 78 31;
#X restore 485 332 pd step;
#N canvas 0 22 450 300 step 0;
#X obj 39 -6 bng 116 250 50 0 empty empty empty 17 7 0 10 #ffffff #c2f4bf #373737;
#X obj 78 31 tgl 18 0 empty empty empty 17 7 0 10 #e4e4e4 #4d4d4d #373737 0 1;
#X floatatom 78 54 5 0 0 0 - - - 12;
#X obj 63 207 spigot;
#X obj 11 5 inlet;
#X obj 63 263 outlet;
#X obj 11 170 float;
#X connect 1 0 3 1 32.................2A...7....vc....O....3I....;
#X connect 2 0 6 1 32.................g....P7+++eH....D++++mE....;
#X connect 3 0 5 0 32.................i....j9++++H....o++++aD....;
#X connect 3 0 0 0;
#X connect 4 0 6 0 32.................IA........PR.........DI....;
#X connect 6 0 3 0 32.................I....PC...PB....z....DA....;
#X coords 0 0 1 1 36 40 2 78 31;
#X restore 525 332 pd step;
#N canvas 0 22 450 300 step 0;
#X obj 39 -7 bng 116 250 50 0 empty empty empty 17 7 0 10 #ffffff #c2f4bf #373737;
#X obj 78 31 tgl 18 0 empty empty empty 17 7 0 10 #e4e4e4 #4d4d4d #373737 0 1;
#X floatatom 78 54 5 0 0 0 - - - 12;
#X obj 63 207 spigot;
#X obj 11 5 inlet;
#X obj 63 263 outlet;
#X obj 11 170 float;
#X connect 1 0 3 1 32.................2A...7....vc....O....3I....;
#X connect 2 0 6 1 32.................g....P7+++eH....D++++mE....;
#X connect 3 0 5 0 32.................i....j9++++H....o++++aD....;
#X connect 3 0 0 0;
#X connect 4 0 6 0 32.................IA........PR.........DI....;
#X connect 6 0 3 0 32.................I....PC...PB....z....DA....;
#X coords 0 0 1 1 36 40 2 78 31;
#X restore 566 332 pd step;
#N canvas 0 22 450 300 step 0;
#X obj 39 -8 bng 116 250 50 0 empty empty empty 17 7 0 10 #ffffff #c2f4bf #373737;
#X obj 78 31 tgl 18 0 empty empty empty 17 7 0 10 #e4e4e4 #4d4d4d #373737 0 1;
#X floatatom 78 54 5 0 0 0 - - - 12;
#X obj 63 207 spigot;
#X obj 11 5 inlet;
#X obj 63 263 outlet;
#X obj 11 170 float;
#X connect 1 0 3 1 32.................2A...7....vc....O....3I....;
#X connect 2 0 6 1 32.................g....P7+++eH....D++++mE....;
#X connect 3 0 5 0 32.................i....j9++++H....o++++aD....;
#X connect 3 0 0 0;
#X connect 4 0 6 0 32.................IA........PR.........DI....;
#X connect 6 0 3 0 32.................I....PC...PB....z....DA....;
#X coords 0 0 1 1 36 40 2 78 31;
#X restore 607 332 pd step;
#N canvas 0 22 450 300 step 0;
#X obj 39 -8 bng 116 250 50 0 empty empty empty 17 7 0 10 #ffffff #c2f4bf #373737;
#X obj 78 31 tgl 18 0 empty empty empty 17 7 0 10 #e4e4e4 #4d4d4d #373737 0 1;
#X floatatom 78 54 5 0 0 0 - - - 12;
#X obj 63 207 spigot;
#X obj 11 5 inlet;
#X obj 63 263 outlet;
#X obj 11 170 float;
#X connect 1 0 3 1 32.................2A...7....vc....O....3I....;
#X connect 2 0 6 1 32.................g....P7+++eH....D++++mE....;
#X connect 3 0 5 0 32.................i....j9++++H....o++++aD....;
#X connect 3 0 0 0;
#X connect 4 0 6 0 32.................IA........PR.........DI....;
#X connect 6 0 3 0 32.................I....PC...PB....z....DA....;
#X coords 0 0 1 1 36 40 2 78 31;
#X restore 647 332 pd step;
#N canvas 0 22 450 300 step 0;
#X obj 39 -6 bng 116 250 50 0 empty empty empty 17 7 0 10 #ffffff #c2f4bf #373737;
#X obj 78 31 tgl 18 0 empty empty empty 17 7 0 10 #e4e4e4 #4d4d4d #373737 0 1;
#X floatatom 78 54 5 0 0 0 - - - 12;
#X obj 46 207 spigot;
#X obj 11 5 inlet;
#X obj 63 263 outlet;
#X obj 11 170 float;
#X connect 1 0 3 1 32.................2A...7....vc....O....3I....;
#X connect 2 0 6 1 32.................g....P7+++eH....D++++mE....;
#X connect 3 0 5 0 32.................i....j9++++H....o++++aD....;
#X connect 3 0 0 0;
#X connect 4 0 6 0 32.................IA........PR.........DI....;
#X connect 6 0 3 0 32.................I....PC...PB....z....DA....;
#X coords 0 0 1 1 37 41 2 78 31;
#X restore 688 332 pd step;
#N canvas 0 22 450 300 step 0;
#X obj 39 -8 bng 116 250 50 0 empty empty empty 17 7 0 10 #ffffff #c2f4bf #373737;
#X obj 78 31 tgl 18 0 empty empty empty 17 7 0 10 #e4e4e4 #4d4d4d #373737 0 1;
#X floatatom 78 54 5 0 0 0 - - - 12;
#X obj 63 207 spigot;
#X obj 11 5 inlet;
#X obj 63 263 outlet;
#X obj 11 170 float;
#X connect 1 0 3 1 32.................2A...7....vc....O....3I....;
#X connect 2 0 6 1 32.................g....P7+++eH....D++++mE....;
#X connect 3 0 5 0 32.................i....j9++++H....o++++aD....;
#X connect 3 0 0 0;
#X connect 4 0 6 0 32.................IA........PR.........DI....;
#X connect 6 0 3 0 32.................I....PC...PB....z....DA....;
#X coords 0 0 1 1 36 40 2 78 31;
#X restore 728 332 pd step;
#N canvas 0 22 450 300 step 0;
#X obj 39 -6 bng 116 250 50 0 empty empty empty 17 7 0 10 #ffffff #c2f4bf #373737;
#X obj 78 31 tgl 18 0 empty empty empty 17 7 0 10 #e4e4e4 #4d4d4d #373737 0 1;
#X floatatom 78 54 5 0 0 0 - - - 12;
#X obj 63 207 spigot;
#X obj 11 5 inlet;
#X obj 63 263 outlet;
#X obj 11 170 float;
#X connect 1 0 3 1 32.................2A...7....vc....O....3I....;
#X connect 2 0 6 1 32.................g....P7+++eH....D++++mE....;
#X connect 3 0 5 0 32.................i....j9++++H....o++++aD....;
#X connect 3 0 0 0;
#X connect 4 0 6 0 32.................IA........PR.........DI....;
#X connect 6 0 3 0 32.................I....PC...PB....z....DA....;
#X coords 0 0 1 1 37 40 2 78 31;
#X restore 769 332 pd step;
#N canvas 0 22 450 300 step 0;
#X obj 39 -7 bng 116 250 50 0 empty empty empty 17 7 0 10 #ffffff #c2f4bf #373737;
#X obj 78 31 tgl 18 0 empty empty empty 17 7 0 10 #e4e4e4 #4d4d4d #373737 0 1;
#X floatatom 78 54 5 0 0 0 - - - 12;
#X obj 63 207 spigot;
#X obj 11 5 inlet;
#X obj 63 263 outlet;
#X obj 11 170 float;
#X connect 1 0 3 1 32.................2A...7....vc....O....3I....;
#X connect 2 0 6 1 32.................g....P7+++eH....D++++mE....;
#X connect 3 0 5 0 32.................i....j9++++H....o++++aD....;
#X connect 3 0 0 0;
#X connect 4 0 6 0 32.................IA........PR.........DI....;
#X connect 6 0 3 0 32.................I....PC...PB....z....DA....;
#X coords 0 0 1 1 36 40 2 78 31;
#X restore 810 332 pd step;
#N canvas 0 22 450 300 motorSel 0;
#X obj 23 122 hradio 21 1 0 2 empty empty MOTOR 0 -10 0 11 #fcfcfc #000000 #000000 0;
#X floatatom 23 145 6 0 0 0 - - - 16;
#X obj 23 190 i;
#X obj 104 130 + 1;
#X obj 65 44 loadbang;
#X obj 23 217 outlet;
#X msg 65 72 2;
#X connect 0 0 3 0;
#X connect 1 0 2 0;
#X connect 2 0 5 0;
#X connect 3 0 1 0;
#X connect 4 0 6 0;
#X connect 6 0 1 0;
#X coords 0 0 1 1 42 60 2 23 105;
#X restore 149 310 pd motorSel;
#X obj 1104 437 pack 1 0 0;
#X obj 1139 396 t b f;
#X obj 89 245 tgl 50 0 empty panic ON 0 -10 0 14 #fcfcfc #000000 #000000 0 1;
#X obj 89 319 tgl 50 0 empty panic ON 0 -10 0 14 #fcfcfc #000000 #000000 0 1;
#X obj 908 352 pack 0 0 0;
#X obj 908 493 outlet;
#X obj 1104 493 outlet;
#X obj 1015 296 clip 0 33;
#X obj 1191 432 * 10;
#X obj 1015 326 * 10;
#X obj 1191 402 clip 0 33;
#X connect 0 0 24 0 48.................7....7w+++OO....e7+++6n+++et++++N5+++m6+++ui9+++;
#X connect 1 0 2 0;
#X connect 1 0 3 0;
#X connect 2 0 1 1;
#X connect 3 0 4 0;
#X connect 4 0 5 0;
#X connect 4 1 6 0;
#X connect 4 2 7 0;
#X connect 4 3 8 0;
#X connect 4 4 9 0;
#X connect 4 5 10 0;
#X connect 4 6 11 0;
#X connect 4 7 12 0;
#X connect 4 8 13 0;
#X connect 4 9 14 0;
#X connect 4 10 15 0;
#X connect 4 11 16 0;
#X connect 4 12 17 0;
#X connect 4 13 18 0;
#X connect 4 14 19 0;
#X connect 4 15 20 0;
#X connect 5 0 25 0;
#X connect 5 0 43 0;
#X connect 6 0 26 0;
#X connect 6 0 44 0;
#X connect 7 0 27 0;
#X connect 7 0 45 0;
#X connect 8 0 28 0;
#X connect 8 0 46 0;
#X connect 9 0 29 0;
#X connect 9 0 47 0;
#X connect 10 0 30 0;
#X connect 10 0 48 0;
#X connect 11 0 31 0;
#X connect 11 0 49 0;
#X connect 12 0 32 0;
#X connect 12 0 50 0;
#X connect 13 0 33 0;
#X connect 13 0 51 0;
#X connect 14 0 34 0;
#X connect 14 0 52 0;
#X connect 15 0 35 0;
#X connect 15 0 53 0;
#X connect 16 0 36 0;
#X connect 16 0 54 0;
#X connect 17 0 37 0;
#X connect 17 0 55 0;
#X connect 18 0 38 0;
#X connect 18 0 56 0;
#X connect 19 0 39 0;
#X connect 19 0 57 0;
#X connect 20 0 40 0;
#X connect 20 0 58 0;
#X connect 21 0 23 0;
#X connect 21 0 24 1;
#X connect 22 0 21 0 48......................X0+++O.....V8+++6l+++eM....t4+++WC...fa9+++;
#X connect 24 0 1 0;
#X connect 25 0 41 0 48.................F....7G...fA....+A...j....P9B...I....ju...PD....;
#X connect 26 0 41 0 32.................G.....s...vA....PK...HA....;
#X connect 27 0 41 0 32.................I....bp...PB....mJ...DA....;
#X connect 28 0 41 0 48.................F....Pg...fA....TH...X....feB...F....3m...fD....;
#X connect 29 0 41 0 48.................F....He...fA....xG...X....PUB...F....Tk...fD....;
#X connect 30 0 41 0 32.................I....vh...PB....rH...HA....;
#X connect 31 0 41 0 48.................G....3Z...vA....tF...X.....AB...F....Pf...fD....;
#X connect 32 0 41 0 32.................I....rc...PB....aG...HA....;
#X connect 33 0 41 0 48.................H....rV....B....qE...X....vrA...F....La...fD....;
#X connect 34 0 41 0 32.................I....nX...PB....JF...HA....;
#X connect 35 0 41 0 48.................I....XR...PB....lD...X....PXA...F....DV...fD....;
#X connect 36 0 41 0 32.................I....jS...PB....4D...HA....;
#X connect 37 0 41 0 48.................H....TK....B....0B...X.....DA...F.....Q...fD....;
#X connect 38 0 41 0 32.................I....fN...PB....nC...HA....;
#X connect 39 0 41 0 48.................H.....F....B....fA...X....vu....F....7K...fD....;
#X connect 40 0 41 0 32.................F....XI...fA....VB...HA....;
#X connect 41 0 64 0;
#X connect 41 1 67 0;
#X connect 42 0 64 0;
#X connect 43 0 61 0 32.................I....vt...PB....rK...HA....;
#X connect 44 0 61 0 32.................J....Lr...fB....CK...HA....;
#X connect 45 0 61 0 32.................I....no...PB....ZJ...HA....;
#X connect 46 0 61 0 32.................J....Dm...fB....wI...LA....;
#X connect 47 0 61 0 32.................J....fj...fB....HI...LA....;
#X connect 48 0 61 0 48.................I....Tb...PB....EG...j....vGB...I....7g...fD....;
#X connect 49 0 61 0 48.................J....LZ...fB....iF...j....v8A...I....be...fD....;
#X connect 50 0 61 0 48.................H....DX....B....AF...j....fyA...I....3b...fD....;
#X connect 51 0 61 0 48.................I.....V...PB....fE...r....foA...K....XZ...fD....;
#X connect 52 0 61 0 32.................J....zW...fB....8E...LA....;
#X connect 53 0 61 0 32.................I....PU...PB....TE...HA....;
#X connect 54 0 61 0 48.................I....fL...PB....HC...j.....KA...I....vR...fD....;
#X connect 55 0 61 0 32.................I....LP...PB....CD...HA....;
#X connect 56 0 61 0 48.................I....HI...PB....RB...j....v1....I....rM...fD....;
#X connect 57 0 61 0 32.................I....HK...PB....xB...HA....;
#X connect 58 0 61 0 32.................I....jH...PB....IB...HA....;
#X connect 59 0 60 0;
#X connect 60 0 66 0;
#X connect 61 0 60 0;
#X connect 61 1 70 0;
#X connect 62 0 64 1;
#X connect 63 0 60 1;
#X connect 64 0 65 0;
#X connect 67 0 69 0;
#X connect 68 0 60 2;
#X connect 69 0 64 2;
#X connect 70 0 68 0;
#X coords 0 0 1 1 765 226 2 86 227;
#X restore 1043 77 pd seq;
#X obj 1031 328 oscformat -f iii /motor;
#X obj 1774 328 oscformat -f iii /motor;
#X msg 47 428 connect 192.168.1.5 9000;
#X msg 304 428 connect 192.168.1.5 9000;
#X connect 0 0 4 0;
#X connect 1 0 0 0 32.................j..........I.........fD....;
#X connect 1 1 0 1 32.................j....H.....I....B....fD....;
#X connect 1 2 0 2 32.................j....P.....I....D....fD....;
#X connect 2 0 4 0 32.................f....nr+++OH....J6+++GF....;
#X connect 3 0 2 0 32.................k.........PI.........jD....;
#X connect 3 1 2 1 32.................k....L....PI....C....jD....;
#X connect 3 2 2 2 32.................k....T....PI....E....jD....;
#X connect 4 0 5 0;
#X connect 5 0 7 0;
#X connect 6 0 7 0;
#X connect 8 0 4 0 32.................e....fX++++G....H1+++mB....;
#X connect 10 0 8 0;
#X connect 10 1 8 1;
#X connect 10 2 8 2;
#X connect 10 3 8 3;
#X connect 10 4 8 4;
#X connect 10 5 8 5;
#X connect 15 0 16 0;
#X connect 15 1 17 0;
#X connect 16 0 4 0;
#X connect 17 0 4 0;
#X connect 18 0 7 0;
