#N canvas 967 545 770 424 12;
#N canvas 92 136 331 294 motor 0;
#X obj 77 223 outlet;
#X obj 77 189 oscformat -f iiii /motor;
#X obj 77 159 pack 0 0 0, f 24;
#X obj 77 34 inlet;
#X obj 77 112 i;
#X obj 128 87 t b f;
#X obj 160 113 i;
#X obj 210 88 t b f;
#X obj 242 112 i;
#X obj 128 33 inlet;
#X obj 210 35 inlet;
#X connect 1 0 0 0;
#X connect 2 0 1 0;
#X connect 3 0 4 0;
#X connect 4 0 2 0;
#X connect 5 0 2 0;
#X connect 5 1 6 0;
#X connect 6 0 2 1;
#X connect 7 0 2 0;
#X connect 7 1 8 0;
#X connect 8 0 2 2;
#X connect 9 0 5 0;
#X connect 10 0 7 0;
#X restore 17 299 pd motor;
#X f 43;
#N canvas 439 297 1176 626 controlMotor 0;
#X obj 104 105 tgl 50 0 empty panic ON 55 30 0 40 #fcfcfc #000000 #000000 0 1;
#X obj 106 161 hsl 290 40 0 330 0 0 empty rm1 empty -2 -8 0 10 #fcfcfc #000000 #000000 0 1;
#X obj 453 227 i;
#X obj 476 258 / 10;
#X obj 104 204 nbx 4 40 -1e+37 1e+37 0 0 empty empty Hz 165 25 0 40 #fcfcfc #000000 #000000 0 256;
#X msg 438 188 0;
#X obj 438 163 r panic;
#X obj 290 106 hradio 19 1 0 2 empty empty MOTOR 40 10 0 12 #fcfcfc #000000 #000000 0;
#X floatatom 292 133 5 0 0 0 - - - 0;
#X obj 440 132 i;
#X obj 439 103 + 1;
#X obj 101 363 outlet;
#X obj 238 362 outlet;
#X obj 366 365 outlet;
#X msg 441 71 1;
#X obj 441 43 loadbang;
#X connect 0 0 12 0;
#X connect 1 0 2 0;
#X connect 2 0 3 0;
#X connect 2 0 13 0;
#X connect 3 0 4 0;
#X connect 5 0 1 0;
#X connect 6 0 5 0;
#X connect 7 0 10 0;
#X connect 8 0 9 0;
#X connect 8 0 11 0;
#X connect 10 0 8 0;
#X connect 14 0 8 0;
#X connect 15 0 14 0;
#X coords 0 -1 2 1 300 150 2 100 100;
#X restore 17 77 pd controlMotor;
#N canvas 92 136 331 294 motor 0;
#X obj 77 223 outlet;
#X obj 77 189 oscformat -f iiii /motor;
#X obj 77 159 pack 0 0 0, f 24;
#X obj 77 34 inlet;
#X obj 77 112 i;
#X obj 128 87 t b f;
#X obj 160 113 i;
#X obj 210 88 t b f;
#X obj 242 112 i;
#X obj 128 33 inlet;
#X obj 210 35 inlet;
#X connect 1 0 0 0;
#X connect 2 0 1 0;
#X connect 3 0 4 0;
#X connect 4 0 2 0;
#X connect 5 0 2 0;
#X connect 5 1 6 0;
#X connect 6 0 2 1;
#X connect 7 0 2 0;
#X connect 7 1 8 0;
#X connect 8 0 2 2;
#X connect 9 0 5 0;
#X connect 10 0 7 0;
#X restore 328 299 pd motor;
#X f 43;
#N canvas 439 297 1176 626 controlMotor 1;
#X obj 104 105 tgl 50 0 empty panic ON 55 30 0 40 #fcfcfc #000000 #000000 0 1;
#X obj 106 161 hsl 290 40 0 330 0 0 empty rm1 empty -2 -8 0 10 #fcfcfc #000000 #000000 0 1;
#X obj 453 227 i;
#X obj 476 258 / 10;
#X obj 104 204 nbx 4 40 -1e+37 1e+37 0 0 empty empty Hz 165 25 0 40 #fcfcfc #000000 #000000 0 256;
#X msg 64 43 0;
#X obj 64 18 r panic;
#X obj 290 106 hradio 19 1 0 2 empty empty MOTOR 40 10 0 11 #fcfcfc #000000 #000000 0;
#X floatatom 292 133 5 0 0 0 - - - 0;
#X obj 440 132 i;
#X obj 439 103 + 1;
#X obj 101 363 outlet;
#X obj 238 362 outlet;
#X obj 366 365 outlet;
#X msg 441 71 1;
#X obj 441 43 loadbang;
#X connect 0 0 12 0;
#X connect 1 0 2 0;
#X connect 2 0 3 0;
#X connect 2 0 13 0;
#X connect 3 0 4 0;
#X connect 5 0 1 0;
#X connect 6 0 5 0;
#X connect 7 0 10 0;
#X connect 8 0 9 0;
#X connect 8 0 11 0;
#X connect 10 0 8 0;
#X connect 14 0 8 0;
#X connect 15 0 14 0;
#X coords 0 -1 2 1 299 149 2 100 100;
#X restore 328 77 pd controlMotor;
#X obj 17 360 list prepend send;
#X obj 17 391 list trim;
#X msg 64 458 disconnect;
#X obj 17 501 netsend -u -b;
#X msg 47 428 connect 127.0.0.1 9000;
#N canvas 92 136 331 294 estorbo 1;
#X obj 77 223 outlet;
#X obj 77 34 inlet;
#X obj 77 111 i;
#X obj 147 80 t b f;
#X obj 160 111 i;
#X obj 230 80 t b f;
#X obj 243 111 i;
#X obj 147 34 inlet;
#X obj 230 34 inlet;
#X obj 314 80 t b f;
#X obj 327 111 i;
#X obj 396 80 t b f;
#X obj 409 111 i;
#X obj 314 34 inlet;
#X obj 396 34 inlet;
#X obj 479 80 t b f;
#X obj 492 111 i;
#X obj 479 34 inlet;
#X obj 77 159 pack 0 0 0 0 0 0, f 62;
#X obj 77 189 oscformat -f iiiiii /estorbo;
#X connect 1 0 2 0;
#X connect 2 0 18 0;
#X connect 3 0 18 0;
#X connect 3 1 4 0;
#X connect 4 0 18 1;
#X connect 5 0 18 0;
#X connect 5 1 6 0;
#X connect 6 0 18 2;
#X connect 7 0 3 0;
#X connect 8 0 5 0;
#X connect 9 0 18 0;
#X connect 9 1 10 0;
#X connect 10 0 18 3;
#X connect 11 0 18 0;
#X connect 11 1 12 0;
#X connect 12 0 18 4;
#X connect 13 0 9 0;
#X connect 14 0 11 0;
#X connect 15 0 18 0;
#X connect 15 1 16 0;
#X connect 16 0 18 5;
#X connect 17 0 15 0;
#X connect 18 0 19 0;
#X connect 19 0 0 0;
#X restore 650 299 pd estorbo;
#X f 43;
#X text 656 372 on \, led1 \, led2 \, t1 \, t2 \, pwm;
#X msg 17 17 \; panic 0;
#N canvas 0 22 450 300 controlEstorbo 1;
#X obj 154 20 hradio 19 1 0 5 empty empty LED\ 1 40 -10 0 11 #fcfcfc #000000 #000000 0;
#X floatatom 154 46 5 0 0 0 - - - 0;
#X obj 156 83 hradio 19 1 0 5 empty empty LED\ 2 40 -10 0 11 #fcfcfc #000000 #000000 0;
#X floatatom 156 108 5 0 0 0 - - - 0;
#X obj 10 5 tgl 50 0 empty panic ON 55 30 0 40 #fcfcfc #000000 #000000 0 1;
#X obj 23 73 vsl 20 102 0 127 0 0 empty empty empty 0 -9 0 10 #e4e4e4 #4d4d4d #373737 0 1;
#X obj 10 178 nbx 2 18 -1e+37 1e+37 0 0 empty empty t1 50 10 0 14 #e4e4e4 #373737 #373737 0 256;
#X obj 327 138 i;
#X obj 91 73 vsl 24 102 0 127 0 0 empty empty empty 0 -9 0 10 #e4e4e4 #4d4d4d #373737 0 1;
#X obj 82 178 nbx 2 18 -1e+37 1e+37 0 0 empty empty t2 50 10 0 14 #e4e4e4 #373737 #373737 0 256;
#X obj 369 138 i;
#X obj 160 148 hsl 133 27 0 255 0 0 empty empty empty -2 -8 0 10 #e4e4e4 #4d4d4d #373737 0 1;
#X obj 154 178 nbx 2 18 -1e+37 1e+37 0 0 empty empty pwm 50 10 0 14 #e4e4e4 #373737 #373737 0 256;
#X obj 327 178 i;
#X obj 10 364 outlet;
#X obj 64 364 outlet;
#X obj 118 364 outlet;
#X obj 172 364 outlet;
#X obj 226 364 outlet;
#X obj 280 364 outlet;
#X text 20 427 on \, led1 \, led2 \, t1 \, t2 \, pwm;
#X connect 0 0 1 0;
#X connect 1 0 15 0;
#X connect 2 0 3 0;
#X connect 3 0 16 0;
#X connect 4 0 14 0;
#X connect 5 0 7 0;
#X connect 6 0 17 0;
#X connect 7 0 6 0;
#X connect 8 0 10 0;
#X connect 9 0 18 0;
#X connect 10 0 9 0;
#X connect 11 0 13 0;
#X connect 12 0 19 0;
#X connect 13 0 12 0;
#X coords 0 0 1 1 303 204 2 2 3;
#X restore 650 77 pd controlEstorbo;
#X connect 0 0 4 0;
#X connect 1 0 0 0;
#X connect 1 1 0 1;
#X connect 1 2 0 2;
#X connect 2 0 4 0 32.................f....nr+++OH....J6+++GF....;
#X connect 3 0 2 0;
#X connect 3 1 2 1;
#X connect 3 2 2 2;
#X connect 4 0 5 0;
#X connect 5 0 7 0;
#X connect 6 0 7 0;
#X connect 8 0 7 0;
#X connect 9 0 4 0;
#X connect 12 0 9 0;
#X connect 12 1 9 1;
#X connect 12 2 9 2;
#X connect 12 3 9 3;
#X connect 12 4 9 4;
#X connect 12 5 9 5;
